<svg width="6cm" height="6cm" version="1.1" xmlns="http://www.w3.org/2000/svg"><g id="graph"><circle cx="3.0cm" cy="0.5cm" r="0.0625cm" fill="#ff0000"></circle><line x1="0cm" y1="0cm" x2="6cm" y2="0cm" stroke="#000000" strokewidth="0.03125cm"></line><line x1="0cm" y1="0cm" x2="0cm" y2="1cm" stroke="#000000" strokewidth="0.03125cm"></line><line x1="6cm" y1="0cm" x2="6cm" y2="1cm" stroke="#000000" strokewidth="0.03125cm"></line><line x1="3.0cm" y1="0.5cm" x2="1.5cm" y2="1.5cm" stroke="#0000ff" strokewidth="0.0625cm"></line><circle cx="1.5cm" cy="1.5cm" r="0.0625cm" fill="#ff0000"></circle><line x1="0cm" y1="1cm" x2="3.0cm" y2="1cm" stroke="#000000" strokewidth="0.03125cm"></line><line x1="0cm" y1="1cm" x2="0cm" y2="2cm" stroke="#000000" strokewidth="0.03125cm"></line><line x1="3.0cm" y1="1cm" x2="3.0cm" y2="2cm" stroke="#000000" strokewidth="0.03125cm"></line><line x1="1.5cm" y1="1.5cm" x2="0.5cm" y2="2.5cm" stroke="#0000ff" strokewidth="0.0625cm"></line><circle cx="0.5cm" cy="2.5cm" r="0.0625cm" fill="#ff0000"></circle><line x1="0cm" y1="2cm" x2="1.0cm" y2="2cm" stroke="#000000" strokewidth="0.03125cm"></line><line x1="0cm" y1="2cm" x2="0cm" y2="3cm" stroke="#000000" strokewidth="0.03125cm"></line><line x1="1.0cm" y1="2cm" x2="1.0cm" y2="3cm" stroke="#000000" strokewidth="0.03125cm"></line><line x1="0cm" y1="3cm" x2="1.0cm" y2="3cm" stroke="#000000" strokewidth="0.0625cm"></line><line x1="1.5cm" y1="1.5cm" x2="1.5cm" y2="2.5cm" stroke="#0000ff" strokewidth="0.0625cm"></line><circle cx="1.5cm" cy="2.5cm" r="0.0625cm" fill="#ff0000"></circle><line x1="1.0cm" y1="2cm" x2="2.0cm" y2="2cm" stroke="#000000" strokewidth="0.03125cm"></line><line x1="1.0cm" y1="2cm" x2="1.0cm" y2="3cm" stroke="#000000" strokewidth="0.03125cm"></line><line x1="2.0cm" y1="2cm" x2="2.0cm" y2="3cm" stroke="#000000" strokewidth="0.03125cm"></line><line x1="1.0cm" y1="3cm" x2="2.0cm" y2="3cm" stroke="#000000" strokewidth="0.0625cm"></line><line x1="1.5cm" y1="1.5cm" x2="2.5cm" y2="2.5cm" stroke="#0000ff" strokewidth="0.0625cm"></line><circle cx="2.5cm" cy="2.5cm" r="0.0625cm" fill="#ff0000"></circle><line x1="2.0cm" y1="2cm" x2="3.0cm" y2="2cm" stroke="#000000" strokewidth="0.03125cm"></line><line x1="2.0cm" y1="2cm" x2="2.0cm" y2="3cm" stroke="#000000" strokewidth="0.03125cm"></line><line x1="3.0cm" y1="2cm" x2="3.0cm" y2="3cm" stroke="#000000" strokewidth="0.03125cm"></line><line x1="2.0cm" y1="3cm" x2="3.0cm" y2="3cm" stroke="#000000" strokewidth="0.0625cm"></line><line x1="3.0cm" y1="0.5cm" x2="4.5cm" y2="1.5cm" stroke="#0000ff" strokewidth="0.0625cm"></line><circle cx="4.5cm" cy="1.5cm" r="0.0625cm" fill="#ff0000"></circle><line x1="3.0cm" y1="1cm" x2="6.0cm" y2="1cm" stroke="#000000" strokewidth="0.03125cm"></line><line x1="3.0cm" y1="1cm" x2="3.0cm" y2="2cm" stroke="#000000" strokewidth="0.03125cm"></line><line x1="6.0cm" y1="1cm" x2="6.0cm" y2="2cm" stroke="#000000" strokewidth="0.03125cm"></line><line x1="4.5cm" y1="1.5cm" x2="3.5cm" y2="2.5cm" stroke="#0000ff" strokewidth="0.0625cm"></line><circle cx="3.5cm" cy="2.5cm" r="0.0625cm" fill="#ff0000"></circle><line x1="3.0cm" y1="2cm" x2="4.0cm" y2="2cm" stroke="#000000" strokewidth="0.03125cm"></line><line x1="3.0cm" y1="2cm" x2="3.0cm" y2="3cm" stroke="#000000" strokewidth="0.03125cm"></line><line x1="4.0cm" y1="2cm" x2="4.0cm" y2="3cm" stroke="#000000" strokewidth="0.03125cm"></line><line x1="3.0cm" y1="3cm" x2="4.0cm" y2="3cm" stroke="#000000" strokewidth="0.0625cm"></line><line x1="4.5cm" y1="1.5cm" x2="4.5cm" y2="2.5cm" stroke="#0000ff" strokewidth="0.0625cm"></line><circle cx="4.5cm" cy="2.5cm" r="0.0625cm" fill="#ff0000"></circle><line x1="4.0cm" y1="2cm" x2="5.0cm" y2="2cm" stroke="#000000" strokewidth="0.03125cm"></line><line x1="4.0cm" y1="2cm" x2="4.0cm" y2="3cm" stroke="#000000" strokewidth="0.03125cm"></line><line x1="5.0cm" y1="2cm" x2="5.0cm" y2="3cm" stroke="#000000" strokewidth="0.03125cm"></line><line x1="4.0cm" y1="3cm" x2="5.0cm" y2="3cm" stroke="#000000" strokewidth="0.0625cm"></line><line x1="4.5cm" y1="1.5cm" x2="5.5cm" y2="2.5cm" stroke="#0000ff" strokewidth="0.0625cm"></line><circle cx="5.5cm" cy="2.5cm" r="0.0625cm" fill="#ff0000"></circle><line x1="5.0cm" y1="2cm" x2="6.0cm" y2="2cm" stroke="#000000" strokewidth="0.03125cm"></line><line x1="5.0cm" y1="2cm" x2="5.0cm" y2="3cm" stroke="#000000" strokewidth="0.03125cm"></line><line x1="6.0cm" y1="2cm" x2="6.0cm" y2="3cm" stroke="#000000" strokewidth="0.03125cm"></line><line x1="5.0cm" y1="3cm" x2="6.0cm" y2="3cm" stroke="#000000" strokewidth="0.0625cm"></line></g><use href="#graph" y="3.0cm" transform="rotate(180, 3.0, 3.0)"></use></svg>