<svg width="5cm" height="6cm" viewBox="0, 0, 5, 6" version="1.1" xmlns="http://www.w3.org/2000/svg"><g id="graph"><line x1="0" y1="0" x2="5" y2="0" stroke="#000000" stroke-width="0.03125"></line><line x1="0" y1="0" x2="0" y2="1" stroke="#000000" stroke-width="0.03125"></line><line x1="5" y1="0" x2="5" y2="1" stroke="#000000" stroke-width="0.03125"></line><line x1="0" y1="1" x2="2.5" y2="1" stroke="#000000" stroke-width="0.03125"></line><line x1="0" y1="1" x2="0" y2="2" stroke="#000000" stroke-width="0.03125"></line><line x1="2.5" y1="1" x2="2.5" y2="2" stroke="#000000" stroke-width="0.03125"></line><line x1="0" y1="2" x2="1.25" y2="2" stroke="#000000" stroke-width="0.03125"></line><line x1="0" y1="2" x2="0" y2="3" stroke="#000000" stroke-width="0.03125"></line><line x1="1.25" y1="2" x2="1.25" y2="3" stroke="#000000" stroke-width="0.03125"></line><line x1="0" y1="3" x2="1.25" y2="3" stroke="#000000" stroke-width="0.0625"></line><line x1="1.25" y1="1.5" x2="0.625" y2="2.5" stroke="#0000ff" stroke-width="0.0625"></line><line x1="1.25" y1="2" x2="2.5" y2="2" stroke="#000000" stroke-width="0.03125"></line><line x1="1.25" y1="2" x2="1.25" y2="3" stroke="#000000" stroke-width="0.03125"></line><line x1="2.5" y1="2" x2="2.5" y2="3" stroke="#000000" stroke-width="0.03125"></line><line x1="1.25" y1="3" x2="2.5" y2="3" stroke="#000000" stroke-width="0.0625"></line><line x1="1.25" y1="1.5" x2="1.875" y2="2.5" stroke="#0000ff" stroke-width="0.0625"></line><line x1="2.5" y1="0.5" x2="1.25" y2="1.5" stroke="#0000ff" stroke-width="0.0625"></line><line x1="2.5" y1="1" x2="5.0" y2="1" stroke="#000000" stroke-width="0.03125"></line><line x1="2.5" y1="1" x2="2.5" y2="2" stroke="#000000" stroke-width="0.03125"></line><line x1="5.0" y1="1" x2="5.0" y2="2" stroke="#000000" stroke-width="0.03125"></line><line x1="2.5" y1="2" x2="3.3333333333333335" y2="2" stroke="#000000" stroke-width="0.03125"></line><line x1="2.5" y1="2" x2="2.5" y2="3" stroke="#000000" stroke-width="0.03125"></line><line x1="3.3333333333333335" y1="2" x2="3.3333333333333335" y2="3" stroke="#000000" stroke-width="0.03125"></line><line x1="2.5" y1="3" x2="3.3333333333333335" y2="3" stroke="#000000" stroke-width="0.0625"></line><line x1="3.75" y1="1.5" x2="2.9166666666666665" y2="2.5" stroke="#0000ff" stroke-width="0.0625"></line><line x1="3.3333333333333335" y1="2" x2="4.166666666666667" y2="2" stroke="#000000" stroke-width="0.03125"></line><line x1="3.3333333333333335" y1="2" x2="3.3333333333333335" y2="3" stroke="#000000" stroke-width="0.03125"></line><line x1="4.166666666666667" y1="2" x2="4.166666666666667" y2="3" stroke="#000000" stroke-width="0.03125"></line><line x1="3.3333333333333335" y1="3" x2="4.166666666666667" y2="3" stroke="#000000" stroke-width="0.0625"></line><line x1="3.75" y1="1.5" x2="3.75" y2="2.5" stroke="#0000ff" stroke-width="0.0625"></line><line x1="4.166666666666667" y1="2" x2="5.0" y2="2" stroke="#000000" stroke-width="0.03125"></line><line x1="4.166666666666667" y1="2" x2="4.166666666666667" y2="3" stroke="#000000" stroke-width="0.03125"></line><line x1="5.0" y1="2" x2="5.0" y2="3" stroke="#000000" stroke-width="0.03125"></line><line x1="4.166666666666667" y1="3" x2="5.0" y2="3" stroke="#000000" stroke-width="0.0625"></line><line x1="3.75" y1="1.5" x2="4.583333333333334" y2="2.5" stroke="#0000ff" stroke-width="0.0625"></line><line x1="2.5" y1="0.5" x2="3.75" y2="1.5" stroke="#0000ff" stroke-width="0.0625"></line><circle cx="2.5" cy="0.5" r="0.0625" fill="#ff0000"></circle><circle cx="1.25" cy="1.5" r="0.0625" fill="#ff0000"></circle><circle cx="0.625" cy="2.5" r="0.0625" fill="#ff0000"></circle><circle cx="1.875" cy="2.5" r="0.0625" fill="#ff0000"></circle><circle cx="3.75" cy="1.5" r="0.0625" fill="#ff0000"></circle><circle cx="2.9166666666666665" cy="2.5" r="0.0625" fill="#ff0000"></circle><circle cx="3.75" cy="2.5" r="0.0625" fill="#ff0000"></circle><circle cx="4.583333333333334" cy="2.5" r="0.0625" fill="#ff0000"></circle></g><use href="#graph" y="3.0" transform=" translate(0, 3.0) rotate(180, 2.5, 3.0)"></use></svg>