<svg width="16cm" height="8cm" viewBox="0, 0, 16, 8" version="1.1" xmlns="http://www.w3.org/2000/svg"><g id="graph"><line x1="0" y1="0" x2="16" y2="0" stroke="#000000" stroke-width="0.03125"></line><line x1="0" y1="0" x2="0" y2="1" stroke="#000000" stroke-width="0.03125"></line><line x1="16" y1="0" x2="16" y2="1" stroke="#000000" stroke-width="0.03125"></line><line x1="0" y1="1" x2="8.0" y2="1" stroke="#000000" stroke-width="0.03125"></line><line x1="0" y1="1" x2="0" y2="2" stroke="#000000" stroke-width="0.03125"></line><line x1="8.0" y1="1" x2="8.0" y2="2" stroke="#000000" stroke-width="0.03125"></line><line x1="0" y1="2" x2="4.0" y2="2" stroke="#000000" stroke-width="0.03125"></line><line x1="0" y1="2" x2="0" y2="4" stroke="#000000" stroke-width="0.03125"></line><line x1="4.0" y1="2" x2="4.0" y2="4" stroke="#000000" stroke-width="0.03125"></line><line x1="0" y1="4" x2="4.0" y2="4" stroke="#000000" stroke-width="0.0625"></line><line x1="4.0" y1="1.5" x2="2.0" y2="2.5" stroke="#0000ff" stroke-width="0.0625"></line><line x1="4.0" y1="2" x2="8.0" y2="2" stroke="#000000" stroke-width="0.03125"></line><line x1="4.0" y1="2" x2="4.0" y2="4" stroke="#000000" stroke-width="0.03125"></line><line x1="8.0" y1="2" x2="8.0" y2="4" stroke="#000000" stroke-width="0.03125"></line><line x1="4.0" y1="4" x2="8.0" y2="4" stroke="#000000" stroke-width="0.0625"></line><line x1="4.0" y1="1.5" x2="6.0" y2="2.5" stroke="#0000ff" stroke-width="0.0625"></line><line x1="8.0" y1="0.5" x2="4.0" y2="1.5" stroke="#0000ff" stroke-width="0.0625"></line><line x1="8.0" y1="1" x2="16.0" y2="1" stroke="#000000" stroke-width="0.03125"></line><line x1="8.0" y1="1" x2="8.0" y2="2" stroke="#000000" stroke-width="0.03125"></line><line x1="16.0" y1="1" x2="16.0" y2="2" stroke="#000000" stroke-width="0.03125"></line><line x1="8.0" y1="2" x2="12.0" y2="2" stroke="#000000" stroke-width="0.03125"></line><line x1="8.0" y1="2" x2="8.0" y2="3" stroke="#000000" stroke-width="0.03125"></line><line x1="12.0" y1="2" x2="12.0" y2="3" stroke="#000000" stroke-width="0.03125"></line><line x1="8.0" y1="3" x2="10.0" y2="3" stroke="#000000" stroke-width="0.03125"></line><line x1="8.0" y1="3" x2="8.0" y2="4" stroke="#000000" stroke-width="0.03125"></line><line x1="10.0" y1="3" x2="10.0" y2="4" stroke="#000000" stroke-width="0.03125"></line><line x1="8.0" y1="4" x2="10.0" y2="4" stroke="#000000" stroke-width="0.0625"></line><line x1="10.0" y1="2.5" x2="9.0" y2="3.5" stroke="#0000ff" stroke-width="0.0625"></line><line x1="10.0" y1="3" x2="12.0" y2="3" stroke="#000000" stroke-width="0.03125"></line><line x1="10.0" y1="3" x2="10.0" y2="4" stroke="#000000" stroke-width="0.03125"></line><line x1="12.0" y1="3" x2="12.0" y2="4" stroke="#000000" stroke-width="0.03125"></line><line x1="10.0" y1="4" x2="12.0" y2="4" stroke="#000000" stroke-width="0.0625"></line><line x1="10.0" y1="2.5" x2="11.0" y2="3.5" stroke="#0000ff" stroke-width="0.0625"></line><line x1="12.0" y1="1.5" x2="10.0" y2="2.5" stroke="#0000ff" stroke-width="0.0625"></line><line x1="12.0" y1="2" x2="16.0" y2="2" stroke="#000000" stroke-width="0.03125"></line><line x1="12.0" y1="2" x2="12.0" y2="4" stroke="#000000" stroke-width="0.03125"></line><line x1="16.0" y1="2" x2="16.0" y2="4" stroke="#000000" stroke-width="0.03125"></line><line x1="12.0" y1="4" x2="16.0" y2="4" stroke="#000000" stroke-width="0.0625"></line><line x1="12.0" y1="1.5" x2="14.0" y2="2.5" stroke="#0000ff" stroke-width="0.0625"></line><line x1="8.0" y1="0.5" x2="12.0" y2="1.5" stroke="#0000ff" stroke-width="0.0625"></line><circle cx="8.0" cy="0.5" r="0.0625" fill="#ff0000"></circle><circle cx="4.0" cy="1.5" r="0.0625" fill="#ff0000"></circle><circle cx="2.0" cy="2.5" r="0.0625" fill="#ff0000"></circle><circle cx="6.0" cy="2.5" r="0.0625" fill="#ff0000"></circle><circle cx="12.0" cy="1.5" r="0.0625" fill="#ff0000"></circle><circle cx="10.0" cy="2.5" r="0.0625" fill="#ff0000"></circle><circle cx="9.0" cy="3.5" r="0.0625" fill="#ff0000"></circle><circle cx="11.0" cy="3.5" r="0.0625" fill="#ff0000"></circle><circle cx="14.0" cy="2.5" r="0.0625" fill="#ff0000"></circle></g><use href="#graph" y="4.0" transform=" translate(0, 4.0) rotate(180, 8.0, 4.0)"></use></svg>