<svg width="9cm" height="6cm" viewBox="0, 0, 9, 6" version="1.1" xmlns="http://www.w3.org/2000/svg"><g id="graph"><line x1="0" y1="0" x2="9" y2="0" stroke="#000000" stroke-width="0.03125"></line><line x1="0" y1="0" x2="0" y2="1" stroke="#000000" stroke-width="0.03125"></line><line x1="9" y1="0" x2="9" y2="1" stroke="#000000" stroke-width="0.03125"></line><line x1="0" y1="1" x2="3.0" y2="1" stroke="#000000" stroke-width="0.03125"></line><line x1="0" y1="1" x2="0" y2="2" stroke="#000000" stroke-width="0.03125"></line><line x1="3.0" y1="1" x2="3.0" y2="2" stroke="#000000" stroke-width="0.03125"></line><line x1="0" y1="2" x2="1.0" y2="2" stroke="#000000" stroke-width="0.03125"></line><line x1="0" y1="2" x2="0" y2="3" stroke="#000000" stroke-width="0.03125"></line><line x1="1.0" y1="2" x2="1.0" y2="3" stroke="#000000" stroke-width="0.03125"></line><line x1="0" y1="3" x2="1.0" y2="3" stroke="#000000" stroke-width="0.0625"></line><line x1="1.5" y1="1.5" x2="0.5" y2="2.5" stroke="#0000ff" stroke-width="0.0625"></line><line x1="1.0" y1="2" x2="2.0" y2="2" stroke="#000000" stroke-width="0.03125"></line><line x1="1.0" y1="2" x2="1.0" y2="3" stroke="#000000" stroke-width="0.03125"></line><line x1="2.0" y1="2" x2="2.0" y2="3" stroke="#000000" stroke-width="0.03125"></line><line x1="1.0" y1="3" x2="2.0" y2="3" stroke="#000000" stroke-width="0.0625"></line><line x1="1.5" y1="1.5" x2="1.5" y2="2.5" stroke="#0000ff" stroke-width="0.0625"></line><line x1="2.0" y1="2" x2="3.0" y2="2" stroke="#000000" stroke-width="0.03125"></line><line x1="2.0" y1="2" x2="2.0" y2="3" stroke="#000000" stroke-width="0.03125"></line><line x1="3.0" y1="2" x2="3.0" y2="3" stroke="#000000" stroke-width="0.03125"></line><line x1="2.0" y1="3" x2="3.0" y2="3" stroke="#000000" stroke-width="0.0625"></line><line x1="1.5" y1="1.5" x2="2.5" y2="2.5" stroke="#0000ff" stroke-width="0.0625"></line><line x1="4.5" y1="0.5" x2="1.5" y2="1.5" stroke="#0000ff" stroke-width="0.0625"></line><line x1="3.0" y1="1" x2="6.0" y2="1" stroke="#000000" stroke-width="0.03125"></line><line x1="3.0" y1="1" x2="3.0" y2="2" stroke="#000000" stroke-width="0.03125"></line><line x1="6.0" y1="1" x2="6.0" y2="2" stroke="#000000" stroke-width="0.03125"></line><line x1="3.0" y1="2" x2="4.5" y2="2" stroke="#000000" stroke-width="0.03125"></line><line x1="3.0" y1="2" x2="3.0" y2="3" stroke="#000000" stroke-width="0.03125"></line><line x1="4.5" y1="2" x2="4.5" y2="3" stroke="#000000" stroke-width="0.03125"></line><line x1="3.0" y1="3" x2="4.5" y2="3" stroke="#000000" stroke-width="0.0625"></line><line x1="4.5" y1="1.5" x2="3.75" y2="2.5" stroke="#0000ff" stroke-width="0.0625"></line><line x1="4.5" y1="2" x2="6.0" y2="2" stroke="#000000" stroke-width="0.03125"></line><line x1="4.5" y1="2" x2="4.5" y2="3" stroke="#000000" stroke-width="0.03125"></line><line x1="6.0" y1="2" x2="6.0" y2="3" stroke="#000000" stroke-width="0.03125"></line><line x1="4.5" y1="3" x2="6.0" y2="3" stroke="#000000" stroke-width="0.0625"></line><line x1="4.5" y1="1.5" x2="5.25" y2="2.5" stroke="#0000ff" stroke-width="0.0625"></line><line x1="4.5" y1="0.5" x2="4.5" y2="1.5" stroke="#0000ff" stroke-width="0.0625"></line><line x1="6.0" y1="1" x2="9.0" y2="1" stroke="#000000" stroke-width="0.03125"></line><line x1="6.0" y1="1" x2="6.0" y2="2" stroke="#000000" stroke-width="0.03125"></line><line x1="9.0" y1="1" x2="9.0" y2="2" stroke="#000000" stroke-width="0.03125"></line><line x1="6.0" y1="2" x2="6.75" y2="2" stroke="#000000" stroke-width="0.03125"></line><line x1="6.0" y1="2" x2="6.0" y2="3" stroke="#000000" stroke-width="0.03125"></line><line x1="6.75" y1="2" x2="6.75" y2="3" stroke="#000000" stroke-width="0.03125"></line><line x1="6.0" y1="3" x2="6.75" y2="3" stroke="#000000" stroke-width="0.0625"></line><line x1="7.5" y1="1.5" x2="6.375" y2="2.5" stroke="#0000ff" stroke-width="0.0625"></line><line x1="6.75" y1="2" x2="7.5" y2="2" stroke="#000000" stroke-width="0.03125"></line><line x1="6.75" y1="2" x2="6.75" y2="3" stroke="#000000" stroke-width="0.03125"></line><line x1="7.5" y1="2" x2="7.5" y2="3" stroke="#000000" stroke-width="0.03125"></line><line x1="6.75" y1="3" x2="7.5" y2="3" stroke="#000000" stroke-width="0.0625"></line><line x1="7.5" y1="1.5" x2="7.125" y2="2.5" stroke="#0000ff" stroke-width="0.0625"></line><line x1="7.5" y1="2" x2="8.25" y2="2" stroke="#000000" stroke-width="0.03125"></line><line x1="7.5" y1="2" x2="7.5" y2="3" stroke="#000000" stroke-width="0.03125"></line><line x1="8.25" y1="2" x2="8.25" y2="3" stroke="#000000" stroke-width="0.03125"></line><line x1="7.5" y1="3" x2="8.25" y2="3" stroke="#000000" stroke-width="0.0625"></line><line x1="7.5" y1="1.5" x2="7.875" y2="2.5" stroke="#0000ff" stroke-width="0.0625"></line><line x1="8.25" y1="2" x2="9.0" y2="2" stroke="#000000" stroke-width="0.03125"></line><line x1="8.25" y1="2" x2="8.25" y2="3" stroke="#000000" stroke-width="0.03125"></line><line x1="9.0" y1="2" x2="9.0" y2="3" stroke="#000000" stroke-width="0.03125"></line><line x1="8.25" y1="3" x2="9.0" y2="3" stroke="#000000" stroke-width="0.0625"></line><line x1="7.5" y1="1.5" x2="8.625" y2="2.5" stroke="#0000ff" stroke-width="0.0625"></line><line x1="4.5" y1="0.5" x2="7.5" y2="1.5" stroke="#0000ff" stroke-width="0.0625"></line><circle cx="4.5" cy="0.5" r="0.0625" fill="#ff0000"></circle><circle cx="1.5" cy="1.5" r="0.0625" fill="#ff0000"></circle><circle cx="0.5" cy="2.5" r="0.0625" fill="#ff0000"></circle><circle cx="1.5" cy="2.5" r="0.0625" fill="#ff0000"></circle><circle cx="2.5" cy="2.5" r="0.0625" fill="#ff0000"></circle><circle cx="4.5" cy="1.5" r="0.0625" fill="#ff0000"></circle><circle cx="3.75" cy="2.5" r="0.0625" fill="#ff0000"></circle><circle cx="5.25" cy="2.5" r="0.0625" fill="#ff0000"></circle><circle cx="7.5" cy="1.5" r="0.0625" fill="#ff0000"></circle><circle cx="6.375" cy="2.5" r="0.0625" fill="#ff0000"></circle><circle cx="7.125" cy="2.5" r="0.0625" fill="#ff0000"></circle><circle cx="7.875" cy="2.5" r="0.0625" fill="#ff0000"></circle><circle cx="8.625" cy="2.5" r="0.0625" fill="#ff0000"></circle></g><use href="#graph" y="3.0" transform=" translate(0, 3.0) rotate(180, 4.5, 3.0)"></use></svg>