<svg width="9cm" height="12cm" viewBox="0, 0, 9, 12" version="1.1" xmlns="http://www.w3.org/2000/svg"><g id="graph"><line x1="0" y1="0" x2="9" y2="0" stroke="#000000" stroke-width="0.03125"></line><line x1="0" y1="0" x2="0" y2="1" stroke="#000000" stroke-width="0.03125"></line><line x1="9" y1="0" x2="9" y2="1" stroke="#000000" stroke-width="0.03125"></line><line x1="0" y1="1" x2="4.5" y2="1" stroke="#000000" stroke-width="0.03125"></line><line x1="0" y1="1" x2="0" y2="2" stroke="#000000" stroke-width="0.03125"></line><line x1="4.5" y1="1" x2="4.5" y2="2" stroke="#000000" stroke-width="0.03125"></line><line x1="0" y1="2" x2="2.25" y2="2" stroke="#000000" stroke-width="0.03125"></line><line x1="0" y1="2" x2="0" y2="6" stroke="#000000" stroke-width="0.03125"></line><line x1="2.25" y1="2" x2="2.25" y2="6" stroke="#000000" stroke-width="0.03125"></line><line x1="0" y1="6" x2="2.25" y2="6" stroke="#000000" stroke-width="0.0625"></line><line x1="2.25" y1="1.5" x2="1.125" y2="2.5" stroke="#0000ff" stroke-width="0.0625"></line><line x1="2.25" y1="2" x2="4.5" y2="2" stroke="#000000" stroke-width="0.03125"></line><line x1="2.25" y1="2" x2="2.25" y2="3" stroke="#000000" stroke-width="0.03125"></line><line x1="4.5" y1="2" x2="4.5" y2="3" stroke="#000000" stroke-width="0.03125"></line><line x1="2.25" y1="3" x2="3.375" y2="3" stroke="#000000" stroke-width="0.03125"></line><line x1="2.25" y1="3" x2="2.25" y2="6" stroke="#000000" stroke-width="0.03125"></line><line x1="3.375" y1="3" x2="3.375" y2="6" stroke="#000000" stroke-width="0.03125"></line><line x1="2.25" y1="6" x2="3.375" y2="6" stroke="#000000" stroke-width="0.0625"></line><line x1="3.375" y1="2.5" x2="2.8125" y2="3.5" stroke="#0000ff" stroke-width="0.0625"></line><line x1="3.375" y1="3" x2="4.5" y2="3" stroke="#000000" stroke-width="0.03125"></line><line x1="3.375" y1="3" x2="3.375" y2="4" stroke="#000000" stroke-width="0.03125"></line><line x1="4.5" y1="3" x2="4.5" y2="4" stroke="#000000" stroke-width="0.03125"></line><line x1="3.375" y1="4" x2="3.9375" y2="4" stroke="#000000" stroke-width="0.03125"></line><line x1="3.375" y1="4" x2="3.375" y2="5" stroke="#000000" stroke-width="0.03125"></line><line x1="3.9375" y1="4" x2="3.9375" y2="5" stroke="#000000" stroke-width="0.03125"></line><line x1="3.375" y1="5" x2="3.65625" y2="5" stroke="#000000" stroke-width="0.03125"></line><line x1="3.375" y1="5" x2="3.375" y2="6" stroke="#000000" stroke-width="0.03125"></line><line x1="3.65625" y1="5" x2="3.65625" y2="6" stroke="#000000" stroke-width="0.03125"></line><line x1="3.375" y1="6" x2="3.65625" y2="6" stroke="#000000" stroke-width="0.0625"></line><line x1="3.65625" y1="4.5" x2="3.515625" y2="5.5" stroke="#0000ff" stroke-width="0.0625"></line><line x1="3.65625" y1="5" x2="3.9375" y2="5" stroke="#000000" stroke-width="0.03125"></line><line x1="3.65625" y1="5" x2="3.65625" y2="6" stroke="#000000" stroke-width="0.03125"></line><line x1="3.9375" y1="5" x2="3.9375" y2="6" stroke="#000000" stroke-width="0.03125"></line><line x1="3.65625" y1="6" x2="3.9375" y2="6" stroke="#000000" stroke-width="0.0625"></line><line x1="3.65625" y1="4.5" x2="3.796875" y2="5.5" stroke="#0000ff" stroke-width="0.0625"></line><line x1="3.9375" y1="3.5" x2="3.65625" y2="4.5" stroke="#0000ff" stroke-width="0.0625"></line><line x1="3.9375" y1="4" x2="4.5" y2="4" stroke="#000000" stroke-width="0.03125"></line><line x1="3.9375" y1="4" x2="3.9375" y2="6" stroke="#000000" stroke-width="0.03125"></line><line x1="4.5" y1="4" x2="4.5" y2="6" stroke="#000000" stroke-width="0.03125"></line><line x1="3.9375" y1="6" x2="4.5" y2="6" stroke="#000000" stroke-width="0.0625"></line><line x1="3.9375" y1="3.5" x2="4.21875" y2="4.5" stroke="#0000ff" stroke-width="0.0625"></line><line x1="3.375" y1="2.5" x2="3.9375" y2="3.5" stroke="#0000ff" stroke-width="0.0625"></line><line x1="2.25" y1="1.5" x2="3.375" y2="2.5" stroke="#0000ff" stroke-width="0.0625"></line><line x1="4.5" y1="0.5" x2="2.25" y2="1.5" stroke="#0000ff" stroke-width="0.0625"></line><line x1="4.5" y1="1" x2="9.0" y2="1" stroke="#000000" stroke-width="0.03125"></line><line x1="4.5" y1="1" x2="4.5" y2="2" stroke="#000000" stroke-width="0.03125"></line><line x1="9.0" y1="1" x2="9.0" y2="2" stroke="#000000" stroke-width="0.03125"></line><line x1="4.5" y1="2" x2="9.0" y2="2" stroke="#000000" stroke-width="0.03125"></line><line x1="4.5" y1="2" x2="4.5" y2="3" stroke="#000000" stroke-width="0.03125"></line><line x1="9.0" y1="2" x2="9.0" y2="3" stroke="#000000" stroke-width="0.03125"></line><line x1="4.5" y1="3" x2="6.75" y2="3" stroke="#000000" stroke-width="0.03125"></line><line x1="4.5" y1="3" x2="4.5" y2="4" stroke="#000000" stroke-width="0.03125"></line><line x1="6.75" y1="3" x2="6.75" y2="4" stroke="#000000" stroke-width="0.03125"></line><line x1="4.5" y1="4" x2="5.625" y2="4" stroke="#000000" stroke-width="0.03125"></line><line x1="4.5" y1="4" x2="4.5" y2="5" stroke="#000000" stroke-width="0.03125"></line><line x1="5.625" y1="4" x2="5.625" y2="5" stroke="#000000" stroke-width="0.03125"></line><line x1="4.5" y1="5" x2="5.0625" y2="5" stroke="#000000" stroke-width="0.03125"></line><line x1="4.5" y1="5" x2="4.5" y2="6" stroke="#000000" stroke-width="0.03125"></line><line x1="5.0625" y1="5" x2="5.0625" y2="6" stroke="#000000" stroke-width="0.03125"></line><line x1="4.5" y1="6" x2="5.0625" y2="6" stroke="#000000" stroke-width="0.0625"></line><line x1="5.0625" y1="4.5" x2="4.78125" y2="5.5" stroke="#0000ff" stroke-width="0.0625"></line><line x1="5.0625" y1="5" x2="5.625" y2="5" stroke="#000000" stroke-width="0.03125"></line><line x1="5.0625" y1="5" x2="5.0625" y2="6" stroke="#000000" stroke-width="0.03125"></line><line x1="5.625" y1="5" x2="5.625" y2="6" stroke="#000000" stroke-width="0.03125"></line><line x1="5.0625" y1="6" x2="5.625" y2="6" stroke="#000000" stroke-width="0.0625"></line><line x1="5.0625" y1="4.5" x2="5.34375" y2="5.5" stroke="#0000ff" stroke-width="0.0625"></line><line x1="5.625" y1="3.5" x2="5.0625" y2="4.5" stroke="#0000ff" stroke-width="0.0625"></line><line x1="5.625" y1="4" x2="6.75" y2="4" stroke="#000000" stroke-width="0.03125"></line><line x1="5.625" y1="4" x2="5.625" y2="6" stroke="#000000" stroke-width="0.03125"></line><line x1="6.75" y1="4" x2="6.75" y2="6" stroke="#000000" stroke-width="0.03125"></line><line x1="5.625" y1="6" x2="6.75" y2="6" stroke="#000000" stroke-width="0.0625"></line><line x1="5.625" y1="3.5" x2="6.1875" y2="4.5" stroke="#0000ff" stroke-width="0.0625"></line><line x1="6.75" y1="2.5" x2="5.625" y2="3.5" stroke="#0000ff" stroke-width="0.0625"></line><line x1="6.75" y1="3" x2="9.0" y2="3" stroke="#000000" stroke-width="0.03125"></line><line x1="6.75" y1="3" x2="6.75" y2="6" stroke="#000000" stroke-width="0.03125"></line><line x1="9.0" y1="3" x2="9.0" y2="6" stroke="#000000" stroke-width="0.03125"></line><line x1="6.75" y1="6" x2="9.0" y2="6" stroke="#000000" stroke-width="0.0625"></line><line x1="6.75" y1="2.5" x2="7.875" y2="3.5" stroke="#0000ff" stroke-width="0.0625"></line><line x1="6.75" y1="1.5" x2="6.75" y2="2.5" stroke="#0000ff" stroke-width="0.0625"></line><line x1="4.5" y1="0.5" x2="6.75" y2="1.5" stroke="#0000ff" stroke-width="0.0625"></line><circle cx="4.5" cy="0.5" r="0.0625" fill="#ff0000"></circle><circle cx="2.25" cy="1.5" r="0.0625" fill="#ff0000"></circle><circle cx="1.125" cy="2.5" r="0.0625" fill="#ff0000"></circle><circle cx="3.375" cy="2.5" r="0.0625" fill="#ff0000"></circle><circle cx="2.8125" cy="3.5" r="0.0625" fill="#ff0000"></circle><circle cx="3.9375" cy="3.5" r="0.0625" fill="#ff0000"></circle><circle cx="3.65625" cy="4.5" r="0.0625" fill="#ff0000"></circle><circle cx="3.515625" cy="5.5" r="0.0625" fill="#ff0000"></circle><circle cx="3.796875" cy="5.5" r="0.0625" fill="#ff0000"></circle><circle cx="4.21875" cy="4.5" r="0.0625" fill="#ff0000"></circle><circle cx="6.75" cy="1.5" r="0.0625" fill="#ff0000"></circle><circle cx="6.75" cy="2.5" r="0.0625" fill="#ff0000"></circle><circle cx="5.625" cy="3.5" r="0.0625" fill="#ff0000"></circle><circle cx="5.0625" cy="4.5" r="0.0625" fill="#ff0000"></circle><circle cx="4.78125" cy="5.5" r="0.0625" fill="#ff0000"></circle><circle cx="5.34375" cy="5.5" r="0.0625" fill="#ff0000"></circle><circle cx="6.1875" cy="4.5" r="0.0625" fill="#ff0000"></circle><circle cx="7.875" cy="3.5" r="0.0625" fill="#ff0000"></circle></g><use href="#graph" y="6.0" transform=" translate(0, 6.0) rotate(180, 4.5, 6.0)"></use></svg>