<svg width="24cm" height="12cm" viewBox="0, 0, 24, 12" version="1.1" xmlns="http://www.w3.org/2000/svg"><g id="graph"><line x1="0" y1="0" x2="24" y2="0" stroke="#000000" stroke-width="0.03125"></line><line x1="0" y1="0" x2="0" y2="1" stroke="#000000" stroke-width="0.03125"></line><line x1="24" y1="0" x2="24" y2="1" stroke="#000000" stroke-width="0.03125"></line><line x1="0" y1="1" x2="12.0" y2="1" stroke="#000000" stroke-width="0.03125"></line><line x1="0" y1="1" x2="0" y2="2" stroke="#000000" stroke-width="0.03125"></line><line x1="12.0" y1="1" x2="12.0" y2="2" stroke="#000000" stroke-width="0.03125"></line><line x1="0" y1="2" x2="6.0" y2="2" stroke="#000000" stroke-width="0.03125"></line><line x1="0" y1="2" x2="0" y2="6" stroke="#000000" stroke-width="0.03125"></line><line x1="6.0" y1="2" x2="6.0" y2="6" stroke="#000000" stroke-width="0.03125"></line><line x1="0" y1="6" x2="6.0" y2="6" stroke="#000000" stroke-width="0.0625"></line><line x1="6.0" y1="1.5" x2="3.0" y2="2.5" stroke="#0000ff" stroke-width="0.0625"></line><line x1="6.0" y1="2" x2="12.0" y2="2" stroke="#000000" stroke-width="0.03125"></line><line x1="6.0" y1="2" x2="6.0" y2="3" stroke="#000000" stroke-width="0.03125"></line><line x1="12.0" y1="2" x2="12.0" y2="3" stroke="#000000" stroke-width="0.03125"></line><line x1="6.0" y1="3" x2="9.0" y2="3" stroke="#000000" stroke-width="0.03125"></line><line x1="6.0" y1="3" x2="6.0" y2="6" stroke="#000000" stroke-width="0.03125"></line><line x1="9.0" y1="3" x2="9.0" y2="6" stroke="#000000" stroke-width="0.03125"></line><line x1="6.0" y1="6" x2="9.0" y2="6" stroke="#000000" stroke-width="0.0625"></line><line x1="9.0" y1="2.5" x2="7.5" y2="3.5" stroke="#0000ff" stroke-width="0.0625"></line><line x1="9.0" y1="3" x2="12.0" y2="3" stroke="#000000" stroke-width="0.03125"></line><line x1="9.0" y1="3" x2="9.0" y2="4" stroke="#000000" stroke-width="0.03125"></line><line x1="12.0" y1="3" x2="12.0" y2="4" stroke="#000000" stroke-width="0.03125"></line><line x1="9.0" y1="4" x2="10.5" y2="4" stroke="#000000" stroke-width="0.03125"></line><line x1="9.0" y1="4" x2="9.0" y2="5" stroke="#000000" stroke-width="0.03125"></line><line x1="10.5" y1="4" x2="10.5" y2="5" stroke="#000000" stroke-width="0.03125"></line><line x1="9.0" y1="5" x2="9.75" y2="5" stroke="#000000" stroke-width="0.03125"></line><line x1="9.0" y1="5" x2="9.0" y2="6" stroke="#000000" stroke-width="0.03125"></line><line x1="9.75" y1="5" x2="9.75" y2="6" stroke="#000000" stroke-width="0.03125"></line><line x1="9.0" y1="6" x2="9.75" y2="6" stroke="#000000" stroke-width="0.0625"></line><line x1="9.75" y1="4.5" x2="9.375" y2="5.5" stroke="#0000ff" stroke-width="0.0625"></line><line x1="9.75" y1="5" x2="10.5" y2="5" stroke="#000000" stroke-width="0.03125"></line><line x1="9.75" y1="5" x2="9.75" y2="6" stroke="#000000" stroke-width="0.03125"></line><line x1="10.5" y1="5" x2="10.5" y2="6" stroke="#000000" stroke-width="0.03125"></line><line x1="9.75" y1="6" x2="10.5" y2="6" stroke="#000000" stroke-width="0.0625"></line><line x1="9.75" y1="4.5" x2="10.125" y2="5.5" stroke="#0000ff" stroke-width="0.0625"></line><line x1="10.5" y1="3.5" x2="9.75" y2="4.5" stroke="#0000ff" stroke-width="0.0625"></line><line x1="10.5" y1="4" x2="12.0" y2="4" stroke="#000000" stroke-width="0.03125"></line><line x1="10.5" y1="4" x2="10.5" y2="6" stroke="#000000" stroke-width="0.03125"></line><line x1="12.0" y1="4" x2="12.0" y2="6" stroke="#000000" stroke-width="0.03125"></line><line x1="10.5" y1="6" x2="12.0" y2="6" stroke="#000000" stroke-width="0.0625"></line><line x1="10.5" y1="3.5" x2="11.25" y2="4.5" stroke="#0000ff" stroke-width="0.0625"></line><line x1="9.0" y1="2.5" x2="10.5" y2="3.5" stroke="#0000ff" stroke-width="0.0625"></line><line x1="6.0" y1="1.5" x2="9.0" y2="2.5" stroke="#0000ff" stroke-width="0.0625"></line><line x1="12.0" y1="0.5" x2="6.0" y2="1.5" stroke="#0000ff" stroke-width="0.0625"></line><line x1="12.0" y1="1" x2="24.0" y2="1" stroke="#000000" stroke-width="0.03125"></line><line x1="12.0" y1="1" x2="12.0" y2="2" stroke="#000000" stroke-width="0.03125"></line><line x1="24.0" y1="1" x2="24.0" y2="2" stroke="#000000" stroke-width="0.03125"></line><line x1="12.0" y1="2" x2="24.0" y2="2" stroke="#000000" stroke-width="0.03125"></line><line x1="12.0" y1="2" x2="12.0" y2="3" stroke="#000000" stroke-width="0.03125"></line><line x1="24.0" y1="2" x2="24.0" y2="3" stroke="#000000" stroke-width="0.03125"></line><line x1="12.0" y1="3" x2="18.0" y2="3" stroke="#000000" stroke-width="0.03125"></line><line x1="12.0" y1="3" x2="12.0" y2="4" stroke="#000000" stroke-width="0.03125"></line><line x1="18.0" y1="3" x2="18.0" y2="4" stroke="#000000" stroke-width="0.03125"></line><line x1="12.0" y1="4" x2="15.0" y2="4" stroke="#000000" stroke-width="0.03125"></line><line x1="12.0" y1="4" x2="12.0" y2="5" stroke="#000000" stroke-width="0.03125"></line><line x1="15.0" y1="4" x2="15.0" y2="5" stroke="#000000" stroke-width="0.03125"></line><line x1="12.0" y1="5" x2="13.5" y2="5" stroke="#000000" stroke-width="0.03125"></line><line x1="12.0" y1="5" x2="12.0" y2="6" stroke="#000000" stroke-width="0.03125"></line><line x1="13.5" y1="5" x2="13.5" y2="6" stroke="#000000" stroke-width="0.03125"></line><line x1="12.0" y1="6" x2="13.5" y2="6" stroke="#000000" stroke-width="0.0625"></line><line x1="13.5" y1="4.5" x2="12.75" y2="5.5" stroke="#0000ff" stroke-width="0.0625"></line><line x1="13.5" y1="5" x2="15.0" y2="5" stroke="#000000" stroke-width="0.03125"></line><line x1="13.5" y1="5" x2="13.5" y2="6" stroke="#000000" stroke-width="0.03125"></line><line x1="15.0" y1="5" x2="15.0" y2="6" stroke="#000000" stroke-width="0.03125"></line><line x1="13.5" y1="6" x2="15.0" y2="6" stroke="#000000" stroke-width="0.0625"></line><line x1="13.5" y1="4.5" x2="14.25" y2="5.5" stroke="#0000ff" stroke-width="0.0625"></line><line x1="15.0" y1="3.5" x2="13.5" y2="4.5" stroke="#0000ff" stroke-width="0.0625"></line><line x1="15.0" y1="4" x2="18.0" y2="4" stroke="#000000" stroke-width="0.03125"></line><line x1="15.0" y1="4" x2="15.0" y2="6" stroke="#000000" stroke-width="0.03125"></line><line x1="18.0" y1="4" x2="18.0" y2="6" stroke="#000000" stroke-width="0.03125"></line><line x1="15.0" y1="6" x2="18.0" y2="6" stroke="#000000" stroke-width="0.0625"></line><line x1="15.0" y1="3.5" x2="16.5" y2="4.5" stroke="#0000ff" stroke-width="0.0625"></line><line x1="18.0" y1="2.5" x2="15.0" y2="3.5" stroke="#0000ff" stroke-width="0.0625"></line><line x1="18.0" y1="3" x2="24.0" y2="3" stroke="#000000" stroke-width="0.03125"></line><line x1="18.0" y1="3" x2="18.0" y2="6" stroke="#000000" stroke-width="0.03125"></line><line x1="24.0" y1="3" x2="24.0" y2="6" stroke="#000000" stroke-width="0.03125"></line><line x1="18.0" y1="6" x2="24.0" y2="6" stroke="#000000" stroke-width="0.0625"></line><line x1="18.0" y1="2.5" x2="21.0" y2="3.5" stroke="#0000ff" stroke-width="0.0625"></line><line x1="18.0" y1="1.5" x2="18.0" y2="2.5" stroke="#0000ff" stroke-width="0.0625"></line><line x1="12.0" y1="0.5" x2="18.0" y2="1.5" stroke="#0000ff" stroke-width="0.0625"></line><circle cx="12.0" cy="0.5" r="0.0625" fill="#ff0000"></circle><circle cx="6.0" cy="1.5" r="0.0625" fill="#ff0000"></circle><circle cx="3.0" cy="2.5" r="0.0625" fill="#ff0000"></circle><circle cx="9.0" cy="2.5" r="0.0625" fill="#ff0000"></circle><circle cx="7.5" cy="3.5" r="0.0625" fill="#ff0000"></circle><circle cx="10.5" cy="3.5" r="0.0625" fill="#ff0000"></circle><circle cx="9.75" cy="4.5" r="0.0625" fill="#ff0000"></circle><circle cx="9.375" cy="5.5" r="0.0625" fill="#ff0000"></circle><circle cx="10.125" cy="5.5" r="0.0625" fill="#ff0000"></circle><circle cx="11.25" cy="4.5" r="0.0625" fill="#ff0000"></circle><circle cx="18.0" cy="1.5" r="0.0625" fill="#ff0000"></circle><circle cx="18.0" cy="2.5" r="0.0625" fill="#ff0000"></circle><circle cx="15.0" cy="3.5" r="0.0625" fill="#ff0000"></circle><circle cx="13.5" cy="4.5" r="0.0625" fill="#ff0000"></circle><circle cx="12.75" cy="5.5" r="0.0625" fill="#ff0000"></circle><circle cx="14.25" cy="5.5" r="0.0625" fill="#ff0000"></circle><circle cx="16.5" cy="4.5" r="0.0625" fill="#ff0000"></circle><circle cx="21.0" cy="3.5" r="0.0625" fill="#ff0000"></circle></g><use href="#graph" y="6.0" transform=" translate(0, 6.0) rotate(180, 12.0, 6.0)"></use></svg>