<svg width="16cm" height="8cm" viewBox="0, 0, 16, 8" version="1.1" xmlns="http://www.w3.org/2000/svg"><g id="graph"><line x1="0" y1="0" x2="16" y2="0" stroke="#000000" stroke-width="0.03125"></line><line x1="0" y1="0" x2="0" y2="1" stroke="#000000" stroke-width="0.03125"></line><line x1="16" y1="0" x2="16" y2="1" stroke="#000000" stroke-width="0.03125"></line><line x1="0" y1="1" x2="3.2" y2="1" stroke="#000000" stroke-width="0.03125"></line><line x1="0" y1="1" x2="0" y2="2" stroke="#000000" stroke-width="0.03125"></line><line x1="3.2" y1="1" x2="3.2" y2="2" stroke="#000000" stroke-width="0.03125"></line><line x1="0" y1="2" x2="1.0666666666666667" y2="2" stroke="#000000" stroke-width="0.03125"></line><line x1="0" y1="2" x2="0" y2="4" stroke="#000000" stroke-width="0.03125"></line><line x1="1.0666666666666667" y1="2" x2="1.0666666666666667" y2="4" stroke="#000000" stroke-width="0.03125"></line><line x1="0" y1="4" x2="1.0666666666666667" y2="4" stroke="#000000" stroke-width="0.0625"></line><line x1="1.6" y1="1.5" x2="0.5333333333333333" y2="2.5" stroke="#0000ff" stroke-width="0.0625"></line><line x1="1.0666666666666667" y1="2" x2="2.1333333333333333" y2="2" stroke="#000000" stroke-width="0.03125"></line><line x1="1.0666666666666667" y1="2" x2="1.0666666666666667" y2="4" stroke="#000000" stroke-width="0.03125"></line><line x1="2.1333333333333333" y1="2" x2="2.1333333333333333" y2="4" stroke="#000000" stroke-width="0.03125"></line><line x1="1.0666666666666667" y1="4" x2="2.1333333333333333" y2="4" stroke="#000000" stroke-width="0.0625"></line><line x1="1.6" y1="1.5" x2="1.6" y2="2.5" stroke="#0000ff" stroke-width="0.0625"></line><line x1="2.1333333333333333" y1="2" x2="3.2" y2="2" stroke="#000000" stroke-width="0.03125"></line><line x1="2.1333333333333333" y1="2" x2="2.1333333333333333" y2="4" stroke="#000000" stroke-width="0.03125"></line><line x1="3.2" y1="2" x2="3.2" y2="4" stroke="#000000" stroke-width="0.03125"></line><line x1="2.1333333333333333" y1="4" x2="3.2" y2="4" stroke="#000000" stroke-width="0.0625"></line><line x1="1.6" y1="1.5" x2="2.6666666666666665" y2="2.5" stroke="#0000ff" stroke-width="0.0625"></line><line x1="8.0" y1="0.5" x2="1.6" y2="1.5" stroke="#0000ff" stroke-width="0.0625"></line><line x1="3.2" y1="1" x2="6.4" y2="1" stroke="#000000" stroke-width="0.03125"></line><line x1="3.2" y1="1" x2="3.2" y2="2" stroke="#000000" stroke-width="0.03125"></line><line x1="6.4" y1="1" x2="6.4" y2="2" stroke="#000000" stroke-width="0.03125"></line><line x1="3.2" y1="2" x2="4.0" y2="2" stroke="#000000" stroke-width="0.03125"></line><line x1="3.2" y1="2" x2="3.2" y2="4" stroke="#000000" stroke-width="0.03125"></line><line x1="4.0" y1="2" x2="4.0" y2="4" stroke="#000000" stroke-width="0.03125"></line><line x1="3.2" y1="4" x2="4.0" y2="4" stroke="#000000" stroke-width="0.0625"></line><line x1="4.800000000000001" y1="1.5" x2="3.6" y2="2.5" stroke="#0000ff" stroke-width="0.0625"></line><line x1="4.0" y1="2" x2="4.8" y2="2" stroke="#000000" stroke-width="0.03125"></line><line x1="4.0" y1="2" x2="4.0" y2="4" stroke="#000000" stroke-width="0.03125"></line><line x1="4.8" y1="2" x2="4.8" y2="4" stroke="#000000" stroke-width="0.03125"></line><line x1="4.0" y1="4" x2="4.8" y2="4" stroke="#000000" stroke-width="0.0625"></line><line x1="4.800000000000001" y1="1.5" x2="4.4" y2="2.5" stroke="#0000ff" stroke-width="0.0625"></line><line x1="4.800000000000001" y1="2" x2="5.6000000000000005" y2="2" stroke="#000000" stroke-width="0.03125"></line><line x1="4.800000000000001" y1="2" x2="4.800000000000001" y2="4" stroke="#000000" stroke-width="0.03125"></line><line x1="5.6000000000000005" y1="2" x2="5.6000000000000005" y2="4" stroke="#000000" stroke-width="0.03125"></line><line x1="4.800000000000001" y1="4" x2="5.6000000000000005" y2="4" stroke="#000000" stroke-width="0.0625"></line><line x1="4.800000000000001" y1="1.5" x2="5.200000000000001" y2="2.5" stroke="#0000ff" stroke-width="0.0625"></line><line x1="5.6000000000000005" y1="2" x2="6.4" y2="2" stroke="#000000" stroke-width="0.03125"></line><line x1="5.6000000000000005" y1="2" x2="5.6000000000000005" y2="4" stroke="#000000" stroke-width="0.03125"></line><line x1="6.4" y1="2" x2="6.4" y2="4" stroke="#000000" stroke-width="0.03125"></line><line x1="5.6000000000000005" y1="4" x2="6.4" y2="4" stroke="#000000" stroke-width="0.0625"></line><line x1="4.800000000000001" y1="1.5" x2="6.000000000000001" y2="2.5" stroke="#0000ff" stroke-width="0.0625"></line><line x1="8.0" y1="0.5" x2="4.800000000000001" y2="1.5" stroke="#0000ff" stroke-width="0.0625"></line><line x1="6.4" y1="1" x2="9.600000000000001" y2="1" stroke="#000000" stroke-width="0.03125"></line><line x1="6.4" y1="1" x2="6.4" y2="2" stroke="#000000" stroke-width="0.03125"></line><line x1="9.600000000000001" y1="1" x2="9.600000000000001" y2="2" stroke="#000000" stroke-width="0.03125"></line><line x1="6.4" y1="2" x2="7.466666666666667" y2="2" stroke="#000000" stroke-width="0.03125"></line><line x1="6.4" y1="2" x2="6.4" y2="3" stroke="#000000" stroke-width="0.03125"></line><line x1="7.466666666666667" y1="2" x2="7.466666666666667" y2="3" stroke="#000000" stroke-width="0.03125"></line><line x1="6.4" y1="3" x2="6.933333333333334" y2="3" stroke="#000000" stroke-width="0.03125"></line><line x1="6.4" y1="3" x2="6.4" y2="4" stroke="#000000" stroke-width="0.03125"></line><line x1="6.933333333333334" y1="3" x2="6.933333333333334" y2="4" stroke="#000000" stroke-width="0.03125"></line><line x1="6.4" y1="4" x2="6.933333333333334" y2="4" stroke="#000000" stroke-width="0.0625"></line><line x1="6.933333333333334" y1="2.5" x2="6.666666666666667" y2="3.5" stroke="#0000ff" stroke-width="0.0625"></line><line x1="6.933333333333334" y1="3" x2="7.466666666666667" y2="3" stroke="#000000" stroke-width="0.03125"></line><line x1="6.933333333333334" y1="3" x2="6.933333333333334" y2="4" stroke="#000000" stroke-width="0.03125"></line><line x1="7.466666666666667" y1="3" x2="7.466666666666667" y2="4" stroke="#000000" stroke-width="0.03125"></line><line x1="6.933333333333334" y1="4" x2="7.466666666666667" y2="4" stroke="#000000" stroke-width="0.0625"></line><line x1="6.933333333333334" y1="2.5" x2="7.2" y2="3.5" stroke="#0000ff" stroke-width="0.0625"></line><line x1="8.0" y1="1.5" x2="6.933333333333334" y2="2.5" stroke="#0000ff" stroke-width="0.0625"></line><line x1="7.466666666666667" y1="2" x2="8.533333333333333" y2="2" stroke="#000000" stroke-width="0.03125"></line><line x1="7.466666666666667" y1="2" x2="7.466666666666667" y2="3" stroke="#000000" stroke-width="0.03125"></line><line x1="8.533333333333333" y1="2" x2="8.533333333333333" y2="3" stroke="#000000" stroke-width="0.03125"></line><line x1="7.466666666666667" y1="3" x2="7.822222222222222" y2="3" stroke="#000000" stroke-width="0.03125"></line><line x1="7.466666666666667" y1="3" x2="7.466666666666667" y2="4" stroke="#000000" stroke-width="0.03125"></line><line x1="7.822222222222222" y1="3" x2="7.822222222222222" y2="4" stroke="#000000" stroke-width="0.03125"></line><line x1="7.466666666666667" y1="4" x2="7.822222222222222" y2="4" stroke="#000000" stroke-width="0.0625"></line><line x1="8.0" y1="2.5" x2="7.644444444444445" y2="3.5" stroke="#0000ff" stroke-width="0.0625"></line><line x1="7.822222222222222" y1="3" x2="8.177777777777777" y2="3" stroke="#000000" stroke-width="0.03125"></line><line x1="7.822222222222222" y1="3" x2="7.822222222222222" y2="4" stroke="#000000" stroke-width="0.03125"></line><line x1="8.177777777777777" y1="3" x2="8.177777777777777" y2="4" stroke="#000000" stroke-width="0.03125"></line><line x1="7.822222222222222" y1="4" x2="8.177777777777777" y2="4" stroke="#000000" stroke-width="0.0625"></line><line x1="8.0" y1="2.5" x2="8.0" y2="3.5" stroke="#0000ff" stroke-width="0.0625"></line><line x1="8.177777777777777" y1="3" x2="8.533333333333333" y2="3" stroke="#000000" stroke-width="0.03125"></line><line x1="8.177777777777777" y1="3" x2="8.177777777777777" y2="4" stroke="#000000" stroke-width="0.03125"></line><line x1="8.533333333333333" y1="3" x2="8.533333333333333" y2="4" stroke="#000000" stroke-width="0.03125"></line><line x1="8.177777777777777" y1="4" x2="8.533333333333333" y2="4" stroke="#000000" stroke-width="0.0625"></line><line x1="8.0" y1="2.5" x2="8.355555555555554" y2="3.5" stroke="#0000ff" stroke-width="0.0625"></line><line x1="8.0" y1="1.5" x2="8.0" y2="2.5" stroke="#0000ff" stroke-width="0.0625"></line><line x1="8.533333333333333" y1="2" x2="9.6" y2="2" stroke="#000000" stroke-width="0.03125"></line><line x1="8.533333333333333" y1="2" x2="8.533333333333333" y2="3" stroke="#000000" stroke-width="0.03125"></line><line x1="9.6" y1="2" x2="9.6" y2="3" stroke="#000000" stroke-width="0.03125"></line><line x1="8.533333333333333" y1="3" x2="9.066666666666666" y2="3" stroke="#000000" stroke-width="0.03125"></line><line x1="8.533333333333333" y1="3" x2="8.533333333333333" y2="4" stroke="#000000" stroke-width="0.03125"></line><line x1="9.066666666666666" y1="3" x2="9.066666666666666" y2="4" stroke="#000000" stroke-width="0.03125"></line><line x1="8.533333333333333" y1="4" x2="9.066666666666666" y2="4" stroke="#000000" stroke-width="0.0625"></line><line x1="9.066666666666666" y1="2.5" x2="8.8" y2="3.5" stroke="#0000ff" stroke-width="0.0625"></line><line x1="9.066666666666666" y1="3" x2="9.6" y2="3" stroke="#000000" stroke-width="0.03125"></line><line x1="9.066666666666666" y1="3" x2="9.066666666666666" y2="4" stroke="#000000" stroke-width="0.03125"></line><line x1="9.6" y1="3" x2="9.6" y2="4" stroke="#000000" stroke-width="0.03125"></line><line x1="9.066666666666666" y1="4" x2="9.6" y2="4" stroke="#000000" stroke-width="0.0625"></line><line x1="9.066666666666666" y1="2.5" x2="9.333333333333334" y2="3.5" stroke="#0000ff" stroke-width="0.0625"></line><line x1="8.0" y1="1.5" x2="9.066666666666666" y2="2.5" stroke="#0000ff" stroke-width="0.0625"></line><line x1="8.0" y1="0.5" x2="8.0" y2="1.5" stroke="#0000ff" stroke-width="0.0625"></line><line x1="9.600000000000001" y1="1" x2="12.8" y2="1" stroke="#000000" stroke-width="0.03125"></line><line x1="9.600000000000001" y1="1" x2="9.600000000000001" y2="2" stroke="#000000" stroke-width="0.03125"></line><line x1="12.8" y1="1" x2="12.8" y2="2" stroke="#000000" stroke-width="0.03125"></line><line x1="9.600000000000001" y1="2" x2="11.200000000000001" y2="2" stroke="#000000" stroke-width="0.03125"></line><line x1="9.600000000000001" y1="2" x2="9.600000000000001" y2="3" stroke="#000000" stroke-width="0.03125"></line><line x1="11.200000000000001" y1="2" x2="11.200000000000001" y2="3" stroke="#000000" stroke-width="0.03125"></line><line x1="9.600000000000001" y1="3" x2="10.400000000000002" y2="3" stroke="#000000" stroke-width="0.03125"></line><line x1="9.600000000000001" y1="3" x2="9.600000000000001" y2="4" stroke="#000000" stroke-width="0.03125"></line><line x1="10.400000000000002" y1="3" x2="10.400000000000002" y2="4" stroke="#000000" stroke-width="0.03125"></line><line x1="9.600000000000001" y1="4" x2="10.400000000000002" y2="4" stroke="#000000" stroke-width="0.0625"></line><line x1="10.400000000000002" y1="2.5" x2="10.000000000000002" y2="3.5" stroke="#0000ff" stroke-width="0.0625"></line><line x1="10.400000000000002" y1="3" x2="11.200000000000003" y2="3" stroke="#000000" stroke-width="0.03125"></line><line x1="10.400000000000002" y1="3" x2="10.400000000000002" y2="4" stroke="#000000" stroke-width="0.03125"></line><line x1="11.200000000000003" y1="3" x2="11.200000000000003" y2="4" stroke="#000000" stroke-width="0.03125"></line><line x1="10.400000000000002" y1="4" x2="11.200000000000003" y2="4" stroke="#000000" stroke-width="0.0625"></line><line x1="10.400000000000002" y1="2.5" x2="10.800000000000002" y2="3.5" stroke="#0000ff" stroke-width="0.0625"></line><line x1="11.200000000000001" y1="1.5" x2="10.400000000000002" y2="2.5" stroke="#0000ff" stroke-width="0.0625"></line><line x1="11.200000000000001" y1="2" x2="12.8" y2="2" stroke="#000000" stroke-width="0.03125"></line><line x1="11.200000000000001" y1="2" x2="11.200000000000001" y2="3" stroke="#000000" stroke-width="0.03125"></line><line x1="12.8" y1="2" x2="12.8" y2="3" stroke="#000000" stroke-width="0.03125"></line><line x1="11.200000000000001" y1="3" x2="12.000000000000002" y2="3" stroke="#000000" stroke-width="0.03125"></line><line x1="11.200000000000001" y1="3" x2="11.200000000000001" y2="4" stroke="#000000" stroke-width="0.03125"></line><line x1="12.000000000000002" y1="3" x2="12.000000000000002" y2="4" stroke="#000000" stroke-width="0.03125"></line><line x1="11.200000000000001" y1="4" x2="12.000000000000002" y2="4" stroke="#000000" stroke-width="0.0625"></line><line x1="12.000000000000002" y1="2.5" x2="11.600000000000001" y2="3.5" stroke="#0000ff" stroke-width="0.0625"></line><line x1="12.000000000000002" y1="3" x2="12.800000000000002" y2="3" stroke="#000000" stroke-width="0.03125"></line><line x1="12.000000000000002" y1="3" x2="12.000000000000002" y2="4" stroke="#000000" stroke-width="0.03125"></line><line x1="12.800000000000002" y1="3" x2="12.800000000000002" y2="4" stroke="#000000" stroke-width="0.03125"></line><line x1="12.000000000000002" y1="4" x2="12.800000000000002" y2="4" stroke="#000000" stroke-width="0.0625"></line><line x1="12.000000000000002" y1="2.5" x2="12.400000000000002" y2="3.5" stroke="#0000ff" stroke-width="0.0625"></line><line x1="11.200000000000001" y1="1.5" x2="12.000000000000002" y2="2.5" stroke="#0000ff" stroke-width="0.0625"></line><line x1="8.0" y1="0.5" x2="11.200000000000001" y2="1.5" stroke="#0000ff" stroke-width="0.0625"></line><line x1="12.8" y1="1" x2="16.0" y2="1" stroke="#000000" stroke-width="0.03125"></line><line x1="12.8" y1="1" x2="12.8" y2="2" stroke="#000000" stroke-width="0.03125"></line><line x1="16.0" y1="1" x2="16.0" y2="2" stroke="#000000" stroke-width="0.03125"></line><line x1="12.8" y1="2" x2="13.866666666666667" y2="2" stroke="#000000" stroke-width="0.03125"></line><line x1="12.8" y1="2" x2="12.8" y2="4" stroke="#000000" stroke-width="0.03125"></line><line x1="13.866666666666667" y1="2" x2="13.866666666666667" y2="4" stroke="#000000" stroke-width="0.03125"></line><line x1="12.8" y1="4" x2="13.866666666666667" y2="4" stroke="#000000" stroke-width="0.0625"></line><line x1="14.4" y1="1.5" x2="13.333333333333334" y2="2.5" stroke="#0000ff" stroke-width="0.0625"></line><line x1="13.866666666666667" y1="2" x2="14.933333333333334" y2="2" stroke="#000000" stroke-width="0.03125"></line><line x1="13.866666666666667" y1="2" x2="13.866666666666667" y2="4" stroke="#000000" stroke-width="0.03125"></line><line x1="14.933333333333334" y1="2" x2="14.933333333333334" y2="4" stroke="#000000" stroke-width="0.03125"></line><line x1="13.866666666666667" y1="4" x2="14.933333333333334" y2="4" stroke="#000000" stroke-width="0.0625"></line><line x1="14.4" y1="1.5" x2="14.4" y2="2.5" stroke="#0000ff" stroke-width="0.0625"></line><line x1="14.933333333333334" y1="2" x2="16.0" y2="2" stroke="#000000" stroke-width="0.03125"></line><line x1="14.933333333333334" y1="2" x2="14.933333333333334" y2="4" stroke="#000000" stroke-width="0.03125"></line><line x1="16.0" y1="2" x2="16.0" y2="4" stroke="#000000" stroke-width="0.03125"></line><line x1="14.933333333333334" y1="4" x2="16.0" y2="4" stroke="#000000" stroke-width="0.0625"></line><line x1="14.4" y1="1.5" x2="15.466666666666667" y2="2.5" stroke="#0000ff" stroke-width="0.0625"></line><line x1="8.0" y1="0.5" x2="14.4" y2="1.5" stroke="#0000ff" stroke-width="0.0625"></line><circle cx="8.0" cy="0.5" r="0.0625" fill="#ff0000"></circle><circle cx="1.6" cy="1.5" r="0.0625" fill="#ff0000"></circle><circle cx="0.5333333333333333" cy="2.5" r="0.0625" fill="#ff0000"></circle><circle cx="1.6" cy="2.5" r="0.0625" fill="#ff0000"></circle><circle cx="2.6666666666666665" cy="2.5" r="0.0625" fill="#ff0000"></circle><circle cx="4.800000000000001" cy="1.5" r="0.0625" fill="#ff0000"></circle><circle cx="3.6" cy="2.5" r="0.0625" fill="#ff0000"></circle><circle cx="4.4" cy="2.5" r="0.0625" fill="#ff0000"></circle><circle cx="5.200000000000001" cy="2.5" r="0.0625" fill="#ff0000"></circle><circle cx="6.000000000000001" cy="2.5" r="0.0625" fill="#ff0000"></circle><circle cx="8.0" cy="1.5" r="0.0625" fill="#ff0000"></circle><circle cx="6.933333333333334" cy="2.5" r="0.0625" fill="#ff0000"></circle><circle cx="6.666666666666667" cy="3.5" r="0.0625" fill="#ff0000"></circle><circle cx="7.2" cy="3.5" r="0.0625" fill="#ff0000"></circle><circle cx="8.0" cy="2.5" r="0.0625" fill="#ff0000"></circle><circle cx="7.644444444444445" cy="3.5" r="0.0625" fill="#ff0000"></circle><circle cx="8.0" cy="3.5" r="0.0625" fill="#ff0000"></circle><circle cx="8.355555555555554" cy="3.5" r="0.0625" fill="#ff0000"></circle><circle cx="9.066666666666666" cy="2.5" r="0.0625" fill="#ff0000"></circle><circle cx="8.8" cy="3.5" r="0.0625" fill="#ff0000"></circle><circle cx="9.333333333333334" cy="3.5" r="0.0625" fill="#ff0000"></circle><circle cx="11.200000000000001" cy="1.5" r="0.0625" fill="#ff0000"></circle><circle cx="10.400000000000002" cy="2.5" r="0.0625" fill="#ff0000"></circle><circle cx="10.000000000000002" cy="3.5" r="0.0625" fill="#ff0000"></circle><circle cx="10.800000000000002" cy="3.5" r="0.0625" fill="#ff0000"></circle><circle cx="12.000000000000002" cy="2.5" r="0.0625" fill="#ff0000"></circle><circle cx="11.600000000000001" cy="3.5" r="0.0625" fill="#ff0000"></circle><circle cx="12.400000000000002" cy="3.5" r="0.0625" fill="#ff0000"></circle><circle cx="14.4" cy="1.5" r="0.0625" fill="#ff0000"></circle><circle cx="13.333333333333334" cy="2.5" r="0.0625" fill="#ff0000"></circle><circle cx="14.4" cy="2.5" r="0.0625" fill="#ff0000"></circle><circle cx="15.466666666666667" cy="2.5" r="0.0625" fill="#ff0000"></circle></g><use href="#graph" y="4.0" transform=" translate(0, 4.0) rotate(180, 8.0, 4.0)"></use></svg>