<svg width="21cm" height="8cm" viewBox="0, 0, 21, 8" version="1.1" xmlns="http://www.w3.org/2000/svg"><g id="graph"><line x1="0" y1="0" x2="21" y2="0" stroke="#000000" stroke-width="0.03125"></line><line x1="0" y1="0" x2="0" y2="1" stroke="#000000" stroke-width="0.03125"></line><line x1="21" y1="0" x2="21" y2="1" stroke="#000000" stroke-width="0.03125"></line><line x1="0" y1="1" x2="4.2" y2="1" stroke="#000000" stroke-width="0.03125"></line><line x1="0" y1="1" x2="0" y2="2" stroke="#000000" stroke-width="0.03125"></line><line x1="4.2" y1="1" x2="4.2" y2="2" stroke="#000000" stroke-width="0.03125"></line><line x1="0" y1="2" x2="1.4000000000000001" y2="2" stroke="#000000" stroke-width="0.03125"></line><line x1="0" y1="2" x2="0" y2="4" stroke="#000000" stroke-width="0.03125"></line><line x1="1.4000000000000001" y1="2" x2="1.4000000000000001" y2="4" stroke="#000000" stroke-width="0.03125"></line><line x1="0" y1="4" x2="1.4000000000000001" y2="4" stroke="#000000" stroke-width="0.0625"></line><line x1="2.1" y1="1.5" x2="0.7000000000000001" y2="2.5" stroke="#0000ff" stroke-width="0.0625"></line><line x1="1.4000000000000001" y1="2" x2="2.8000000000000003" y2="2" stroke="#000000" stroke-width="0.03125"></line><line x1="1.4000000000000001" y1="2" x2="1.4000000000000001" y2="4" stroke="#000000" stroke-width="0.03125"></line><line x1="2.8000000000000003" y1="2" x2="2.8000000000000003" y2="4" stroke="#000000" stroke-width="0.03125"></line><line x1="1.4000000000000001" y1="4" x2="2.8000000000000003" y2="4" stroke="#000000" stroke-width="0.0625"></line><line x1="2.1" y1="1.5" x2="2.1" y2="2.5" stroke="#0000ff" stroke-width="0.0625"></line><line x1="2.8000000000000003" y1="2" x2="4.2" y2="2" stroke="#000000" stroke-width="0.03125"></line><line x1="2.8000000000000003" y1="2" x2="2.8000000000000003" y2="4" stroke="#000000" stroke-width="0.03125"></line><line x1="4.2" y1="2" x2="4.2" y2="4" stroke="#000000" stroke-width="0.03125"></line><line x1="2.8000000000000003" y1="4" x2="4.2" y2="4" stroke="#000000" stroke-width="0.0625"></line><line x1="2.1" y1="1.5" x2="3.5000000000000004" y2="2.5" stroke="#0000ff" stroke-width="0.0625"></line><line x1="10.5" y1="0.5" x2="2.1" y2="1.5" stroke="#0000ff" stroke-width="0.0625"></line><line x1="4.2" y1="1" x2="8.4" y2="1" stroke="#000000" stroke-width="0.03125"></line><line x1="4.2" y1="1" x2="4.2" y2="2" stroke="#000000" stroke-width="0.03125"></line><line x1="8.4" y1="1" x2="8.4" y2="2" stroke="#000000" stroke-width="0.03125"></line><line x1="4.2" y1="2" x2="5.25" y2="2" stroke="#000000" stroke-width="0.03125"></line><line x1="4.2" y1="2" x2="4.2" y2="4" stroke="#000000" stroke-width="0.03125"></line><line x1="5.25" y1="2" x2="5.25" y2="4" stroke="#000000" stroke-width="0.03125"></line><line x1="4.2" y1="4" x2="5.25" y2="4" stroke="#000000" stroke-width="0.0625"></line><line x1="6.300000000000001" y1="1.5" x2="4.7250000000000005" y2="2.5" stroke="#0000ff" stroke-width="0.0625"></line><line x1="5.25" y1="2" x2="6.3" y2="2" stroke="#000000" stroke-width="0.03125"></line><line x1="5.25" y1="2" x2="5.25" y2="4" stroke="#000000" stroke-width="0.03125"></line><line x1="6.3" y1="2" x2="6.3" y2="4" stroke="#000000" stroke-width="0.03125"></line><line x1="5.25" y1="4" x2="6.3" y2="4" stroke="#000000" stroke-width="0.0625"></line><line x1="6.300000000000001" y1="1.5" x2="5.775" y2="2.5" stroke="#0000ff" stroke-width="0.0625"></line><line x1="6.300000000000001" y1="2" x2="7.3500000000000005" y2="2" stroke="#000000" stroke-width="0.03125"></line><line x1="6.300000000000001" y1="2" x2="6.300000000000001" y2="4" stroke="#000000" stroke-width="0.03125"></line><line x1="7.3500000000000005" y1="2" x2="7.3500000000000005" y2="4" stroke="#000000" stroke-width="0.03125"></line><line x1="6.300000000000001" y1="4" x2="7.3500000000000005" y2="4" stroke="#000000" stroke-width="0.0625"></line><line x1="6.300000000000001" y1="1.5" x2="6.825000000000001" y2="2.5" stroke="#0000ff" stroke-width="0.0625"></line><line x1="7.3500000000000005" y1="2" x2="8.4" y2="2" stroke="#000000" stroke-width="0.03125"></line><line x1="7.3500000000000005" y1="2" x2="7.3500000000000005" y2="4" stroke="#000000" stroke-width="0.03125"></line><line x1="8.4" y1="2" x2="8.4" y2="4" stroke="#000000" stroke-width="0.03125"></line><line x1="7.3500000000000005" y1="4" x2="8.4" y2="4" stroke="#000000" stroke-width="0.0625"></line><line x1="6.300000000000001" y1="1.5" x2="7.875000000000001" y2="2.5" stroke="#0000ff" stroke-width="0.0625"></line><line x1="10.5" y1="0.5" x2="6.300000000000001" y2="1.5" stroke="#0000ff" stroke-width="0.0625"></line><line x1="8.4" y1="1" x2="12.600000000000001" y2="1" stroke="#000000" stroke-width="0.03125"></line><line x1="8.4" y1="1" x2="8.4" y2="2" stroke="#000000" stroke-width="0.03125"></line><line x1="12.600000000000001" y1="1" x2="12.600000000000001" y2="2" stroke="#000000" stroke-width="0.03125"></line><line x1="8.4" y1="2" x2="9.8" y2="2" stroke="#000000" stroke-width="0.03125"></line><line x1="8.4" y1="2" x2="8.4" y2="3" stroke="#000000" stroke-width="0.03125"></line><line x1="9.8" y1="2" x2="9.8" y2="3" stroke="#000000" stroke-width="0.03125"></line><line x1="8.4" y1="3" x2="9.1" y2="3" stroke="#000000" stroke-width="0.03125"></line><line x1="8.4" y1="3" x2="8.4" y2="4" stroke="#000000" stroke-width="0.03125"></line><line x1="9.1" y1="3" x2="9.1" y2="4" stroke="#000000" stroke-width="0.03125"></line><line x1="8.4" y1="4" x2="9.1" y2="4" stroke="#000000" stroke-width="0.0625"></line><line x1="9.1" y1="2.5" x2="8.75" y2="3.5" stroke="#0000ff" stroke-width="0.0625"></line><line x1="9.1" y1="3" x2="9.799999999999999" y2="3" stroke="#000000" stroke-width="0.03125"></line><line x1="9.1" y1="3" x2="9.1" y2="4" stroke="#000000" stroke-width="0.03125"></line><line x1="9.799999999999999" y1="3" x2="9.799999999999999" y2="4" stroke="#000000" stroke-width="0.03125"></line><line x1="9.1" y1="4" x2="9.799999999999999" y2="4" stroke="#000000" stroke-width="0.0625"></line><line x1="9.1" y1="2.5" x2="9.45" y2="3.5" stroke="#0000ff" stroke-width="0.0625"></line><line x1="10.5" y1="1.5" x2="9.1" y2="2.5" stroke="#0000ff" stroke-width="0.0625"></line><line x1="9.8" y1="2" x2="11.200000000000001" y2="2" stroke="#000000" stroke-width="0.03125"></line><line x1="9.8" y1="2" x2="9.8" y2="3" stroke="#000000" stroke-width="0.03125"></line><line x1="11.200000000000001" y1="2" x2="11.200000000000001" y2="3" stroke="#000000" stroke-width="0.03125"></line><line x1="9.8" y1="3" x2="10.266666666666667" y2="3" stroke="#000000" stroke-width="0.03125"></line><line x1="9.8" y1="3" x2="9.8" y2="4" stroke="#000000" stroke-width="0.03125"></line><line x1="10.266666666666667" y1="3" x2="10.266666666666667" y2="4" stroke="#000000" stroke-width="0.03125"></line><line x1="9.8" y1="4" x2="10.266666666666667" y2="4" stroke="#000000" stroke-width="0.0625"></line><line x1="10.5" y1="2.5" x2="10.033333333333333" y2="3.5" stroke="#0000ff" stroke-width="0.0625"></line><line x1="10.266666666666667" y1="3" x2="10.733333333333334" y2="3" stroke="#000000" stroke-width="0.03125"></line><line x1="10.266666666666667" y1="3" x2="10.266666666666667" y2="4" stroke="#000000" stroke-width="0.03125"></line><line x1="10.733333333333334" y1="3" x2="10.733333333333334" y2="4" stroke="#000000" stroke-width="0.03125"></line><line x1="10.266666666666667" y1="4" x2="10.733333333333334" y2="4" stroke="#000000" stroke-width="0.0625"></line><line x1="10.5" y1="2.5" x2="10.5" y2="3.5" stroke="#0000ff" stroke-width="0.0625"></line><line x1="10.733333333333334" y1="3" x2="11.200000000000001" y2="3" stroke="#000000" stroke-width="0.03125"></line><line x1="10.733333333333334" y1="3" x2="10.733333333333334" y2="4" stroke="#000000" stroke-width="0.03125"></line><line x1="11.200000000000001" y1="3" x2="11.200000000000001" y2="4" stroke="#000000" stroke-width="0.03125"></line><line x1="10.733333333333334" y1="4" x2="11.200000000000001" y2="4" stroke="#000000" stroke-width="0.0625"></line><line x1="10.5" y1="2.5" x2="10.966666666666667" y2="3.5" stroke="#0000ff" stroke-width="0.0625"></line><line x1="10.5" y1="1.5" x2="10.5" y2="2.5" stroke="#0000ff" stroke-width="0.0625"></line><line x1="11.200000000000001" y1="2" x2="12.600000000000001" y2="2" stroke="#000000" stroke-width="0.03125"></line><line x1="11.200000000000001" y1="2" x2="11.200000000000001" y2="3" stroke="#000000" stroke-width="0.03125"></line><line x1="12.600000000000001" y1="2" x2="12.600000000000001" y2="3" stroke="#000000" stroke-width="0.03125"></line><line x1="11.200000000000001" y1="3" x2="11.9" y2="3" stroke="#000000" stroke-width="0.03125"></line><line x1="11.200000000000001" y1="3" x2="11.200000000000001" y2="4" stroke="#000000" stroke-width="0.03125"></line><line x1="11.9" y1="3" x2="11.9" y2="4" stroke="#000000" stroke-width="0.03125"></line><line x1="11.200000000000001" y1="4" x2="11.9" y2="4" stroke="#000000" stroke-width="0.0625"></line><line x1="11.9" y1="2.5" x2="11.55" y2="3.5" stroke="#0000ff" stroke-width="0.0625"></line><line x1="11.9" y1="3" x2="12.6" y2="3" stroke="#000000" stroke-width="0.03125"></line><line x1="11.9" y1="3" x2="11.9" y2="4" stroke="#000000" stroke-width="0.03125"></line><line x1="12.6" y1="3" x2="12.6" y2="4" stroke="#000000" stroke-width="0.03125"></line><line x1="11.9" y1="4" x2="12.6" y2="4" stroke="#000000" stroke-width="0.0625"></line><line x1="11.9" y1="2.5" x2="12.25" y2="3.5" stroke="#0000ff" stroke-width="0.0625"></line><line x1="10.5" y1="1.5" x2="11.9" y2="2.5" stroke="#0000ff" stroke-width="0.0625"></line><line x1="10.5" y1="0.5" x2="10.5" y2="1.5" stroke="#0000ff" stroke-width="0.0625"></line><line x1="12.600000000000001" y1="1" x2="16.8" y2="1" stroke="#000000" stroke-width="0.03125"></line><line x1="12.600000000000001" y1="1" x2="12.600000000000001" y2="2" stroke="#000000" stroke-width="0.03125"></line><line x1="16.8" y1="1" x2="16.8" y2="2" stroke="#000000" stroke-width="0.03125"></line><line x1="12.600000000000001" y1="2" x2="14.700000000000001" y2="2" stroke="#000000" stroke-width="0.03125"></line><line x1="12.600000000000001" y1="2" x2="12.600000000000001" y2="3" stroke="#000000" stroke-width="0.03125"></line><line x1="14.700000000000001" y1="2" x2="14.700000000000001" y2="3" stroke="#000000" stroke-width="0.03125"></line><line x1="12.600000000000001" y1="3" x2="13.650000000000002" y2="3" stroke="#000000" stroke-width="0.03125"></line><line x1="12.600000000000001" y1="3" x2="12.600000000000001" y2="4" stroke="#000000" stroke-width="0.03125"></line><line x1="13.650000000000002" y1="3" x2="13.650000000000002" y2="4" stroke="#000000" stroke-width="0.03125"></line><line x1="12.600000000000001" y1="4" x2="13.650000000000002" y2="4" stroke="#000000" stroke-width="0.0625"></line><line x1="13.650000000000002" y1="2.5" x2="13.125000000000002" y2="3.5" stroke="#0000ff" stroke-width="0.0625"></line><line x1="13.650000000000002" y1="3" x2="14.700000000000003" y2="3" stroke="#000000" stroke-width="0.03125"></line><line x1="13.650000000000002" y1="3" x2="13.650000000000002" y2="4" stroke="#000000" stroke-width="0.03125"></line><line x1="14.700000000000003" y1="3" x2="14.700000000000003" y2="4" stroke="#000000" stroke-width="0.03125"></line><line x1="13.650000000000002" y1="4" x2="14.700000000000003" y2="4" stroke="#000000" stroke-width="0.0625"></line><line x1="13.650000000000002" y1="2.5" x2="14.175000000000002" y2="3.5" stroke="#0000ff" stroke-width="0.0625"></line><line x1="14.700000000000001" y1="1.5" x2="13.650000000000002" y2="2.5" stroke="#0000ff" stroke-width="0.0625"></line><line x1="14.700000000000001" y1="2" x2="16.8" y2="2" stroke="#000000" stroke-width="0.03125"></line><line x1="14.700000000000001" y1="2" x2="14.700000000000001" y2="3" stroke="#000000" stroke-width="0.03125"></line><line x1="16.8" y1="2" x2="16.8" y2="3" stroke="#000000" stroke-width="0.03125"></line><line x1="14.700000000000001" y1="3" x2="15.750000000000002" y2="3" stroke="#000000" stroke-width="0.03125"></line><line x1="14.700000000000001" y1="3" x2="14.700000000000001" y2="4" stroke="#000000" stroke-width="0.03125"></line><line x1="15.750000000000002" y1="3" x2="15.750000000000002" y2="4" stroke="#000000" stroke-width="0.03125"></line><line x1="14.700000000000001" y1="4" x2="15.750000000000002" y2="4" stroke="#000000" stroke-width="0.0625"></line><line x1="15.750000000000002" y1="2.5" x2="15.225000000000001" y2="3.5" stroke="#0000ff" stroke-width="0.0625"></line><line x1="15.750000000000002" y1="3" x2="16.8" y2="3" stroke="#000000" stroke-width="0.03125"></line><line x1="15.750000000000002" y1="3" x2="15.750000000000002" y2="4" stroke="#000000" stroke-width="0.03125"></line><line x1="16.8" y1="3" x2="16.8" y2="4" stroke="#000000" stroke-width="0.03125"></line><line x1="15.750000000000002" y1="4" x2="16.8" y2="4" stroke="#000000" stroke-width="0.0625"></line><line x1="15.750000000000002" y1="2.5" x2="16.275000000000002" y2="3.5" stroke="#0000ff" stroke-width="0.0625"></line><line x1="14.700000000000001" y1="1.5" x2="15.750000000000002" y2="2.5" stroke="#0000ff" stroke-width="0.0625"></line><line x1="10.5" y1="0.5" x2="14.700000000000001" y2="1.5" stroke="#0000ff" stroke-width="0.0625"></line><line x1="16.8" y1="1" x2="21.0" y2="1" stroke="#000000" stroke-width="0.03125"></line><line x1="16.8" y1="1" x2="16.8" y2="2" stroke="#000000" stroke-width="0.03125"></line><line x1="21.0" y1="1" x2="21.0" y2="2" stroke="#000000" stroke-width="0.03125"></line><line x1="16.8" y1="2" x2="18.2" y2="2" stroke="#000000" stroke-width="0.03125"></line><line x1="16.8" y1="2" x2="16.8" y2="4" stroke="#000000" stroke-width="0.03125"></line><line x1="18.2" y1="2" x2="18.2" y2="4" stroke="#000000" stroke-width="0.03125"></line><line x1="16.8" y1="4" x2="18.2" y2="4" stroke="#000000" stroke-width="0.0625"></line><line x1="18.900000000000002" y1="1.5" x2="17.5" y2="2.5" stroke="#0000ff" stroke-width="0.0625"></line><line x1="18.2" y1="2" x2="19.599999999999998" y2="2" stroke="#000000" stroke-width="0.03125"></line><line x1="18.2" y1="2" x2="18.2" y2="4" stroke="#000000" stroke-width="0.03125"></line><line x1="19.599999999999998" y1="2" x2="19.599999999999998" y2="4" stroke="#000000" stroke-width="0.03125"></line><line x1="18.2" y1="4" x2="19.599999999999998" y2="4" stroke="#000000" stroke-width="0.0625"></line><line x1="18.900000000000002" y1="1.5" x2="18.9" y2="2.5" stroke="#0000ff" stroke-width="0.0625"></line><line x1="19.6" y1="2" x2="21.0" y2="2" stroke="#000000" stroke-width="0.03125"></line><line x1="19.6" y1="2" x2="19.6" y2="4" stroke="#000000" stroke-width="0.03125"></line><line x1="21.0" y1="2" x2="21.0" y2="4" stroke="#000000" stroke-width="0.03125"></line><line x1="19.6" y1="4" x2="21.0" y2="4" stroke="#000000" stroke-width="0.0625"></line><line x1="18.900000000000002" y1="1.5" x2="20.3" y2="2.5" stroke="#0000ff" stroke-width="0.0625"></line><line x1="10.5" y1="0.5" x2="18.900000000000002" y2="1.5" stroke="#0000ff" stroke-width="0.0625"></line><circle cx="10.5" cy="0.5" r="0.0625" fill="#ff0000"></circle><circle cx="2.1" cy="1.5" r="0.0625" fill="#ff0000"></circle><circle cx="0.7000000000000001" cy="2.5" r="0.0625" fill="#ff0000"></circle><circle cx="2.1" cy="2.5" r="0.0625" fill="#ff0000"></circle><circle cx="3.5000000000000004" cy="2.5" r="0.0625" fill="#ff0000"></circle><circle cx="6.300000000000001" cy="1.5" r="0.0625" fill="#ff0000"></circle><circle cx="4.7250000000000005" cy="2.5" r="0.0625" fill="#ff0000"></circle><circle cx="5.775" cy="2.5" r="0.0625" fill="#ff0000"></circle><circle cx="6.825000000000001" cy="2.5" r="0.0625" fill="#ff0000"></circle><circle cx="7.875000000000001" cy="2.5" r="0.0625" fill="#ff0000"></circle><circle cx="10.5" cy="1.5" r="0.0625" fill="#ff0000"></circle><circle cx="9.1" cy="2.5" r="0.0625" fill="#ff0000"></circle><circle cx="8.75" cy="3.5" r="0.0625" fill="#ff0000"></circle><circle cx="9.45" cy="3.5" r="0.0625" fill="#ff0000"></circle><circle cx="10.5" cy="2.5" r="0.0625" fill="#ff0000"></circle><circle cx="10.033333333333333" cy="3.5" r="0.0625" fill="#ff0000"></circle><circle cx="10.5" cy="3.5" r="0.0625" fill="#ff0000"></circle><circle cx="10.966666666666667" cy="3.5" r="0.0625" fill="#ff0000"></circle><circle cx="11.9" cy="2.5" r="0.0625" fill="#ff0000"></circle><circle cx="11.55" cy="3.5" r="0.0625" fill="#ff0000"></circle><circle cx="12.25" cy="3.5" r="0.0625" fill="#ff0000"></circle><circle cx="14.700000000000001" cy="1.5" r="0.0625" fill="#ff0000"></circle><circle cx="13.650000000000002" cy="2.5" r="0.0625" fill="#ff0000"></circle><circle cx="13.125000000000002" cy="3.5" r="0.0625" fill="#ff0000"></circle><circle cx="14.175000000000002" cy="3.5" r="0.0625" fill="#ff0000"></circle><circle cx="15.750000000000002" cy="2.5" r="0.0625" fill="#ff0000"></circle><circle cx="15.225000000000001" cy="3.5" r="0.0625" fill="#ff0000"></circle><circle cx="16.275000000000002" cy="3.5" r="0.0625" fill="#ff0000"></circle><circle cx="18.900000000000002" cy="1.5" r="0.0625" fill="#ff0000"></circle><circle cx="17.5" cy="2.5" r="0.0625" fill="#ff0000"></circle><circle cx="18.9" cy="2.5" r="0.0625" fill="#ff0000"></circle><circle cx="20.3" cy="2.5" r="0.0625" fill="#ff0000"></circle></g><use href="#graph" y="4.0" transform=" translate(0, 4.0) rotate(180, 10.5, 4.0)"></use></svg>