<svg width="19cm" height="8cm" viewBox="0, 0, 19, 8" version="1.1" xmlns="http://www.w3.org/2000/svg"><g id="graph"><line x1="0" y1="0" x2="19" y2="0" stroke="#000000" stroke-width="0.03125"></line><line x1="0" y1="0" x2="0" y2="1" stroke="#000000" stroke-width="0.03125"></line><line x1="19" y1="0" x2="19" y2="1" stroke="#000000" stroke-width="0.03125"></line><line x1="0" y1="1" x2="6.333333333333333" y2="1" stroke="#000000" stroke-width="0.03125"></line><line x1="0" y1="1" x2="0" y2="2" stroke="#000000" stroke-width="0.03125"></line><line x1="6.333333333333333" y1="1" x2="6.333333333333333" y2="2" stroke="#000000" stroke-width="0.03125"></line><line x1="0" y1="2" x2="2.111111111111111" y2="2" stroke="#000000" stroke-width="0.03125"></line><line x1="0" y1="2" x2="0" y2="3" stroke="#000000" stroke-width="0.03125"></line><line x1="2.111111111111111" y1="2" x2="2.111111111111111" y2="3" stroke="#000000" stroke-width="0.03125"></line><line x1="0" y1="3" x2="1.0555555555555556" y2="3" stroke="#000000" stroke-width="0.03125"></line><line x1="0" y1="3" x2="0" y2="4" stroke="#000000" stroke-width="0.03125"></line><line x1="1.0555555555555556" y1="3" x2="1.0555555555555556" y2="4" stroke="#000000" stroke-width="0.03125"></line><line x1="0" y1="4" x2="1.0555555555555556" y2="4" stroke="#000000" stroke-width="0.0625"></line><line x1="1.0555555555555556" y1="2.5" x2="0.5277777777777778" y2="3.5" stroke="#0000ff" stroke-width="0.0625"></line><line x1="1.0555555555555556" y1="3" x2="2.111111111111111" y2="3" stroke="#000000" stroke-width="0.03125"></line><line x1="1.0555555555555556" y1="3" x2="1.0555555555555556" y2="4" stroke="#000000" stroke-width="0.03125"></line><line x1="2.111111111111111" y1="3" x2="2.111111111111111" y2="4" stroke="#000000" stroke-width="0.03125"></line><line x1="1.0555555555555556" y1="4" x2="2.111111111111111" y2="4" stroke="#000000" stroke-width="0.0625"></line><line x1="1.0555555555555556" y1="2.5" x2="1.5833333333333335" y2="3.5" stroke="#0000ff" stroke-width="0.0625"></line><line x1="3.1666666666666665" y1="1.5" x2="1.0555555555555556" y2="2.5" stroke="#0000ff" stroke-width="0.0625"></line><line x1="2.111111111111111" y1="2" x2="4.222222222222222" y2="2" stroke="#000000" stroke-width="0.03125"></line><line x1="2.111111111111111" y1="2" x2="2.111111111111111" y2="3" stroke="#000000" stroke-width="0.03125"></line><line x1="4.222222222222222" y1="2" x2="4.222222222222222" y2="3" stroke="#000000" stroke-width="0.03125"></line><line x1="2.111111111111111" y1="3" x2="3.166666666666667" y2="3" stroke="#000000" stroke-width="0.03125"></line><line x1="2.111111111111111" y1="3" x2="2.111111111111111" y2="4" stroke="#000000" stroke-width="0.03125"></line><line x1="3.166666666666667" y1="3" x2="3.166666666666667" y2="4" stroke="#000000" stroke-width="0.03125"></line><line x1="2.111111111111111" y1="4" x2="3.166666666666667" y2="4" stroke="#000000" stroke-width="0.0625"></line><line x1="3.166666666666667" y1="2.5" x2="2.638888888888889" y2="3.5" stroke="#0000ff" stroke-width="0.0625"></line><line x1="3.166666666666667" y1="3" x2="4.222222222222222" y2="3" stroke="#000000" stroke-width="0.03125"></line><line x1="3.166666666666667" y1="3" x2="3.166666666666667" y2="4" stroke="#000000" stroke-width="0.03125"></line><line x1="4.222222222222222" y1="3" x2="4.222222222222222" y2="4" stroke="#000000" stroke-width="0.03125"></line><line x1="3.166666666666667" y1="4" x2="4.222222222222222" y2="4" stroke="#000000" stroke-width="0.0625"></line><line x1="3.166666666666667" y1="2.5" x2="3.6944444444444446" y2="3.5" stroke="#0000ff" stroke-width="0.0625"></line><line x1="3.1666666666666665" y1="1.5" x2="3.166666666666667" y2="2.5" stroke="#0000ff" stroke-width="0.0625"></line><line x1="4.222222222222222" y1="2" x2="6.333333333333334" y2="2" stroke="#000000" stroke-width="0.03125"></line><line x1="4.222222222222222" y1="2" x2="4.222222222222222" y2="3" stroke="#000000" stroke-width="0.03125"></line><line x1="6.333333333333334" y1="2" x2="6.333333333333334" y2="3" stroke="#000000" stroke-width="0.03125"></line><line x1="4.222222222222222" y1="3" x2="5.277777777777778" y2="3" stroke="#000000" stroke-width="0.03125"></line><line x1="4.222222222222222" y1="3" x2="4.222222222222222" y2="4" stroke="#000000" stroke-width="0.03125"></line><line x1="5.277777777777778" y1="3" x2="5.277777777777778" y2="4" stroke="#000000" stroke-width="0.03125"></line><line x1="4.222222222222222" y1="4" x2="5.277777777777778" y2="4" stroke="#000000" stroke-width="0.0625"></line><line x1="5.277777777777778" y1="2.5" x2="4.75" y2="3.5" stroke="#0000ff" stroke-width="0.0625"></line><line x1="5.277777777777778" y1="3" x2="6.333333333333333" y2="3" stroke="#000000" stroke-width="0.03125"></line><line x1="5.277777777777778" y1="3" x2="5.277777777777778" y2="4" stroke="#000000" stroke-width="0.03125"></line><line x1="6.333333333333333" y1="3" x2="6.333333333333333" y2="4" stroke="#000000" stroke-width="0.03125"></line><line x1="5.277777777777778" y1="4" x2="6.333333333333333" y2="4" stroke="#000000" stroke-width="0.0625"></line><line x1="5.277777777777778" y1="2.5" x2="5.805555555555555" y2="3.5" stroke="#0000ff" stroke-width="0.0625"></line><line x1="3.1666666666666665" y1="1.5" x2="5.277777777777778" y2="2.5" stroke="#0000ff" stroke-width="0.0625"></line><line x1="9.5" y1="0.5" x2="3.1666666666666665" y2="1.5" stroke="#0000ff" stroke-width="0.0625"></line><line x1="6.333333333333333" y1="1" x2="12.666666666666666" y2="1" stroke="#000000" stroke-width="0.03125"></line><line x1="6.333333333333333" y1="1" x2="6.333333333333333" y2="2" stroke="#000000" stroke-width="0.03125"></line><line x1="12.666666666666666" y1="1" x2="12.666666666666666" y2="2" stroke="#000000" stroke-width="0.03125"></line><line x1="6.333333333333333" y1="2" x2="8.444444444444445" y2="2" stroke="#000000" stroke-width="0.03125"></line><line x1="6.333333333333333" y1="2" x2="6.333333333333333" y2="3" stroke="#000000" stroke-width="0.03125"></line><line x1="8.444444444444445" y1="2" x2="8.444444444444445" y2="3" stroke="#000000" stroke-width="0.03125"></line><line x1="6.333333333333333" y1="3" x2="7.037037037037036" y2="3" stroke="#000000" stroke-width="0.03125"></line><line x1="6.333333333333333" y1="3" x2="6.333333333333333" y2="4" stroke="#000000" stroke-width="0.03125"></line><line x1="7.037037037037036" y1="3" x2="7.037037037037036" y2="4" stroke="#000000" stroke-width="0.03125"></line><line x1="6.333333333333333" y1="4" x2="7.037037037037036" y2="4" stroke="#000000" stroke-width="0.0625"></line><line x1="7.388888888888888" y1="2.5" x2="6.685185185185185" y2="3.5" stroke="#0000ff" stroke-width="0.0625"></line><line x1="7.037037037037036" y1="3" x2="7.7407407407407405" y2="3" stroke="#000000" stroke-width="0.03125"></line><line x1="7.037037037037036" y1="3" x2="7.037037037037036" y2="4" stroke="#000000" stroke-width="0.03125"></line><line x1="7.7407407407407405" y1="3" x2="7.7407407407407405" y2="4" stroke="#000000" stroke-width="0.03125"></line><line x1="7.037037037037036" y1="4" x2="7.7407407407407405" y2="4" stroke="#000000" stroke-width="0.0625"></line><line x1="7.388888888888888" y1="2.5" x2="7.388888888888888" y2="3.5" stroke="#0000ff" stroke-width="0.0625"></line><line x1="7.7407407407407405" y1="3" x2="8.444444444444445" y2="3" stroke="#000000" stroke-width="0.03125"></line><line x1="7.7407407407407405" y1="3" x2="7.7407407407407405" y2="4" stroke="#000000" stroke-width="0.03125"></line><line x1="8.444444444444445" y1="3" x2="8.444444444444445" y2="4" stroke="#000000" stroke-width="0.03125"></line><line x1="7.7407407407407405" y1="4" x2="8.444444444444445" y2="4" stroke="#000000" stroke-width="0.0625"></line><line x1="7.388888888888888" y1="2.5" x2="8.092592592592592" y2="3.5" stroke="#0000ff" stroke-width="0.0625"></line><line x1="9.5" y1="1.5" x2="7.388888888888888" y2="2.5" stroke="#0000ff" stroke-width="0.0625"></line><line x1="8.444444444444445" y1="2" x2="10.555555555555555" y2="2" stroke="#000000" stroke-width="0.03125"></line><line x1="8.444444444444445" y1="2" x2="8.444444444444445" y2="3" stroke="#000000" stroke-width="0.03125"></line><line x1="10.555555555555555" y1="2" x2="10.555555555555555" y2="3" stroke="#000000" stroke-width="0.03125"></line><line x1="8.444444444444445" y1="3" x2="9.5" y2="3" stroke="#000000" stroke-width="0.03125"></line><line x1="8.444444444444445" y1="3" x2="8.444444444444445" y2="4" stroke="#000000" stroke-width="0.03125"></line><line x1="9.5" y1="3" x2="9.5" y2="4" stroke="#000000" stroke-width="0.03125"></line><line x1="8.444444444444445" y1="4" x2="9.5" y2="4" stroke="#000000" stroke-width="0.0625"></line><line x1="9.5" y1="2.5" x2="8.972222222222223" y2="3.5" stroke="#0000ff" stroke-width="0.0625"></line><line x1="9.5" y1="3" x2="10.555555555555555" y2="3" stroke="#000000" stroke-width="0.03125"></line><line x1="9.5" y1="3" x2="9.5" y2="4" stroke="#000000" stroke-width="0.03125"></line><line x1="10.555555555555555" y1="3" x2="10.555555555555555" y2="4" stroke="#000000" stroke-width="0.03125"></line><line x1="9.5" y1="4" x2="10.555555555555555" y2="4" stroke="#000000" stroke-width="0.0625"></line><line x1="9.5" y1="2.5" x2="10.027777777777779" y2="3.5" stroke="#0000ff" stroke-width="0.0625"></line><line x1="9.5" y1="1.5" x2="9.5" y2="2.5" stroke="#0000ff" stroke-width="0.0625"></line><line x1="10.555555555555555" y1="2" x2="12.666666666666666" y2="2" stroke="#000000" stroke-width="0.03125"></line><line x1="10.555555555555555" y1="2" x2="10.555555555555555" y2="3" stroke="#000000" stroke-width="0.03125"></line><line x1="12.666666666666666" y1="2" x2="12.666666666666666" y2="3" stroke="#000000" stroke-width="0.03125"></line><line x1="10.555555555555555" y1="3" x2="11.61111111111111" y2="3" stroke="#000000" stroke-width="0.03125"></line><line x1="10.555555555555555" y1="3" x2="10.555555555555555" y2="4" stroke="#000000" stroke-width="0.03125"></line><line x1="11.61111111111111" y1="3" x2="11.61111111111111" y2="4" stroke="#000000" stroke-width="0.03125"></line><line x1="10.555555555555555" y1="4" x2="11.61111111111111" y2="4" stroke="#000000" stroke-width="0.0625"></line><line x1="11.61111111111111" y1="2.5" x2="11.083333333333334" y2="3.5" stroke="#0000ff" stroke-width="0.0625"></line><line x1="11.61111111111111" y1="3" x2="12.666666666666666" y2="3" stroke="#000000" stroke-width="0.03125"></line><line x1="11.61111111111111" y1="3" x2="11.61111111111111" y2="4" stroke="#000000" stroke-width="0.03125"></line><line x1="12.666666666666666" y1="3" x2="12.666666666666666" y2="4" stroke="#000000" stroke-width="0.03125"></line><line x1="11.61111111111111" y1="4" x2="12.666666666666666" y2="4" stroke="#000000" stroke-width="0.0625"></line><line x1="11.61111111111111" y1="2.5" x2="12.13888888888889" y2="3.5" stroke="#0000ff" stroke-width="0.0625"></line><line x1="9.5" y1="1.5" x2="11.61111111111111" y2="2.5" stroke="#0000ff" stroke-width="0.0625"></line><line x1="9.5" y1="0.5" x2="9.5" y2="1.5" stroke="#0000ff" stroke-width="0.0625"></line><line x1="12.666666666666666" y1="1" x2="19.0" y2="1" stroke="#000000" stroke-width="0.03125"></line><line x1="12.666666666666666" y1="1" x2="12.666666666666666" y2="2" stroke="#000000" stroke-width="0.03125"></line><line x1="19.0" y1="1" x2="19.0" y2="2" stroke="#000000" stroke-width="0.03125"></line><line x1="12.666666666666666" y1="2" x2="15.833333333333332" y2="2" stroke="#000000" stroke-width="0.03125"></line><line x1="12.666666666666666" y1="2" x2="12.666666666666666" y2="3" stroke="#000000" stroke-width="0.03125"></line><line x1="15.833333333333332" y1="2" x2="15.833333333333332" y2="3" stroke="#000000" stroke-width="0.03125"></line><line x1="12.666666666666666" y1="3" x2="13.722222222222221" y2="3" stroke="#000000" stroke-width="0.03125"></line><line x1="12.666666666666666" y1="3" x2="12.666666666666666" y2="4" stroke="#000000" stroke-width="0.03125"></line><line x1="13.722222222222221" y1="3" x2="13.722222222222221" y2="4" stroke="#000000" stroke-width="0.03125"></line><line x1="12.666666666666666" y1="4" x2="13.722222222222221" y2="4" stroke="#000000" stroke-width="0.0625"></line><line x1="14.25" y1="2.5" x2="13.194444444444445" y2="3.5" stroke="#0000ff" stroke-width="0.0625"></line><line x1="13.722222222222221" y1="3" x2="14.777777777777777" y2="3" stroke="#000000" stroke-width="0.03125"></line><line x1="13.722222222222221" y1="3" x2="13.722222222222221" y2="4" stroke="#000000" stroke-width="0.03125"></line><line x1="14.777777777777777" y1="3" x2="14.777777777777777" y2="4" stroke="#000000" stroke-width="0.03125"></line><line x1="13.722222222222221" y1="4" x2="14.777777777777777" y2="4" stroke="#000000" stroke-width="0.0625"></line><line x1="14.25" y1="2.5" x2="14.25" y2="3.5" stroke="#0000ff" stroke-width="0.0625"></line><line x1="14.777777777777777" y1="3" x2="15.833333333333332" y2="3" stroke="#000000" stroke-width="0.03125"></line><line x1="14.777777777777777" y1="3" x2="14.777777777777777" y2="4" stroke="#000000" stroke-width="0.03125"></line><line x1="15.833333333333332" y1="3" x2="15.833333333333332" y2="4" stroke="#000000" stroke-width="0.03125"></line><line x1="14.777777777777777" y1="4" x2="15.833333333333332" y2="4" stroke="#000000" stroke-width="0.0625"></line><line x1="14.25" y1="2.5" x2="15.305555555555555" y2="3.5" stroke="#0000ff" stroke-width="0.0625"></line><line x1="15.833333333333332" y1="1.5" x2="14.25" y2="2.5" stroke="#0000ff" stroke-width="0.0625"></line><line x1="15.833333333333332" y1="2" x2="19.0" y2="2" stroke="#000000" stroke-width="0.03125"></line><line x1="15.833333333333332" y1="2" x2="15.833333333333332" y2="3" stroke="#000000" stroke-width="0.03125"></line><line x1="19.0" y1="2" x2="19.0" y2="3" stroke="#000000" stroke-width="0.03125"></line><line x1="15.833333333333332" y1="3" x2="16.88888888888889" y2="3" stroke="#000000" stroke-width="0.03125"></line><line x1="15.833333333333332" y1="3" x2="15.833333333333332" y2="4" stroke="#000000" stroke-width="0.03125"></line><line x1="16.88888888888889" y1="3" x2="16.88888888888889" y2="4" stroke="#000000" stroke-width="0.03125"></line><line x1="15.833333333333332" y1="4" x2="16.88888888888889" y2="4" stroke="#000000" stroke-width="0.0625"></line><line x1="17.416666666666664" y1="2.5" x2="16.36111111111111" y2="3.5" stroke="#0000ff" stroke-width="0.0625"></line><line x1="16.88888888888889" y1="3" x2="17.944444444444446" y2="3" stroke="#000000" stroke-width="0.03125"></line><line x1="16.88888888888889" y1="3" x2="16.88888888888889" y2="4" stroke="#000000" stroke-width="0.03125"></line><line x1="17.944444444444446" y1="3" x2="17.944444444444446" y2="4" stroke="#000000" stroke-width="0.03125"></line><line x1="16.88888888888889" y1="4" x2="17.944444444444446" y2="4" stroke="#000000" stroke-width="0.0625"></line><line x1="17.416666666666664" y1="2.5" x2="17.416666666666668" y2="3.5" stroke="#0000ff" stroke-width="0.0625"></line><line x1="17.944444444444443" y1="3" x2="19.0" y2="3" stroke="#000000" stroke-width="0.03125"></line><line x1="17.944444444444443" y1="3" x2="17.944444444444443" y2="4" stroke="#000000" stroke-width="0.03125"></line><line x1="19.0" y1="3" x2="19.0" y2="4" stroke="#000000" stroke-width="0.03125"></line><line x1="17.944444444444443" y1="4" x2="19.0" y2="4" stroke="#000000" stroke-width="0.0625"></line><line x1="17.416666666666664" y1="2.5" x2="18.47222222222222" y2="3.5" stroke="#0000ff" stroke-width="0.0625"></line><line x1="15.833333333333332" y1="1.5" x2="17.416666666666664" y2="2.5" stroke="#0000ff" stroke-width="0.0625"></line><line x1="9.5" y1="0.5" x2="15.833333333333332" y2="1.5" stroke="#0000ff" stroke-width="0.0625"></line><circle cx="9.5" cy="0.5" r="0.0625" fill="#ff0000"></circle><circle cx="3.1666666666666665" cy="1.5" r="0.0625" fill="#ff0000"></circle><circle cx="1.0555555555555556" cy="2.5" r="0.0625" fill="#ff0000"></circle><circle cx="0.5277777777777778" cy="3.5" r="0.0625" fill="#ff0000"></circle><circle cx="1.5833333333333335" cy="3.5" r="0.0625" fill="#ff0000"></circle><circle cx="3.166666666666667" cy="2.5" r="0.0625" fill="#ff0000"></circle><circle cx="2.638888888888889" cy="3.5" r="0.0625" fill="#ff0000"></circle><circle cx="3.6944444444444446" cy="3.5" r="0.0625" fill="#ff0000"></circle><circle cx="5.277777777777778" cy="2.5" r="0.0625" fill="#ff0000"></circle><circle cx="4.75" cy="3.5" r="0.0625" fill="#ff0000"></circle><circle cx="5.805555555555555" cy="3.5" r="0.0625" fill="#ff0000"></circle><circle cx="9.5" cy="1.5" r="0.0625" fill="#ff0000"></circle><circle cx="7.388888888888888" cy="2.5" r="0.0625" fill="#ff0000"></circle><circle cx="6.685185185185185" cy="3.5" r="0.0625" fill="#ff0000"></circle><circle cx="7.388888888888888" cy="3.5" r="0.0625" fill="#ff0000"></circle><circle cx="8.092592592592592" cy="3.5" r="0.0625" fill="#ff0000"></circle><circle cx="9.5" cy="2.5" r="0.0625" fill="#ff0000"></circle><circle cx="8.972222222222223" cy="3.5" r="0.0625" fill="#ff0000"></circle><circle cx="10.027777777777779" cy="3.5" r="0.0625" fill="#ff0000"></circle><circle cx="11.61111111111111" cy="2.5" r="0.0625" fill="#ff0000"></circle><circle cx="11.083333333333334" cy="3.5" r="0.0625" fill="#ff0000"></circle><circle cx="12.13888888888889" cy="3.5" r="0.0625" fill="#ff0000"></circle><circle cx="15.833333333333332" cy="1.5" r="0.0625" fill="#ff0000"></circle><circle cx="14.25" cy="2.5" r="0.0625" fill="#ff0000"></circle><circle cx="13.194444444444445" cy="3.5" r="0.0625" fill="#ff0000"></circle><circle cx="14.25" cy="3.5" r="0.0625" fill="#ff0000"></circle><circle cx="15.305555555555555" cy="3.5" r="0.0625" fill="#ff0000"></circle><circle cx="17.416666666666664" cy="2.5" r="0.0625" fill="#ff0000"></circle><circle cx="16.36111111111111" cy="3.5" r="0.0625" fill="#ff0000"></circle><circle cx="17.416666666666668" cy="3.5" r="0.0625" fill="#ff0000"></circle><circle cx="18.47222222222222" cy="3.5" r="0.0625" fill="#ff0000"></circle></g><use href="#graph" y="4.0" transform=" translate(0, 4.0) rotate(180, 9.5, 4.0)"></use></svg>