<svg width="39cm" height="8cm" viewBox="0, 0, 39, 8" version="1.1" xmlns="http://www.w3.org/2000/svg"><g id="graph"><line x1="0" y1="0" x2="39" y2="0" stroke="#000000" stroke-width="0.03125"></line><line x1="0" y1="0" x2="0" y2="1" stroke="#000000" stroke-width="0.03125"></line><line x1="39" y1="0" x2="39" y2="1" stroke="#000000" stroke-width="0.03125"></line><line x1="0" y1="1" x2="13.0" y2="1" stroke="#000000" stroke-width="0.03125"></line><line x1="0" y1="1" x2="0" y2="2" stroke="#000000" stroke-width="0.03125"></line><line x1="13.0" y1="1" x2="13.0" y2="2" stroke="#000000" stroke-width="0.03125"></line><line x1="0" y1="2" x2="2.1666666666666665" y2="2" stroke="#000000" stroke-width="0.03125"></line><line x1="0" y1="2" x2="0" y2="3" stroke="#000000" stroke-width="0.03125"></line><line x1="2.1666666666666665" y1="2" x2="2.1666666666666665" y2="3" stroke="#000000" stroke-width="0.03125"></line><line x1="0" y1="3" x2="1.0833333333333333" y2="3" stroke="#000000" stroke-width="0.03125"></line><line x1="0" y1="3" x2="0" y2="4" stroke="#000000" stroke-width="0.03125"></line><line x1="1.0833333333333333" y1="3" x2="1.0833333333333333" y2="4" stroke="#000000" stroke-width="0.03125"></line><line x1="0" y1="4" x2="1.0833333333333333" y2="4" stroke="#000000" stroke-width="0.0625"></line><line x1="1.0833333333333333" y1="2.5" x2="0.5416666666666666" y2="3.5" stroke="#0000ff" stroke-width="0.0625"></line><line x1="1.0833333333333333" y1="3" x2="2.1666666666666665" y2="3" stroke="#000000" stroke-width="0.03125"></line><line x1="1.0833333333333333" y1="3" x2="1.0833333333333333" y2="4" stroke="#000000" stroke-width="0.03125"></line><line x1="2.1666666666666665" y1="3" x2="2.1666666666666665" y2="4" stroke="#000000" stroke-width="0.03125"></line><line x1="1.0833333333333333" y1="4" x2="2.1666666666666665" y2="4" stroke="#000000" stroke-width="0.0625"></line><line x1="1.0833333333333333" y1="2.5" x2="1.625" y2="3.5" stroke="#0000ff" stroke-width="0.0625"></line><line x1="6.5" y1="1.5" x2="1.0833333333333333" y2="2.5" stroke="#0000ff" stroke-width="0.0625"></line><line x1="2.1666666666666665" y1="2" x2="4.333333333333333" y2="2" stroke="#000000" stroke-width="0.03125"></line><line x1="2.1666666666666665" y1="2" x2="2.1666666666666665" y2="3" stroke="#000000" stroke-width="0.03125"></line><line x1="4.333333333333333" y1="2" x2="4.333333333333333" y2="3" stroke="#000000" stroke-width="0.03125"></line><line x1="2.1666666666666665" y1="3" x2="3.25" y2="3" stroke="#000000" stroke-width="0.03125"></line><line x1="2.1666666666666665" y1="3" x2="2.1666666666666665" y2="4" stroke="#000000" stroke-width="0.03125"></line><line x1="3.25" y1="3" x2="3.25" y2="4" stroke="#000000" stroke-width="0.03125"></line><line x1="2.1666666666666665" y1="4" x2="3.25" y2="4" stroke="#000000" stroke-width="0.0625"></line><line x1="3.25" y1="2.5" x2="2.708333333333333" y2="3.5" stroke="#0000ff" stroke-width="0.0625"></line><line x1="3.25" y1="3" x2="4.333333333333333" y2="3" stroke="#000000" stroke-width="0.03125"></line><line x1="3.25" y1="3" x2="3.25" y2="4" stroke="#000000" stroke-width="0.03125"></line><line x1="4.333333333333333" y1="3" x2="4.333333333333333" y2="4" stroke="#000000" stroke-width="0.03125"></line><line x1="3.25" y1="4" x2="4.333333333333333" y2="4" stroke="#000000" stroke-width="0.0625"></line><line x1="3.25" y1="2.5" x2="3.7916666666666665" y2="3.5" stroke="#0000ff" stroke-width="0.0625"></line><line x1="6.5" y1="1.5" x2="3.25" y2="2.5" stroke="#0000ff" stroke-width="0.0625"></line><line x1="4.333333333333333" y1="2" x2="6.5" y2="2" stroke="#000000" stroke-width="0.03125"></line><line x1="4.333333333333333" y1="2" x2="4.333333333333333" y2="3" stroke="#000000" stroke-width="0.03125"></line><line x1="6.5" y1="2" x2="6.5" y2="3" stroke="#000000" stroke-width="0.03125"></line><line x1="4.333333333333333" y1="3" x2="5.416666666666666" y2="3" stroke="#000000" stroke-width="0.03125"></line><line x1="4.333333333333333" y1="3" x2="4.333333333333333" y2="4" stroke="#000000" stroke-width="0.03125"></line><line x1="5.416666666666666" y1="3" x2="5.416666666666666" y2="4" stroke="#000000" stroke-width="0.03125"></line><line x1="4.333333333333333" y1="4" x2="5.416666666666666" y2="4" stroke="#000000" stroke-width="0.0625"></line><line x1="5.416666666666666" y1="2.5" x2="4.875" y2="3.5" stroke="#0000ff" stroke-width="0.0625"></line><line x1="5.416666666666666" y1="3" x2="6.499999999999999" y2="3" stroke="#000000" stroke-width="0.03125"></line><line x1="5.416666666666666" y1="3" x2="5.416666666666666" y2="4" stroke="#000000" stroke-width="0.03125"></line><line x1="6.499999999999999" y1="3" x2="6.499999999999999" y2="4" stroke="#000000" stroke-width="0.03125"></line><line x1="5.416666666666666" y1="4" x2="6.499999999999999" y2="4" stroke="#000000" stroke-width="0.0625"></line><line x1="5.416666666666666" y1="2.5" x2="5.958333333333333" y2="3.5" stroke="#0000ff" stroke-width="0.0625"></line><line x1="6.5" y1="1.5" x2="5.416666666666666" y2="2.5" stroke="#0000ff" stroke-width="0.0625"></line><line x1="6.5" y1="2" x2="8.666666666666666" y2="2" stroke="#000000" stroke-width="0.03125"></line><line x1="6.5" y1="2" x2="6.5" y2="3" stroke="#000000" stroke-width="0.03125"></line><line x1="8.666666666666666" y1="2" x2="8.666666666666666" y2="3" stroke="#000000" stroke-width="0.03125"></line><line x1="6.5" y1="3" x2="7.583333333333333" y2="3" stroke="#000000" stroke-width="0.03125"></line><line x1="6.5" y1="3" x2="6.5" y2="4" stroke="#000000" stroke-width="0.03125"></line><line x1="7.583333333333333" y1="3" x2="7.583333333333333" y2="4" stroke="#000000" stroke-width="0.03125"></line><line x1="6.5" y1="4" x2="7.583333333333333" y2="4" stroke="#000000" stroke-width="0.0625"></line><line x1="7.583333333333333" y1="2.5" x2="7.041666666666667" y2="3.5" stroke="#0000ff" stroke-width="0.0625"></line><line x1="7.583333333333333" y1="3" x2="8.666666666666666" y2="3" stroke="#000000" stroke-width="0.03125"></line><line x1="7.583333333333333" y1="3" x2="7.583333333333333" y2="4" stroke="#000000" stroke-width="0.03125"></line><line x1="8.666666666666666" y1="3" x2="8.666666666666666" y2="4" stroke="#000000" stroke-width="0.03125"></line><line x1="7.583333333333333" y1="4" x2="8.666666666666666" y2="4" stroke="#000000" stroke-width="0.0625"></line><line x1="7.583333333333333" y1="2.5" x2="8.125" y2="3.5" stroke="#0000ff" stroke-width="0.0625"></line><line x1="6.5" y1="1.5" x2="7.583333333333333" y2="2.5" stroke="#0000ff" stroke-width="0.0625"></line><line x1="8.666666666666666" y1="2" x2="10.833333333333332" y2="2" stroke="#000000" stroke-width="0.03125"></line><line x1="8.666666666666666" y1="2" x2="8.666666666666666" y2="3" stroke="#000000" stroke-width="0.03125"></line><line x1="10.833333333333332" y1="2" x2="10.833333333333332" y2="3" stroke="#000000" stroke-width="0.03125"></line><line x1="8.666666666666666" y1="3" x2="9.75" y2="3" stroke="#000000" stroke-width="0.03125"></line><line x1="8.666666666666666" y1="3" x2="8.666666666666666" y2="4" stroke="#000000" stroke-width="0.03125"></line><line x1="9.75" y1="3" x2="9.75" y2="4" stroke="#000000" stroke-width="0.03125"></line><line x1="8.666666666666666" y1="4" x2="9.75" y2="4" stroke="#000000" stroke-width="0.0625"></line><line x1="9.75" y1="2.5" x2="9.208333333333332" y2="3.5" stroke="#0000ff" stroke-width="0.0625"></line><line x1="9.75" y1="3" x2="10.833333333333334" y2="3" stroke="#000000" stroke-width="0.03125"></line><line x1="9.75" y1="3" x2="9.75" y2="4" stroke="#000000" stroke-width="0.03125"></line><line x1="10.833333333333334" y1="3" x2="10.833333333333334" y2="4" stroke="#000000" stroke-width="0.03125"></line><line x1="9.75" y1="4" x2="10.833333333333334" y2="4" stroke="#000000" stroke-width="0.0625"></line><line x1="9.75" y1="2.5" x2="10.291666666666666" y2="3.5" stroke="#0000ff" stroke-width="0.0625"></line><line x1="6.5" y1="1.5" x2="9.75" y2="2.5" stroke="#0000ff" stroke-width="0.0625"></line><line x1="10.833333333333332" y1="2" x2="12.999999999999998" y2="2" stroke="#000000" stroke-width="0.03125"></line><line x1="10.833333333333332" y1="2" x2="10.833333333333332" y2="3" stroke="#000000" stroke-width="0.03125"></line><line x1="12.999999999999998" y1="2" x2="12.999999999999998" y2="3" stroke="#000000" stroke-width="0.03125"></line><line x1="10.833333333333332" y1="3" x2="11.916666666666666" y2="3" stroke="#000000" stroke-width="0.03125"></line><line x1="10.833333333333332" y1="3" x2="10.833333333333332" y2="4" stroke="#000000" stroke-width="0.03125"></line><line x1="11.916666666666666" y1="3" x2="11.916666666666666" y2="4" stroke="#000000" stroke-width="0.03125"></line><line x1="10.833333333333332" y1="4" x2="11.916666666666666" y2="4" stroke="#000000" stroke-width="0.0625"></line><line x1="11.916666666666666" y1="2.5" x2="11.374999999999998" y2="3.5" stroke="#0000ff" stroke-width="0.0625"></line><line x1="11.916666666666666" y1="3" x2="13.0" y2="3" stroke="#000000" stroke-width="0.03125"></line><line x1="11.916666666666666" y1="3" x2="11.916666666666666" y2="4" stroke="#000000" stroke-width="0.03125"></line><line x1="13.0" y1="3" x2="13.0" y2="4" stroke="#000000" stroke-width="0.03125"></line><line x1="11.916666666666666" y1="4" x2="13.0" y2="4" stroke="#000000" stroke-width="0.0625"></line><line x1="11.916666666666666" y1="2.5" x2="12.458333333333332" y2="3.5" stroke="#0000ff" stroke-width="0.0625"></line><line x1="6.5" y1="1.5" x2="11.916666666666666" y2="2.5" stroke="#0000ff" stroke-width="0.0625"></line><line x1="19.5" y1="0.5" x2="6.5" y2="1.5" stroke="#0000ff" stroke-width="0.0625"></line><line x1="13.0" y1="1" x2="26.0" y2="1" stroke="#000000" stroke-width="0.03125"></line><line x1="13.0" y1="1" x2="13.0" y2="2" stroke="#000000" stroke-width="0.03125"></line><line x1="26.0" y1="1" x2="26.0" y2="2" stroke="#000000" stroke-width="0.03125"></line><line x1="13.0" y1="2" x2="15.6" y2="2" stroke="#000000" stroke-width="0.03125"></line><line x1="13.0" y1="2" x2="13.0" y2="3" stroke="#000000" stroke-width="0.03125"></line><line x1="15.6" y1="2" x2="15.6" y2="3" stroke="#000000" stroke-width="0.03125"></line><line x1="13.0" y1="3" x2="13.65" y2="3" stroke="#000000" stroke-width="0.03125"></line><line x1="13.0" y1="3" x2="13.0" y2="4" stroke="#000000" stroke-width="0.03125"></line><line x1="13.65" y1="3" x2="13.65" y2="4" stroke="#000000" stroke-width="0.03125"></line><line x1="13.0" y1="4" x2="13.65" y2="4" stroke="#000000" stroke-width="0.0625"></line><line x1="14.3" y1="2.5" x2="13.325" y2="3.5" stroke="#0000ff" stroke-width="0.0625"></line><line x1="13.65" y1="3" x2="14.3" y2="3" stroke="#000000" stroke-width="0.03125"></line><line x1="13.65" y1="3" x2="13.65" y2="4" stroke="#000000" stroke-width="0.03125"></line><line x1="14.3" y1="3" x2="14.3" y2="4" stroke="#000000" stroke-width="0.03125"></line><line x1="13.65" y1="4" x2="14.3" y2="4" stroke="#000000" stroke-width="0.0625"></line><line x1="14.3" y1="2.5" x2="13.975" y2="3.5" stroke="#0000ff" stroke-width="0.0625"></line><line x1="14.3" y1="3" x2="14.950000000000001" y2="3" stroke="#000000" stroke-width="0.03125"></line><line x1="14.3" y1="3" x2="14.3" y2="4" stroke="#000000" stroke-width="0.03125"></line><line x1="14.950000000000001" y1="3" x2="14.950000000000001" y2="4" stroke="#000000" stroke-width="0.03125"></line><line x1="14.3" y1="4" x2="14.950000000000001" y2="4" stroke="#000000" stroke-width="0.0625"></line><line x1="14.3" y1="2.5" x2="14.625" y2="3.5" stroke="#0000ff" stroke-width="0.0625"></line><line x1="14.95" y1="3" x2="15.6" y2="3" stroke="#000000" stroke-width="0.03125"></line><line x1="14.95" y1="3" x2="14.95" y2="4" stroke="#000000" stroke-width="0.03125"></line><line x1="15.6" y1="3" x2="15.6" y2="4" stroke="#000000" stroke-width="0.03125"></line><line x1="14.95" y1="4" x2="15.6" y2="4" stroke="#000000" stroke-width="0.0625"></line><line x1="14.3" y1="2.5" x2="15.274999999999999" y2="3.5" stroke="#0000ff" stroke-width="0.0625"></line><line x1="19.5" y1="1.5" x2="14.3" y2="2.5" stroke="#0000ff" stroke-width="0.0625"></line><line x1="15.6" y1="2" x2="18.2" y2="2" stroke="#000000" stroke-width="0.03125"></line><line x1="15.6" y1="2" x2="15.6" y2="3" stroke="#000000" stroke-width="0.03125"></line><line x1="18.2" y1="2" x2="18.2" y2="3" stroke="#000000" stroke-width="0.03125"></line><line x1="15.6" y1="3" x2="16.9" y2="3" stroke="#000000" stroke-width="0.03125"></line><line x1="15.6" y1="3" x2="15.6" y2="4" stroke="#000000" stroke-width="0.03125"></line><line x1="16.9" y1="3" x2="16.9" y2="4" stroke="#000000" stroke-width="0.03125"></line><line x1="15.6" y1="4" x2="16.9" y2="4" stroke="#000000" stroke-width="0.0625"></line><line x1="16.9" y1="2.5" x2="16.25" y2="3.5" stroke="#0000ff" stroke-width="0.0625"></line><line x1="16.9" y1="3" x2="18.2" y2="3" stroke="#000000" stroke-width="0.03125"></line><line x1="16.9" y1="3" x2="16.9" y2="4" stroke="#000000" stroke-width="0.03125"></line><line x1="18.2" y1="3" x2="18.2" y2="4" stroke="#000000" stroke-width="0.03125"></line><line x1="16.9" y1="4" x2="18.2" y2="4" stroke="#000000" stroke-width="0.0625"></line><line x1="16.9" y1="2.5" x2="17.549999999999997" y2="3.5" stroke="#0000ff" stroke-width="0.0625"></line><line x1="19.5" y1="1.5" x2="16.9" y2="2.5" stroke="#0000ff" stroke-width="0.0625"></line><line x1="18.2" y1="2" x2="20.8" y2="2" stroke="#000000" stroke-width="0.03125"></line><line x1="18.2" y1="2" x2="18.2" y2="3" stroke="#000000" stroke-width="0.03125"></line><line x1="20.8" y1="2" x2="20.8" y2="3" stroke="#000000" stroke-width="0.03125"></line><line x1="18.2" y1="3" x2="19.066666666666666" y2="3" stroke="#000000" stroke-width="0.03125"></line><line x1="18.2" y1="3" x2="18.2" y2="4" stroke="#000000" stroke-width="0.03125"></line><line x1="19.066666666666666" y1="3" x2="19.066666666666666" y2="4" stroke="#000000" stroke-width="0.03125"></line><line x1="18.2" y1="4" x2="19.066666666666666" y2="4" stroke="#000000" stroke-width="0.0625"></line><line x1="19.5" y1="2.5" x2="18.633333333333333" y2="3.5" stroke="#0000ff" stroke-width="0.0625"></line><line x1="19.066666666666666" y1="3" x2="19.933333333333334" y2="3" stroke="#000000" stroke-width="0.03125"></line><line x1="19.066666666666666" y1="3" x2="19.066666666666666" y2="4" stroke="#000000" stroke-width="0.03125"></line><line x1="19.933333333333334" y1="3" x2="19.933333333333334" y2="4" stroke="#000000" stroke-width="0.03125"></line><line x1="19.066666666666666" y1="4" x2="19.933333333333334" y2="4" stroke="#000000" stroke-width="0.0625"></line><line x1="19.5" y1="2.5" x2="19.5" y2="3.5" stroke="#0000ff" stroke-width="0.0625"></line><line x1="19.933333333333334" y1="3" x2="20.8" y2="3" stroke="#000000" stroke-width="0.03125"></line><line x1="19.933333333333334" y1="3" x2="19.933333333333334" y2="4" stroke="#000000" stroke-width="0.03125"></line><line x1="20.8" y1="3" x2="20.8" y2="4" stroke="#000000" stroke-width="0.03125"></line><line x1="19.933333333333334" y1="4" x2="20.8" y2="4" stroke="#000000" stroke-width="0.0625"></line><line x1="19.5" y1="2.5" x2="20.366666666666667" y2="3.5" stroke="#0000ff" stroke-width="0.0625"></line><line x1="19.5" y1="1.5" x2="19.5" y2="2.5" stroke="#0000ff" stroke-width="0.0625"></line><line x1="20.8" y1="2" x2="23.400000000000002" y2="2" stroke="#000000" stroke-width="0.03125"></line><line x1="20.8" y1="2" x2="20.8" y2="3" stroke="#000000" stroke-width="0.03125"></line><line x1="23.400000000000002" y1="2" x2="23.400000000000002" y2="3" stroke="#000000" stroke-width="0.03125"></line><line x1="20.8" y1="3" x2="22.1" y2="3" stroke="#000000" stroke-width="0.03125"></line><line x1="20.8" y1="3" x2="20.8" y2="4" stroke="#000000" stroke-width="0.03125"></line><line x1="22.1" y1="3" x2="22.1" y2="4" stroke="#000000" stroke-width="0.03125"></line><line x1="20.8" y1="4" x2="22.1" y2="4" stroke="#000000" stroke-width="0.0625"></line><line x1="22.1" y1="2.5" x2="21.45" y2="3.5" stroke="#0000ff" stroke-width="0.0625"></line><line x1="22.1" y1="3" x2="23.400000000000002" y2="3" stroke="#000000" stroke-width="0.03125"></line><line x1="22.1" y1="3" x2="22.1" y2="4" stroke="#000000" stroke-width="0.03125"></line><line x1="23.400000000000002" y1="3" x2="23.400000000000002" y2="4" stroke="#000000" stroke-width="0.03125"></line><line x1="22.1" y1="4" x2="23.400000000000002" y2="4" stroke="#000000" stroke-width="0.0625"></line><line x1="22.1" y1="2.5" x2="22.75" y2="3.5" stroke="#0000ff" stroke-width="0.0625"></line><line x1="19.5" y1="1.5" x2="22.1" y2="2.5" stroke="#0000ff" stroke-width="0.0625"></line><line x1="23.4" y1="2" x2="26.0" y2="2" stroke="#000000" stroke-width="0.03125"></line><line x1="23.4" y1="2" x2="23.4" y2="3" stroke="#000000" stroke-width="0.03125"></line><line x1="26.0" y1="2" x2="26.0" y2="3" stroke="#000000" stroke-width="0.03125"></line><line x1="23.4" y1="3" x2="24.049999999999997" y2="3" stroke="#000000" stroke-width="0.03125"></line><line x1="23.4" y1="3" x2="23.4" y2="4" stroke="#000000" stroke-width="0.03125"></line><line x1="24.049999999999997" y1="3" x2="24.049999999999997" y2="4" stroke="#000000" stroke-width="0.03125"></line><line x1="23.4" y1="4" x2="24.049999999999997" y2="4" stroke="#000000" stroke-width="0.0625"></line><line x1="24.7" y1="2.5" x2="23.724999999999998" y2="3.5" stroke="#0000ff" stroke-width="0.0625"></line><line x1="24.049999999999997" y1="3" x2="24.699999999999996" y2="3" stroke="#000000" stroke-width="0.03125"></line><line x1="24.049999999999997" y1="3" x2="24.049999999999997" y2="4" stroke="#000000" stroke-width="0.03125"></line><line x1="24.699999999999996" y1="3" x2="24.699999999999996" y2="4" stroke="#000000" stroke-width="0.03125"></line><line x1="24.049999999999997" y1="4" x2="24.699999999999996" y2="4" stroke="#000000" stroke-width="0.0625"></line><line x1="24.7" y1="2.5" x2="24.374999999999996" y2="3.5" stroke="#0000ff" stroke-width="0.0625"></line><line x1="24.7" y1="3" x2="25.349999999999998" y2="3" stroke="#000000" stroke-width="0.03125"></line><line x1="24.7" y1="3" x2="24.7" y2="4" stroke="#000000" stroke-width="0.03125"></line><line x1="25.349999999999998" y1="3" x2="25.349999999999998" y2="4" stroke="#000000" stroke-width="0.03125"></line><line x1="24.7" y1="4" x2="25.349999999999998" y2="4" stroke="#000000" stroke-width="0.0625"></line><line x1="24.7" y1="2.5" x2="25.025" y2="3.5" stroke="#0000ff" stroke-width="0.0625"></line><line x1="25.349999999999998" y1="3" x2="25.999999999999996" y2="3" stroke="#000000" stroke-width="0.03125"></line><line x1="25.349999999999998" y1="3" x2="25.349999999999998" y2="4" stroke="#000000" stroke-width="0.03125"></line><line x1="25.999999999999996" y1="3" x2="25.999999999999996" y2="4" stroke="#000000" stroke-width="0.03125"></line><line x1="25.349999999999998" y1="4" x2="25.999999999999996" y2="4" stroke="#000000" stroke-width="0.0625"></line><line x1="24.7" y1="2.5" x2="25.674999999999997" y2="3.5" stroke="#0000ff" stroke-width="0.0625"></line><line x1="19.5" y1="1.5" x2="24.7" y2="2.5" stroke="#0000ff" stroke-width="0.0625"></line><line x1="19.5" y1="0.5" x2="19.5" y2="1.5" stroke="#0000ff" stroke-width="0.0625"></line><line x1="26.0" y1="1" x2="39.0" y2="1" stroke="#000000" stroke-width="0.03125"></line><line x1="26.0" y1="1" x2="26.0" y2="2" stroke="#000000" stroke-width="0.03125"></line><line x1="39.0" y1="1" x2="39.0" y2="2" stroke="#000000" stroke-width="0.03125"></line><line x1="26.0" y1="2" x2="29.25" y2="2" stroke="#000000" stroke-width="0.03125"></line><line x1="26.0" y1="2" x2="26.0" y2="3" stroke="#000000" stroke-width="0.03125"></line><line x1="29.25" y1="2" x2="29.25" y2="3" stroke="#000000" stroke-width="0.03125"></line><line x1="26.0" y1="3" x2="27.083333333333332" y2="3" stroke="#000000" stroke-width="0.03125"></line><line x1="26.0" y1="3" x2="26.0" y2="4" stroke="#000000" stroke-width="0.03125"></line><line x1="27.083333333333332" y1="3" x2="27.083333333333332" y2="4" stroke="#000000" stroke-width="0.03125"></line><line x1="26.0" y1="4" x2="27.083333333333332" y2="4" stroke="#000000" stroke-width="0.0625"></line><line x1="27.625" y1="2.5" x2="26.541666666666668" y2="3.5" stroke="#0000ff" stroke-width="0.0625"></line><line x1="27.083333333333332" y1="3" x2="28.166666666666664" y2="3" stroke="#000000" stroke-width="0.03125"></line><line x1="27.083333333333332" y1="3" x2="27.083333333333332" y2="4" stroke="#000000" stroke-width="0.03125"></line><line x1="28.166666666666664" y1="3" x2="28.166666666666664" y2="4" stroke="#000000" stroke-width="0.03125"></line><line x1="27.083333333333332" y1="4" x2="28.166666666666664" y2="4" stroke="#000000" stroke-width="0.0625"></line><line x1="27.625" y1="2.5" x2="27.625" y2="3.5" stroke="#0000ff" stroke-width="0.0625"></line><line x1="28.166666666666668" y1="3" x2="29.25" y2="3" stroke="#000000" stroke-width="0.03125"></line><line x1="28.166666666666668" y1="3" x2="28.166666666666668" y2="4" stroke="#000000" stroke-width="0.03125"></line><line x1="29.25" y1="3" x2="29.25" y2="4" stroke="#000000" stroke-width="0.03125"></line><line x1="28.166666666666668" y1="4" x2="29.25" y2="4" stroke="#000000" stroke-width="0.0625"></line><line x1="27.625" y1="2.5" x2="28.708333333333336" y2="3.5" stroke="#0000ff" stroke-width="0.0625"></line><line x1="32.5" y1="1.5" x2="27.625" y2="2.5" stroke="#0000ff" stroke-width="0.0625"></line><line x1="29.25" y1="2" x2="32.5" y2="2" stroke="#000000" stroke-width="0.03125"></line><line x1="29.25" y1="2" x2="29.25" y2="3" stroke="#000000" stroke-width="0.03125"></line><line x1="32.5" y1="2" x2="32.5" y2="3" stroke="#000000" stroke-width="0.03125"></line><line x1="29.25" y1="3" x2="30.333333333333332" y2="3" stroke="#000000" stroke-width="0.03125"></line><line x1="29.25" y1="3" x2="29.25" y2="4" stroke="#000000" stroke-width="0.03125"></line><line x1="30.333333333333332" y1="3" x2="30.333333333333332" y2="4" stroke="#000000" stroke-width="0.03125"></line><line x1="29.25" y1="4" x2="30.333333333333332" y2="4" stroke="#000000" stroke-width="0.0625"></line><line x1="30.875" y1="2.5" x2="29.791666666666668" y2="3.5" stroke="#0000ff" stroke-width="0.0625"></line><line x1="30.333333333333332" y1="3" x2="31.416666666666664" y2="3" stroke="#000000" stroke-width="0.03125"></line><line x1="30.333333333333332" y1="3" x2="30.333333333333332" y2="4" stroke="#000000" stroke-width="0.03125"></line><line x1="31.416666666666664" y1="3" x2="31.416666666666664" y2="4" stroke="#000000" stroke-width="0.03125"></line><line x1="30.333333333333332" y1="4" x2="31.416666666666664" y2="4" stroke="#000000" stroke-width="0.0625"></line><line x1="30.875" y1="2.5" x2="30.875" y2="3.5" stroke="#0000ff" stroke-width="0.0625"></line><line x1="31.416666666666668" y1="3" x2="32.5" y2="3" stroke="#000000" stroke-width="0.03125"></line><line x1="31.416666666666668" y1="3" x2="31.416666666666668" y2="4" stroke="#000000" stroke-width="0.03125"></line><line x1="32.5" y1="3" x2="32.5" y2="4" stroke="#000000" stroke-width="0.03125"></line><line x1="31.416666666666668" y1="4" x2="32.5" y2="4" stroke="#000000" stroke-width="0.0625"></line><line x1="30.875" y1="2.5" x2="31.958333333333336" y2="3.5" stroke="#0000ff" stroke-width="0.0625"></line><line x1="32.5" y1="1.5" x2="30.875" y2="2.5" stroke="#0000ff" stroke-width="0.0625"></line><line x1="32.5" y1="2" x2="35.75" y2="2" stroke="#000000" stroke-width="0.03125"></line><line x1="32.5" y1="2" x2="32.5" y2="3" stroke="#000000" stroke-width="0.03125"></line><line x1="35.75" y1="2" x2="35.75" y2="3" stroke="#000000" stroke-width="0.03125"></line><line x1="32.5" y1="3" x2="33.583333333333336" y2="3" stroke="#000000" stroke-width="0.03125"></line><line x1="32.5" y1="3" x2="32.5" y2="4" stroke="#000000" stroke-width="0.03125"></line><line x1="33.583333333333336" y1="3" x2="33.583333333333336" y2="4" stroke="#000000" stroke-width="0.03125"></line><line x1="32.5" y1="4" x2="33.583333333333336" y2="4" stroke="#000000" stroke-width="0.0625"></line><line x1="34.125" y1="2.5" x2="33.041666666666664" y2="3.5" stroke="#0000ff" stroke-width="0.0625"></line><line x1="33.583333333333336" y1="3" x2="34.66666666666667" y2="3" stroke="#000000" stroke-width="0.03125"></line><line x1="33.583333333333336" y1="3" x2="33.583333333333336" y2="4" stroke="#000000" stroke-width="0.03125"></line><line x1="34.66666666666667" y1="3" x2="34.66666666666667" y2="4" stroke="#000000" stroke-width="0.03125"></line><line x1="33.583333333333336" y1="4" x2="34.66666666666667" y2="4" stroke="#000000" stroke-width="0.0625"></line><line x1="34.125" y1="2.5" x2="34.125" y2="3.5" stroke="#0000ff" stroke-width="0.0625"></line><line x1="34.666666666666664" y1="3" x2="35.75" y2="3" stroke="#000000" stroke-width="0.03125"></line><line x1="34.666666666666664" y1="3" x2="34.666666666666664" y2="4" stroke="#000000" stroke-width="0.03125"></line><line x1="35.75" y1="3" x2="35.75" y2="4" stroke="#000000" stroke-width="0.03125"></line><line x1="34.666666666666664" y1="4" x2="35.75" y2="4" stroke="#000000" stroke-width="0.0625"></line><line x1="34.125" y1="2.5" x2="35.20833333333333" y2="3.5" stroke="#0000ff" stroke-width="0.0625"></line><line x1="32.5" y1="1.5" x2="34.125" y2="2.5" stroke="#0000ff" stroke-width="0.0625"></line><line x1="35.75" y1="2" x2="39.0" y2="2" stroke="#000000" stroke-width="0.03125"></line><line x1="35.75" y1="2" x2="35.75" y2="3" stroke="#000000" stroke-width="0.03125"></line><line x1="39.0" y1="2" x2="39.0" y2="3" stroke="#000000" stroke-width="0.03125"></line><line x1="35.75" y1="3" x2="36.833333333333336" y2="3" stroke="#000000" stroke-width="0.03125"></line><line x1="35.75" y1="3" x2="35.75" y2="4" stroke="#000000" stroke-width="0.03125"></line><line x1="36.833333333333336" y1="3" x2="36.833333333333336" y2="4" stroke="#000000" stroke-width="0.03125"></line><line x1="35.75" y1="4" x2="36.833333333333336" y2="4" stroke="#000000" stroke-width="0.0625"></line><line x1="37.375" y1="2.5" x2="36.291666666666664" y2="3.5" stroke="#0000ff" stroke-width="0.0625"></line><line x1="36.833333333333336" y1="3" x2="37.91666666666667" y2="3" stroke="#000000" stroke-width="0.03125"></line><line x1="36.833333333333336" y1="3" x2="36.833333333333336" y2="4" stroke="#000000" stroke-width="0.03125"></line><line x1="37.91666666666667" y1="3" x2="37.91666666666667" y2="4" stroke="#000000" stroke-width="0.03125"></line><line x1="36.833333333333336" y1="4" x2="37.91666666666667" y2="4" stroke="#000000" stroke-width="0.0625"></line><line x1="37.375" y1="2.5" x2="37.375" y2="3.5" stroke="#0000ff" stroke-width="0.0625"></line><line x1="37.916666666666664" y1="3" x2="39.0" y2="3" stroke="#000000" stroke-width="0.03125"></line><line x1="37.916666666666664" y1="3" x2="37.916666666666664" y2="4" stroke="#000000" stroke-width="0.03125"></line><line x1="39.0" y1="3" x2="39.0" y2="4" stroke="#000000" stroke-width="0.03125"></line><line x1="37.916666666666664" y1="4" x2="39.0" y2="4" stroke="#000000" stroke-width="0.0625"></line><line x1="37.375" y1="2.5" x2="38.45833333333333" y2="3.5" stroke="#0000ff" stroke-width="0.0625"></line><line x1="32.5" y1="1.5" x2="37.375" y2="2.5" stroke="#0000ff" stroke-width="0.0625"></line><line x1="19.5" y1="0.5" x2="32.5" y2="1.5" stroke="#0000ff" stroke-width="0.0625"></line><circle cx="19.5" cy="0.5" r="0.0625" fill="#ff0000"></circle><circle cx="6.5" cy="1.5" r="0.0625" fill="#ff0000"></circle><circle cx="1.0833333333333333" cy="2.5" r="0.0625" fill="#ff0000"></circle><circle cx="0.5416666666666666" cy="3.5" r="0.0625" fill="#ff0000"></circle><circle cx="1.625" cy="3.5" r="0.0625" fill="#ff0000"></circle><circle cx="3.25" cy="2.5" r="0.0625" fill="#ff0000"></circle><circle cx="2.708333333333333" cy="3.5" r="0.0625" fill="#ff0000"></circle><circle cx="3.7916666666666665" cy="3.5" r="0.0625" fill="#ff0000"></circle><circle cx="5.416666666666666" cy="2.5" r="0.0625" fill="#ff0000"></circle><circle cx="4.875" cy="3.5" r="0.0625" fill="#ff0000"></circle><circle cx="5.958333333333333" cy="3.5" r="0.0625" fill="#ff0000"></circle><circle cx="7.583333333333333" cy="2.5" r="0.0625" fill="#ff0000"></circle><circle cx="7.041666666666667" cy="3.5" r="0.0625" fill="#ff0000"></circle><circle cx="8.125" cy="3.5" r="0.0625" fill="#ff0000"></circle><circle cx="9.75" cy="2.5" r="0.0625" fill="#ff0000"></circle><circle cx="9.208333333333332" cy="3.5" r="0.0625" fill="#ff0000"></circle><circle cx="10.291666666666666" cy="3.5" r="0.0625" fill="#ff0000"></circle><circle cx="11.916666666666666" cy="2.5" r="0.0625" fill="#ff0000"></circle><circle cx="11.374999999999998" cy="3.5" r="0.0625" fill="#ff0000"></circle><circle cx="12.458333333333332" cy="3.5" r="0.0625" fill="#ff0000"></circle><circle cx="19.5" cy="1.5" r="0.0625" fill="#ff0000"></circle><circle cx="14.3" cy="2.5" r="0.0625" fill="#ff0000"></circle><circle cx="13.325" cy="3.5" r="0.0625" fill="#ff0000"></circle><circle cx="13.975" cy="3.5" r="0.0625" fill="#ff0000"></circle><circle cx="14.625" cy="3.5" r="0.0625" fill="#ff0000"></circle><circle cx="15.274999999999999" cy="3.5" r="0.0625" fill="#ff0000"></circle><circle cx="16.9" cy="2.5" r="0.0625" fill="#ff0000"></circle><circle cx="16.25" cy="3.5" r="0.0625" fill="#ff0000"></circle><circle cx="17.549999999999997" cy="3.5" r="0.0625" fill="#ff0000"></circle><circle cx="19.5" cy="2.5" r="0.0625" fill="#ff0000"></circle><circle cx="18.633333333333333" cy="3.5" r="0.0625" fill="#ff0000"></circle><circle cx="19.5" cy="3.5" r="0.0625" fill="#ff0000"></circle><circle cx="20.366666666666667" cy="3.5" r="0.0625" fill="#ff0000"></circle><circle cx="22.1" cy="2.5" r="0.0625" fill="#ff0000"></circle><circle cx="21.45" cy="3.5" r="0.0625" fill="#ff0000"></circle><circle cx="22.75" cy="3.5" r="0.0625" fill="#ff0000"></circle><circle cx="24.7" cy="2.5" r="0.0625" fill="#ff0000"></circle><circle cx="23.724999999999998" cy="3.5" r="0.0625" fill="#ff0000"></circle><circle cx="24.374999999999996" cy="3.5" r="0.0625" fill="#ff0000"></circle><circle cx="25.025" cy="3.5" r="0.0625" fill="#ff0000"></circle><circle cx="25.674999999999997" cy="3.5" r="0.0625" fill="#ff0000"></circle><circle cx="32.5" cy="1.5" r="0.0625" fill="#ff0000"></circle><circle cx="27.625" cy="2.5" r="0.0625" fill="#ff0000"></circle><circle cx="26.541666666666668" cy="3.5" r="0.0625" fill="#ff0000"></circle><circle cx="27.625" cy="3.5" r="0.0625" fill="#ff0000"></circle><circle cx="28.708333333333336" cy="3.5" r="0.0625" fill="#ff0000"></circle><circle cx="30.875" cy="2.5" r="0.0625" fill="#ff0000"></circle><circle cx="29.791666666666668" cy="3.5" r="0.0625" fill="#ff0000"></circle><circle cx="30.875" cy="3.5" r="0.0625" fill="#ff0000"></circle><circle cx="31.958333333333336" cy="3.5" r="0.0625" fill="#ff0000"></circle><circle cx="34.125" cy="2.5" r="0.0625" fill="#ff0000"></circle><circle cx="33.041666666666664" cy="3.5" r="0.0625" fill="#ff0000"></circle><circle cx="34.125" cy="3.5" r="0.0625" fill="#ff0000"></circle><circle cx="35.20833333333333" cy="3.5" r="0.0625" fill="#ff0000"></circle><circle cx="37.375" cy="2.5" r="0.0625" fill="#ff0000"></circle><circle cx="36.291666666666664" cy="3.5" r="0.0625" fill="#ff0000"></circle><circle cx="37.375" cy="3.5" r="0.0625" fill="#ff0000"></circle><circle cx="38.45833333333333" cy="3.5" r="0.0625" fill="#ff0000"></circle></g><use href="#graph" y="4.0" transform=" translate(0, 4.0) rotate(180, 19.5, 4.0)"></use></svg>