<svg width="13cm" height="12cm" viewBox="0, 0, 13, 12" version="1.1" xmlns="http://www.w3.org/2000/svg"><g id="graph"><line x1="0" y1="0" x2="13" y2="0" stroke="#000000" stroke-width="0.03125"></line><line x1="0" y1="0" x2="0" y2="1" stroke="#000000" stroke-width="0.03125"></line><line x1="13" y1="0" x2="13" y2="1" stroke="#000000" stroke-width="0.03125"></line><line x1="0" y1="1" x2="6.5" y2="1" stroke="#000000" stroke-width="0.03125"></line><line x1="0" y1="1" x2="0" y2="2" stroke="#000000" stroke-width="0.03125"></line><line x1="6.5" y1="1" x2="6.5" y2="2" stroke="#000000" stroke-width="0.03125"></line><line x1="0" y1="2" x2="3.25" y2="2" stroke="#000000" stroke-width="0.03125"></line><line x1="0" y1="2" x2="0" y2="3" stroke="#000000" stroke-width="0.03125"></line><line x1="3.25" y1="2" x2="3.25" y2="3" stroke="#000000" stroke-width="0.03125"></line><line x1="0" y1="3" x2="1.625" y2="3" stroke="#000000" stroke-width="0.03125"></line><line x1="0" y1="3" x2="0" y2="4" stroke="#000000" stroke-width="0.03125"></line><line x1="1.625" y1="3" x2="1.625" y2="4" stroke="#000000" stroke-width="0.03125"></line><line x1="0" y1="4" x2="0.8125" y2="4" stroke="#000000" stroke-width="0.03125"></line><line x1="0" y1="4" x2="0" y2="5" stroke="#000000" stroke-width="0.03125"></line><line x1="0.8125" y1="4" x2="0.8125" y2="5" stroke="#000000" stroke-width="0.03125"></line><line x1="0" y1="5" x2="0.40625" y2="5" stroke="#000000" stroke-width="0.03125"></line><line x1="0" y1="5" x2="0" y2="6" stroke="#000000" stroke-width="0.03125"></line><line x1="0.40625" y1="5" x2="0.40625" y2="6" stroke="#000000" stroke-width="0.03125"></line><line x1="0" y1="6" x2="0.40625" y2="6" stroke="#000000" stroke-width="0.0625"></line><line x1="0.40625" y1="4.5" x2="0.203125" y2="5.5" stroke="#0000ff" stroke-width="0.0625"></line><line x1="0.40625" y1="5" x2="0.8125" y2="5" stroke="#000000" stroke-width="0.03125"></line><line x1="0.40625" y1="5" x2="0.40625" y2="6" stroke="#000000" stroke-width="0.03125"></line><line x1="0.8125" y1="5" x2="0.8125" y2="6" stroke="#000000" stroke-width="0.03125"></line><line x1="0.40625" y1="6" x2="0.8125" y2="6" stroke="#000000" stroke-width="0.0625"></line><line x1="0.40625" y1="4.5" x2="0.609375" y2="5.5" stroke="#0000ff" stroke-width="0.0625"></line><line x1="0.8125" y1="3.5" x2="0.40625" y2="4.5" stroke="#0000ff" stroke-width="0.0625"></line><line x1="0.8125" y1="4" x2="1.625" y2="4" stroke="#000000" stroke-width="0.03125"></line><line x1="0.8125" y1="4" x2="0.8125" y2="6" stroke="#000000" stroke-width="0.03125"></line><line x1="1.625" y1="4" x2="1.625" y2="6" stroke="#000000" stroke-width="0.03125"></line><line x1="0.8125" y1="6" x2="1.625" y2="6" stroke="#000000" stroke-width="0.0625"></line><line x1="0.8125" y1="3.5" x2="1.21875" y2="4.5" stroke="#0000ff" stroke-width="0.0625"></line><line x1="1.625" y1="2.5" x2="0.8125" y2="3.5" stroke="#0000ff" stroke-width="0.0625"></line><line x1="1.625" y1="3" x2="3.25" y2="3" stroke="#000000" stroke-width="0.03125"></line><line x1="1.625" y1="3" x2="1.625" y2="4" stroke="#000000" stroke-width="0.03125"></line><line x1="3.25" y1="3" x2="3.25" y2="4" stroke="#000000" stroke-width="0.03125"></line><line x1="1.625" y1="4" x2="2.4375" y2="4" stroke="#000000" stroke-width="0.03125"></line><line x1="1.625" y1="4" x2="1.625" y2="6" stroke="#000000" stroke-width="0.03125"></line><line x1="2.4375" y1="4" x2="2.4375" y2="6" stroke="#000000" stroke-width="0.03125"></line><line x1="1.625" y1="6" x2="2.4375" y2="6" stroke="#000000" stroke-width="0.0625"></line><line x1="2.4375" y1="3.5" x2="2.03125" y2="4.5" stroke="#0000ff" stroke-width="0.0625"></line><line x1="2.4375" y1="4" x2="3.25" y2="4" stroke="#000000" stroke-width="0.03125"></line><line x1="2.4375" y1="4" x2="2.4375" y2="6" stroke="#000000" stroke-width="0.03125"></line><line x1="3.25" y1="4" x2="3.25" y2="6" stroke="#000000" stroke-width="0.03125"></line><line x1="2.4375" y1="6" x2="3.25" y2="6" stroke="#000000" stroke-width="0.0625"></line><line x1="2.4375" y1="3.5" x2="2.84375" y2="4.5" stroke="#0000ff" stroke-width="0.0625"></line><line x1="1.625" y1="2.5" x2="2.4375" y2="3.5" stroke="#0000ff" stroke-width="0.0625"></line><line x1="3.25" y1="1.5" x2="1.625" y2="2.5" stroke="#0000ff" stroke-width="0.0625"></line><line x1="3.25" y1="2" x2="6.5" y2="2" stroke="#000000" stroke-width="0.03125"></line><line x1="3.25" y1="2" x2="3.25" y2="3" stroke="#000000" stroke-width="0.03125"></line><line x1="6.5" y1="2" x2="6.5" y2="3" stroke="#000000" stroke-width="0.03125"></line><line x1="3.25" y1="3" x2="4.333333333333333" y2="3" stroke="#000000" stroke-width="0.03125"></line><line x1="3.25" y1="3" x2="3.25" y2="4" stroke="#000000" stroke-width="0.03125"></line><line x1="4.333333333333333" y1="3" x2="4.333333333333333" y2="4" stroke="#000000" stroke-width="0.03125"></line><line x1="3.25" y1="4" x2="4.333333333333333" y2="4" stroke="#000000" stroke-width="0.03125"></line><line x1="3.25" y1="4" x2="3.25" y2="6" stroke="#000000" stroke-width="0.03125"></line><line x1="4.333333333333333" y1="4" x2="4.333333333333333" y2="6" stroke="#000000" stroke-width="0.03125"></line><line x1="3.25" y1="6" x2="4.333333333333333" y2="6" stroke="#000000" stroke-width="0.0625"></line><line x1="3.7916666666666665" y1="3.5" x2="3.7916666666666665" y2="4.5" stroke="#0000ff" stroke-width="0.0625"></line><line x1="4.875" y1="2.5" x2="3.7916666666666665" y2="3.5" stroke="#0000ff" stroke-width="0.0625"></line><line x1="4.333333333333333" y1="3" x2="5.416666666666666" y2="3" stroke="#000000" stroke-width="0.03125"></line><line x1="4.333333333333333" y1="3" x2="4.333333333333333" y2="4" stroke="#000000" stroke-width="0.03125"></line><line x1="5.416666666666666" y1="3" x2="5.416666666666666" y2="4" stroke="#000000" stroke-width="0.03125"></line><line x1="4.333333333333333" y1="4" x2="4.875" y2="4" stroke="#000000" stroke-width="0.03125"></line><line x1="4.333333333333333" y1="4" x2="4.333333333333333" y2="6" stroke="#000000" stroke-width="0.03125"></line><line x1="4.875" y1="4" x2="4.875" y2="6" stroke="#000000" stroke-width="0.03125"></line><line x1="4.333333333333333" y1="6" x2="4.875" y2="6" stroke="#000000" stroke-width="0.0625"></line><line x1="4.875" y1="3.5" x2="4.604166666666666" y2="4.5" stroke="#0000ff" stroke-width="0.0625"></line><line x1="4.875" y1="4" x2="5.416666666666667" y2="4" stroke="#000000" stroke-width="0.03125"></line><line x1="4.875" y1="4" x2="4.875" y2="6" stroke="#000000" stroke-width="0.03125"></line><line x1="5.416666666666667" y1="4" x2="5.416666666666667" y2="6" stroke="#000000" stroke-width="0.03125"></line><line x1="4.875" y1="6" x2="5.416666666666667" y2="6" stroke="#000000" stroke-width="0.0625"></line><line x1="4.875" y1="3.5" x2="5.145833333333333" y2="4.5" stroke="#0000ff" stroke-width="0.0625"></line><line x1="4.875" y1="2.5" x2="4.875" y2="3.5" stroke="#0000ff" stroke-width="0.0625"></line><line x1="5.416666666666666" y1="3" x2="6.499999999999999" y2="3" stroke="#000000" stroke-width="0.03125"></line><line x1="5.416666666666666" y1="3" x2="5.416666666666666" y2="4" stroke="#000000" stroke-width="0.03125"></line><line x1="6.499999999999999" y1="3" x2="6.499999999999999" y2="4" stroke="#000000" stroke-width="0.03125"></line><line x1="5.416666666666666" y1="4" x2="5.958333333333333" y2="4" stroke="#000000" stroke-width="0.03125"></line><line x1="5.416666666666666" y1="4" x2="5.416666666666666" y2="6" stroke="#000000" stroke-width="0.03125"></line><line x1="5.958333333333333" y1="4" x2="5.958333333333333" y2="6" stroke="#000000" stroke-width="0.03125"></line><line x1="5.416666666666666" y1="6" x2="5.958333333333333" y2="6" stroke="#000000" stroke-width="0.0625"></line><line x1="5.958333333333333" y1="3.5" x2="5.687499999999999" y2="4.5" stroke="#0000ff" stroke-width="0.0625"></line><line x1="5.958333333333333" y1="4" x2="6.5" y2="4" stroke="#000000" stroke-width="0.03125"></line><line x1="5.958333333333333" y1="4" x2="5.958333333333333" y2="6" stroke="#000000" stroke-width="0.03125"></line><line x1="6.5" y1="4" x2="6.5" y2="6" stroke="#000000" stroke-width="0.03125"></line><line x1="5.958333333333333" y1="6" x2="6.5" y2="6" stroke="#000000" stroke-width="0.0625"></line><line x1="5.958333333333333" y1="3.5" x2="6.229166666666666" y2="4.5" stroke="#0000ff" stroke-width="0.0625"></line><line x1="4.875" y1="2.5" x2="5.958333333333333" y2="3.5" stroke="#0000ff" stroke-width="0.0625"></line><line x1="3.25" y1="1.5" x2="4.875" y2="2.5" stroke="#0000ff" stroke-width="0.0625"></line><line x1="6.5" y1="0.5" x2="3.25" y2="1.5" stroke="#0000ff" stroke-width="0.0625"></line><line x1="6.5" y1="1" x2="13.0" y2="1" stroke="#000000" stroke-width="0.03125"></line><line x1="6.5" y1="1" x2="6.5" y2="2" stroke="#000000" stroke-width="0.03125"></line><line x1="13.0" y1="1" x2="13.0" y2="2" stroke="#000000" stroke-width="0.03125"></line><line x1="6.5" y1="2" x2="13.0" y2="2" stroke="#000000" stroke-width="0.03125"></line><line x1="6.5" y1="2" x2="6.5" y2="3" stroke="#000000" stroke-width="0.03125"></line><line x1="13.0" y1="2" x2="13.0" y2="3" stroke="#000000" stroke-width="0.03125"></line><line x1="6.5" y1="3" x2="9.75" y2="3" stroke="#000000" stroke-width="0.03125"></line><line x1="6.5" y1="3" x2="6.5" y2="4" stroke="#000000" stroke-width="0.03125"></line><line x1="9.75" y1="3" x2="9.75" y2="4" stroke="#000000" stroke-width="0.03125"></line><line x1="6.5" y1="4" x2="9.75" y2="4" stroke="#000000" stroke-width="0.03125"></line><line x1="6.5" y1="4" x2="6.5" y2="6" stroke="#000000" stroke-width="0.03125"></line><line x1="9.75" y1="4" x2="9.75" y2="6" stroke="#000000" stroke-width="0.03125"></line><line x1="6.5" y1="6" x2="9.75" y2="6" stroke="#000000" stroke-width="0.0625"></line><line x1="8.125" y1="3.5" x2="8.125" y2="4.5" stroke="#0000ff" stroke-width="0.0625"></line><line x1="9.75" y1="2.5" x2="8.125" y2="3.5" stroke="#0000ff" stroke-width="0.0625"></line><line x1="9.75" y1="3" x2="13.0" y2="3" stroke="#000000" stroke-width="0.03125"></line><line x1="9.75" y1="3" x2="9.75" y2="4" stroke="#000000" stroke-width="0.03125"></line><line x1="13.0" y1="3" x2="13.0" y2="4" stroke="#000000" stroke-width="0.03125"></line><line x1="9.75" y1="4" x2="11.375" y2="4" stroke="#000000" stroke-width="0.03125"></line><line x1="9.75" y1="4" x2="9.75" y2="6" stroke="#000000" stroke-width="0.03125"></line><line x1="11.375" y1="4" x2="11.375" y2="6" stroke="#000000" stroke-width="0.03125"></line><line x1="9.75" y1="6" x2="11.375" y2="6" stroke="#000000" stroke-width="0.0625"></line><line x1="11.375" y1="3.5" x2="10.5625" y2="4.5" stroke="#0000ff" stroke-width="0.0625"></line><line x1="11.375" y1="4" x2="13.0" y2="4" stroke="#000000" stroke-width="0.03125"></line><line x1="11.375" y1="4" x2="11.375" y2="6" stroke="#000000" stroke-width="0.03125"></line><line x1="13.0" y1="4" x2="13.0" y2="6" stroke="#000000" stroke-width="0.03125"></line><line x1="11.375" y1="6" x2="13.0" y2="6" stroke="#000000" stroke-width="0.0625"></line><line x1="11.375" y1="3.5" x2="12.1875" y2="4.5" stroke="#0000ff" stroke-width="0.0625"></line><line x1="9.75" y1="2.5" x2="11.375" y2="3.5" stroke="#0000ff" stroke-width="0.0625"></line><line x1="9.75" y1="1.5" x2="9.75" y2="2.5" stroke="#0000ff" stroke-width="0.0625"></line><line x1="6.5" y1="0.5" x2="9.75" y2="1.5" stroke="#0000ff" stroke-width="0.0625"></line><circle cx="6.5" cy="0.5" r="0.0625" fill="#ff0000"></circle><circle cx="3.25" cy="1.5" r="0.0625" fill="#ff0000"></circle><circle cx="1.625" cy="2.5" r="0.0625" fill="#ff0000"></circle><circle cx="0.8125" cy="3.5" r="0.0625" fill="#ff0000"></circle><circle cx="0.40625" cy="4.5" r="0.0625" fill="#ff0000"></circle><circle cx="0.203125" cy="5.5" r="0.0625" fill="#ff0000"></circle><circle cx="0.609375" cy="5.5" r="0.0625" fill="#ff0000"></circle><circle cx="1.21875" cy="4.5" r="0.0625" fill="#ff0000"></circle><circle cx="2.4375" cy="3.5" r="0.0625" fill="#ff0000"></circle><circle cx="2.03125" cy="4.5" r="0.0625" fill="#ff0000"></circle><circle cx="2.84375" cy="4.5" r="0.0625" fill="#ff0000"></circle><circle cx="4.875" cy="2.5" r="0.0625" fill="#ff0000"></circle><circle cx="3.7916666666666665" cy="3.5" r="0.0625" fill="#ff0000"></circle><circle cx="3.7916666666666665" cy="4.5" r="0.0625" fill="#ff0000"></circle><circle cx="4.875" cy="3.5" r="0.0625" fill="#ff0000"></circle><circle cx="4.604166666666666" cy="4.5" r="0.0625" fill="#ff0000"></circle><circle cx="5.145833333333333" cy="4.5" r="0.0625" fill="#ff0000"></circle><circle cx="5.958333333333333" cy="3.5" r="0.0625" fill="#ff0000"></circle><circle cx="5.687499999999999" cy="4.5" r="0.0625" fill="#ff0000"></circle><circle cx="6.229166666666666" cy="4.5" r="0.0625" fill="#ff0000"></circle><circle cx="9.75" cy="1.5" r="0.0625" fill="#ff0000"></circle><circle cx="9.75" cy="2.5" r="0.0625" fill="#ff0000"></circle><circle cx="8.125" cy="3.5" r="0.0625" fill="#ff0000"></circle><circle cx="8.125" cy="4.5" r="0.0625" fill="#ff0000"></circle><circle cx="11.375" cy="3.5" r="0.0625" fill="#ff0000"></circle><circle cx="10.5625" cy="4.5" r="0.0625" fill="#ff0000"></circle><circle cx="12.1875" cy="4.5" r="0.0625" fill="#ff0000"></circle></g><use href="#graph" y="6.0" transform=" translate(0, 6.0) rotate(180, 6.5, 6.0)"></use></svg>