<svg width="38cm" height="8cm" viewBox="0, 0, 38, 8" version="1.1" xmlns="http://www.w3.org/2000/svg"><g id="graph"><line x1="0" y1="0" x2="38" y2="0" stroke="#000000" stroke-width="0.03125"></line><line x1="0" y1="0" x2="0" y2="1" stroke="#000000" stroke-width="0.03125"></line><line x1="38" y1="0" x2="38" y2="1" stroke="#000000" stroke-width="0.03125"></line><line x1="0" y1="1" x2="12.666666666666666" y2="1" stroke="#000000" stroke-width="0.03125"></line><line x1="0" y1="1" x2="0" y2="2" stroke="#000000" stroke-width="0.03125"></line><line x1="12.666666666666666" y1="1" x2="12.666666666666666" y2="2" stroke="#000000" stroke-width="0.03125"></line><line x1="0" y1="2" x2="2.111111111111111" y2="2" stroke="#000000" stroke-width="0.03125"></line><line x1="0" y1="2" x2="0" y2="3" stroke="#000000" stroke-width="0.03125"></line><line x1="2.111111111111111" y1="2" x2="2.111111111111111" y2="3" stroke="#000000" stroke-width="0.03125"></line><line x1="0" y1="3" x2="1.0555555555555556" y2="3" stroke="#000000" stroke-width="0.03125"></line><line x1="0" y1="3" x2="0" y2="4" stroke="#000000" stroke-width="0.03125"></line><line x1="1.0555555555555556" y1="3" x2="1.0555555555555556" y2="4" stroke="#000000" stroke-width="0.03125"></line><line x1="0" y1="4" x2="1.0555555555555556" y2="4" stroke="#000000" stroke-width="0.0625"></line><line x1="1.0555555555555556" y1="2.5" x2="0.5277777777777778" y2="3.5" stroke="#0000ff" stroke-width="0.0625"></line><line x1="1.0555555555555556" y1="3" x2="2.111111111111111" y2="3" stroke="#000000" stroke-width="0.03125"></line><line x1="1.0555555555555556" y1="3" x2="1.0555555555555556" y2="4" stroke="#000000" stroke-width="0.03125"></line><line x1="2.111111111111111" y1="3" x2="2.111111111111111" y2="4" stroke="#000000" stroke-width="0.03125"></line><line x1="1.0555555555555556" y1="4" x2="2.111111111111111" y2="4" stroke="#000000" stroke-width="0.0625"></line><line x1="1.0555555555555556" y1="2.5" x2="1.5833333333333335" y2="3.5" stroke="#0000ff" stroke-width="0.0625"></line><line x1="6.333333333333333" y1="1.5" x2="1.0555555555555556" y2="2.5" stroke="#0000ff" stroke-width="0.0625"></line><line x1="2.111111111111111" y1="2" x2="4.222222222222222" y2="2" stroke="#000000" stroke-width="0.03125"></line><line x1="2.111111111111111" y1="2" x2="2.111111111111111" y2="3" stroke="#000000" stroke-width="0.03125"></line><line x1="4.222222222222222" y1="2" x2="4.222222222222222" y2="3" stroke="#000000" stroke-width="0.03125"></line><line x1="2.111111111111111" y1="3" x2="3.166666666666667" y2="3" stroke="#000000" stroke-width="0.03125"></line><line x1="2.111111111111111" y1="3" x2="2.111111111111111" y2="4" stroke="#000000" stroke-width="0.03125"></line><line x1="3.166666666666667" y1="3" x2="3.166666666666667" y2="4" stroke="#000000" stroke-width="0.03125"></line><line x1="2.111111111111111" y1="4" x2="3.166666666666667" y2="4" stroke="#000000" stroke-width="0.0625"></line><line x1="3.166666666666667" y1="2.5" x2="2.638888888888889" y2="3.5" stroke="#0000ff" stroke-width="0.0625"></line><line x1="3.166666666666667" y1="3" x2="4.222222222222222" y2="3" stroke="#000000" stroke-width="0.03125"></line><line x1="3.166666666666667" y1="3" x2="3.166666666666667" y2="4" stroke="#000000" stroke-width="0.03125"></line><line x1="4.222222222222222" y1="3" x2="4.222222222222222" y2="4" stroke="#000000" stroke-width="0.03125"></line><line x1="3.166666666666667" y1="4" x2="4.222222222222222" y2="4" stroke="#000000" stroke-width="0.0625"></line><line x1="3.166666666666667" y1="2.5" x2="3.6944444444444446" y2="3.5" stroke="#0000ff" stroke-width="0.0625"></line><line x1="6.333333333333333" y1="1.5" x2="3.166666666666667" y2="2.5" stroke="#0000ff" stroke-width="0.0625"></line><line x1="4.222222222222222" y1="2" x2="6.333333333333334" y2="2" stroke="#000000" stroke-width="0.03125"></line><line x1="4.222222222222222" y1="2" x2="4.222222222222222" y2="3" stroke="#000000" stroke-width="0.03125"></line><line x1="6.333333333333334" y1="2" x2="6.333333333333334" y2="3" stroke="#000000" stroke-width="0.03125"></line><line x1="4.222222222222222" y1="3" x2="5.277777777777778" y2="3" stroke="#000000" stroke-width="0.03125"></line><line x1="4.222222222222222" y1="3" x2="4.222222222222222" y2="4" stroke="#000000" stroke-width="0.03125"></line><line x1="5.277777777777778" y1="3" x2="5.277777777777778" y2="4" stroke="#000000" stroke-width="0.03125"></line><line x1="4.222222222222222" y1="4" x2="5.277777777777778" y2="4" stroke="#000000" stroke-width="0.0625"></line><line x1="5.277777777777778" y1="2.5" x2="4.75" y2="3.5" stroke="#0000ff" stroke-width="0.0625"></line><line x1="5.277777777777778" y1="3" x2="6.333333333333333" y2="3" stroke="#000000" stroke-width="0.03125"></line><line x1="5.277777777777778" y1="3" x2="5.277777777777778" y2="4" stroke="#000000" stroke-width="0.03125"></line><line x1="6.333333333333333" y1="3" x2="6.333333333333333" y2="4" stroke="#000000" stroke-width="0.03125"></line><line x1="5.277777777777778" y1="4" x2="6.333333333333333" y2="4" stroke="#000000" stroke-width="0.0625"></line><line x1="5.277777777777778" y1="2.5" x2="5.805555555555555" y2="3.5" stroke="#0000ff" stroke-width="0.0625"></line><line x1="6.333333333333333" y1="1.5" x2="5.277777777777778" y2="2.5" stroke="#0000ff" stroke-width="0.0625"></line><line x1="6.333333333333334" y1="2" x2="8.444444444444445" y2="2" stroke="#000000" stroke-width="0.03125"></line><line x1="6.333333333333334" y1="2" x2="6.333333333333334" y2="3" stroke="#000000" stroke-width="0.03125"></line><line x1="8.444444444444445" y1="2" x2="8.444444444444445" y2="3" stroke="#000000" stroke-width="0.03125"></line><line x1="6.333333333333334" y1="3" x2="7.388888888888889" y2="3" stroke="#000000" stroke-width="0.03125"></line><line x1="6.333333333333334" y1="3" x2="6.333333333333334" y2="4" stroke="#000000" stroke-width="0.03125"></line><line x1="7.388888888888889" y1="3" x2="7.388888888888889" y2="4" stroke="#000000" stroke-width="0.03125"></line><line x1="6.333333333333334" y1="4" x2="7.388888888888889" y2="4" stroke="#000000" stroke-width="0.0625"></line><line x1="7.388888888888889" y1="2.5" x2="6.861111111111112" y2="3.5" stroke="#0000ff" stroke-width="0.0625"></line><line x1="7.388888888888889" y1="3" x2="8.444444444444445" y2="3" stroke="#000000" stroke-width="0.03125"></line><line x1="7.388888888888889" y1="3" x2="7.388888888888889" y2="4" stroke="#000000" stroke-width="0.03125"></line><line x1="8.444444444444445" y1="3" x2="8.444444444444445" y2="4" stroke="#000000" stroke-width="0.03125"></line><line x1="7.388888888888889" y1="4" x2="8.444444444444445" y2="4" stroke="#000000" stroke-width="0.0625"></line><line x1="7.388888888888889" y1="2.5" x2="7.916666666666667" y2="3.5" stroke="#0000ff" stroke-width="0.0625"></line><line x1="6.333333333333333" y1="1.5" x2="7.388888888888889" y2="2.5" stroke="#0000ff" stroke-width="0.0625"></line><line x1="8.444444444444445" y1="2" x2="10.555555555555555" y2="2" stroke="#000000" stroke-width="0.03125"></line><line x1="8.444444444444445" y1="2" x2="8.444444444444445" y2="3" stroke="#000000" stroke-width="0.03125"></line><line x1="10.555555555555555" y1="2" x2="10.555555555555555" y2="3" stroke="#000000" stroke-width="0.03125"></line><line x1="8.444444444444445" y1="3" x2="9.148148148148149" y2="3" stroke="#000000" stroke-width="0.03125"></line><line x1="8.444444444444445" y1="3" x2="8.444444444444445" y2="4" stroke="#000000" stroke-width="0.03125"></line><line x1="9.148148148148149" y1="3" x2="9.148148148148149" y2="4" stroke="#000000" stroke-width="0.03125"></line><line x1="8.444444444444445" y1="4" x2="9.148148148148149" y2="4" stroke="#000000" stroke-width="0.0625"></line><line x1="9.5" y1="2.5" x2="8.796296296296296" y2="3.5" stroke="#0000ff" stroke-width="0.0625"></line><line x1="9.148148148148149" y1="3" x2="9.851851851851853" y2="3" stroke="#000000" stroke-width="0.03125"></line><line x1="9.148148148148149" y1="3" x2="9.148148148148149" y2="4" stroke="#000000" stroke-width="0.03125"></line><line x1="9.851851851851853" y1="3" x2="9.851851851851853" y2="4" stroke="#000000" stroke-width="0.03125"></line><line x1="9.148148148148149" y1="4" x2="9.851851851851853" y2="4" stroke="#000000" stroke-width="0.0625"></line><line x1="9.5" y1="2.5" x2="9.5" y2="3.5" stroke="#0000ff" stroke-width="0.0625"></line><line x1="9.851851851851851" y1="3" x2="10.555555555555555" y2="3" stroke="#000000" stroke-width="0.03125"></line><line x1="9.851851851851851" y1="3" x2="9.851851851851851" y2="4" stroke="#000000" stroke-width="0.03125"></line><line x1="10.555555555555555" y1="3" x2="10.555555555555555" y2="4" stroke="#000000" stroke-width="0.03125"></line><line x1="9.851851851851851" y1="4" x2="10.555555555555555" y2="4" stroke="#000000" stroke-width="0.0625"></line><line x1="9.5" y1="2.5" x2="10.203703703703702" y2="3.5" stroke="#0000ff" stroke-width="0.0625"></line><line x1="6.333333333333333" y1="1.5" x2="9.5" y2="2.5" stroke="#0000ff" stroke-width="0.0625"></line><line x1="10.555555555555555" y1="2" x2="12.666666666666666" y2="2" stroke="#000000" stroke-width="0.03125"></line><line x1="10.555555555555555" y1="2" x2="10.555555555555555" y2="3" stroke="#000000" stroke-width="0.03125"></line><line x1="12.666666666666666" y1="2" x2="12.666666666666666" y2="3" stroke="#000000" stroke-width="0.03125"></line><line x1="10.555555555555555" y1="3" x2="11.61111111111111" y2="3" stroke="#000000" stroke-width="0.03125"></line><line x1="10.555555555555555" y1="3" x2="10.555555555555555" y2="4" stroke="#000000" stroke-width="0.03125"></line><line x1="11.61111111111111" y1="3" x2="11.61111111111111" y2="4" stroke="#000000" stroke-width="0.03125"></line><line x1="10.555555555555555" y1="4" x2="11.61111111111111" y2="4" stroke="#000000" stroke-width="0.0625"></line><line x1="11.61111111111111" y1="2.5" x2="11.083333333333334" y2="3.5" stroke="#0000ff" stroke-width="0.0625"></line><line x1="11.61111111111111" y1="3" x2="12.666666666666666" y2="3" stroke="#000000" stroke-width="0.03125"></line><line x1="11.61111111111111" y1="3" x2="11.61111111111111" y2="4" stroke="#000000" stroke-width="0.03125"></line><line x1="12.666666666666666" y1="3" x2="12.666666666666666" y2="4" stroke="#000000" stroke-width="0.03125"></line><line x1="11.61111111111111" y1="4" x2="12.666666666666666" y2="4" stroke="#000000" stroke-width="0.0625"></line><line x1="11.61111111111111" y1="2.5" x2="12.13888888888889" y2="3.5" stroke="#0000ff" stroke-width="0.0625"></line><line x1="6.333333333333333" y1="1.5" x2="11.61111111111111" y2="2.5" stroke="#0000ff" stroke-width="0.0625"></line><line x1="19.0" y1="0.5" x2="6.333333333333333" y2="1.5" stroke="#0000ff" stroke-width="0.0625"></line><line x1="12.666666666666666" y1="1" x2="25.333333333333332" y2="1" stroke="#000000" stroke-width="0.03125"></line><line x1="12.666666666666666" y1="1" x2="12.666666666666666" y2="2" stroke="#000000" stroke-width="0.03125"></line><line x1="25.333333333333332" y1="1" x2="25.333333333333332" y2="2" stroke="#000000" stroke-width="0.03125"></line><line x1="12.666666666666666" y1="2" x2="15.2" y2="2" stroke="#000000" stroke-width="0.03125"></line><line x1="12.666666666666666" y1="2" x2="12.666666666666666" y2="3" stroke="#000000" stroke-width="0.03125"></line><line x1="15.2" y1="2" x2="15.2" y2="3" stroke="#000000" stroke-width="0.03125"></line><line x1="12.666666666666666" y1="3" x2="13.933333333333334" y2="3" stroke="#000000" stroke-width="0.03125"></line><line x1="12.666666666666666" y1="3" x2="12.666666666666666" y2="4" stroke="#000000" stroke-width="0.03125"></line><line x1="13.933333333333334" y1="3" x2="13.933333333333334" y2="4" stroke="#000000" stroke-width="0.03125"></line><line x1="12.666666666666666" y1="4" x2="13.933333333333334" y2="4" stroke="#000000" stroke-width="0.0625"></line><line x1="13.933333333333334" y1="2.5" x2="13.299999999999999" y2="3.5" stroke="#0000ff" stroke-width="0.0625"></line><line x1="13.933333333333334" y1="3" x2="15.2" y2="3" stroke="#000000" stroke-width="0.03125"></line><line x1="13.933333333333334" y1="3" x2="13.933333333333334" y2="4" stroke="#000000" stroke-width="0.03125"></line><line x1="15.2" y1="3" x2="15.2" y2="4" stroke="#000000" stroke-width="0.03125"></line><line x1="13.933333333333334" y1="4" x2="15.2" y2="4" stroke="#000000" stroke-width="0.0625"></line><line x1="13.933333333333334" y1="2.5" x2="14.566666666666666" y2="3.5" stroke="#0000ff" stroke-width="0.0625"></line><line x1="19.0" y1="1.5" x2="13.933333333333334" y2="2.5" stroke="#0000ff" stroke-width="0.0625"></line><line x1="15.2" y1="2" x2="17.733333333333334" y2="2" stroke="#000000" stroke-width="0.03125"></line><line x1="15.2" y1="2" x2="15.2" y2="3" stroke="#000000" stroke-width="0.03125"></line><line x1="17.733333333333334" y1="2" x2="17.733333333333334" y2="3" stroke="#000000" stroke-width="0.03125"></line><line x1="15.2" y1="3" x2="16.044444444444444" y2="3" stroke="#000000" stroke-width="0.03125"></line><line x1="15.2" y1="3" x2="15.2" y2="4" stroke="#000000" stroke-width="0.03125"></line><line x1="16.044444444444444" y1="3" x2="16.044444444444444" y2="4" stroke="#000000" stroke-width="0.03125"></line><line x1="15.2" y1="4" x2="16.044444444444444" y2="4" stroke="#000000" stroke-width="0.0625"></line><line x1="16.466666666666665" y1="2.5" x2="15.622222222222222" y2="3.5" stroke="#0000ff" stroke-width="0.0625"></line><line x1="16.044444444444444" y1="3" x2="16.88888888888889" y2="3" stroke="#000000" stroke-width="0.03125"></line><line x1="16.044444444444444" y1="3" x2="16.044444444444444" y2="4" stroke="#000000" stroke-width="0.03125"></line><line x1="16.88888888888889" y1="3" x2="16.88888888888889" y2="4" stroke="#000000" stroke-width="0.03125"></line><line x1="16.044444444444444" y1="4" x2="16.88888888888889" y2="4" stroke="#000000" stroke-width="0.0625"></line><line x1="16.466666666666665" y1="2.5" x2="16.466666666666665" y2="3.5" stroke="#0000ff" stroke-width="0.0625"></line><line x1="16.88888888888889" y1="3" x2="17.733333333333334" y2="3" stroke="#000000" stroke-width="0.03125"></line><line x1="16.88888888888889" y1="3" x2="16.88888888888889" y2="4" stroke="#000000" stroke-width="0.03125"></line><line x1="17.733333333333334" y1="3" x2="17.733333333333334" y2="4" stroke="#000000" stroke-width="0.03125"></line><line x1="16.88888888888889" y1="4" x2="17.733333333333334" y2="4" stroke="#000000" stroke-width="0.0625"></line><line x1="16.466666666666665" y1="2.5" x2="17.31111111111111" y2="3.5" stroke="#0000ff" stroke-width="0.0625"></line><line x1="19.0" y1="1.5" x2="16.466666666666665" y2="2.5" stroke="#0000ff" stroke-width="0.0625"></line><line x1="17.733333333333334" y1="2" x2="20.266666666666666" y2="2" stroke="#000000" stroke-width="0.03125"></line><line x1="17.733333333333334" y1="2" x2="17.733333333333334" y2="3" stroke="#000000" stroke-width="0.03125"></line><line x1="20.266666666666666" y1="2" x2="20.266666666666666" y2="3" stroke="#000000" stroke-width="0.03125"></line><line x1="17.733333333333334" y1="3" x2="18.366666666666667" y2="3" stroke="#000000" stroke-width="0.03125"></line><line x1="17.733333333333334" y1="3" x2="17.733333333333334" y2="4" stroke="#000000" stroke-width="0.03125"></line><line x1="18.366666666666667" y1="3" x2="18.366666666666667" y2="4" stroke="#000000" stroke-width="0.03125"></line><line x1="17.733333333333334" y1="4" x2="18.366666666666667" y2="4" stroke="#000000" stroke-width="0.0625"></line><line x1="19.0" y1="2.5" x2="18.05" y2="3.5" stroke="#0000ff" stroke-width="0.0625"></line><line x1="18.366666666666667" y1="3" x2="19.0" y2="3" stroke="#000000" stroke-width="0.03125"></line><line x1="18.366666666666667" y1="3" x2="18.366666666666667" y2="4" stroke="#000000" stroke-width="0.03125"></line><line x1="19.0" y1="3" x2="19.0" y2="4" stroke="#000000" stroke-width="0.03125"></line><line x1="18.366666666666667" y1="4" x2="19.0" y2="4" stroke="#000000" stroke-width="0.0625"></line><line x1="19.0" y1="2.5" x2="18.683333333333334" y2="3.5" stroke="#0000ff" stroke-width="0.0625"></line><line x1="19.0" y1="3" x2="19.633333333333333" y2="3" stroke="#000000" stroke-width="0.03125"></line><line x1="19.0" y1="3" x2="19.0" y2="4" stroke="#000000" stroke-width="0.03125"></line><line x1="19.633333333333333" y1="3" x2="19.633333333333333" y2="4" stroke="#000000" stroke-width="0.03125"></line><line x1="19.0" y1="4" x2="19.633333333333333" y2="4" stroke="#000000" stroke-width="0.0625"></line><line x1="19.0" y1="2.5" x2="19.316666666666666" y2="3.5" stroke="#0000ff" stroke-width="0.0625"></line><line x1="19.633333333333333" y1="3" x2="20.266666666666666" y2="3" stroke="#000000" stroke-width="0.03125"></line><line x1="19.633333333333333" y1="3" x2="19.633333333333333" y2="4" stroke="#000000" stroke-width="0.03125"></line><line x1="20.266666666666666" y1="3" x2="20.266666666666666" y2="4" stroke="#000000" stroke-width="0.03125"></line><line x1="19.633333333333333" y1="4" x2="20.266666666666666" y2="4" stroke="#000000" stroke-width="0.0625"></line><line x1="19.0" y1="2.5" x2="19.95" y2="3.5" stroke="#0000ff" stroke-width="0.0625"></line><line x1="19.0" y1="1.5" x2="19.0" y2="2.5" stroke="#0000ff" stroke-width="0.0625"></line><line x1="20.266666666666666" y1="2" x2="22.799999999999997" y2="2" stroke="#000000" stroke-width="0.03125"></line><line x1="20.266666666666666" y1="2" x2="20.266666666666666" y2="3" stroke="#000000" stroke-width="0.03125"></line><line x1="22.799999999999997" y1="2" x2="22.799999999999997" y2="3" stroke="#000000" stroke-width="0.03125"></line><line x1="20.266666666666666" y1="3" x2="21.11111111111111" y2="3" stroke="#000000" stroke-width="0.03125"></line><line x1="20.266666666666666" y1="3" x2="20.266666666666666" y2="4" stroke="#000000" stroke-width="0.03125"></line><line x1="21.11111111111111" y1="3" x2="21.11111111111111" y2="4" stroke="#000000" stroke-width="0.03125"></line><line x1="20.266666666666666" y1="4" x2="21.11111111111111" y2="4" stroke="#000000" stroke-width="0.0625"></line><line x1="21.53333333333333" y1="2.5" x2="20.688888888888886" y2="3.5" stroke="#0000ff" stroke-width="0.0625"></line><line x1="21.11111111111111" y1="3" x2="21.955555555555556" y2="3" stroke="#000000" stroke-width="0.03125"></line><line x1="21.11111111111111" y1="3" x2="21.11111111111111" y2="4" stroke="#000000" stroke-width="0.03125"></line><line x1="21.955555555555556" y1="3" x2="21.955555555555556" y2="4" stroke="#000000" stroke-width="0.03125"></line><line x1="21.11111111111111" y1="4" x2="21.955555555555556" y2="4" stroke="#000000" stroke-width="0.0625"></line><line x1="21.53333333333333" y1="2.5" x2="21.53333333333333" y2="3.5" stroke="#0000ff" stroke-width="0.0625"></line><line x1="21.955555555555556" y1="3" x2="22.8" y2="3" stroke="#000000" stroke-width="0.03125"></line><line x1="21.955555555555556" y1="3" x2="21.955555555555556" y2="4" stroke="#000000" stroke-width="0.03125"></line><line x1="22.8" y1="3" x2="22.8" y2="4" stroke="#000000" stroke-width="0.03125"></line><line x1="21.955555555555556" y1="4" x2="22.8" y2="4" stroke="#000000" stroke-width="0.0625"></line><line x1="21.53333333333333" y1="2.5" x2="22.377777777777776" y2="3.5" stroke="#0000ff" stroke-width="0.0625"></line><line x1="19.0" y1="1.5" x2="21.53333333333333" y2="2.5" stroke="#0000ff" stroke-width="0.0625"></line><line x1="22.799999999999997" y1="2" x2="25.33333333333333" y2="2" stroke="#000000" stroke-width="0.03125"></line><line x1="22.799999999999997" y1="2" x2="22.799999999999997" y2="3" stroke="#000000" stroke-width="0.03125"></line><line x1="25.33333333333333" y1="2" x2="25.33333333333333" y2="3" stroke="#000000" stroke-width="0.03125"></line><line x1="22.799999999999997" y1="3" x2="24.066666666666663" y2="3" stroke="#000000" stroke-width="0.03125"></line><line x1="22.799999999999997" y1="3" x2="22.799999999999997" y2="4" stroke="#000000" stroke-width="0.03125"></line><line x1="24.066666666666663" y1="3" x2="24.066666666666663" y2="4" stroke="#000000" stroke-width="0.03125"></line><line x1="22.799999999999997" y1="4" x2="24.066666666666663" y2="4" stroke="#000000" stroke-width="0.0625"></line><line x1="24.066666666666663" y1="2.5" x2="23.43333333333333" y2="3.5" stroke="#0000ff" stroke-width="0.0625"></line><line x1="24.066666666666663" y1="3" x2="25.33333333333333" y2="3" stroke="#000000" stroke-width="0.03125"></line><line x1="24.066666666666663" y1="3" x2="24.066666666666663" y2="4" stroke="#000000" stroke-width="0.03125"></line><line x1="25.33333333333333" y1="3" x2="25.33333333333333" y2="4" stroke="#000000" stroke-width="0.03125"></line><line x1="24.066666666666663" y1="4" x2="25.33333333333333" y2="4" stroke="#000000" stroke-width="0.0625"></line><line x1="24.066666666666663" y1="2.5" x2="24.699999999999996" y2="3.5" stroke="#0000ff" stroke-width="0.0625"></line><line x1="19.0" y1="1.5" x2="24.066666666666663" y2="2.5" stroke="#0000ff" stroke-width="0.0625"></line><line x1="19.0" y1="0.5" x2="19.0" y2="1.5" stroke="#0000ff" stroke-width="0.0625"></line><line x1="25.333333333333332" y1="1" x2="38.0" y2="1" stroke="#000000" stroke-width="0.03125"></line><line x1="25.333333333333332" y1="1" x2="25.333333333333332" y2="2" stroke="#000000" stroke-width="0.03125"></line><line x1="38.0" y1="1" x2="38.0" y2="2" stroke="#000000" stroke-width="0.03125"></line><line x1="25.333333333333332" y1="2" x2="28.5" y2="2" stroke="#000000" stroke-width="0.03125"></line><line x1="25.333333333333332" y1="2" x2="25.333333333333332" y2="3" stroke="#000000" stroke-width="0.03125"></line><line x1="28.5" y1="2" x2="28.5" y2="3" stroke="#000000" stroke-width="0.03125"></line><line x1="25.333333333333332" y1="3" x2="26.916666666666664" y2="3" stroke="#000000" stroke-width="0.03125"></line><line x1="25.333333333333332" y1="3" x2="25.333333333333332" y2="4" stroke="#000000" stroke-width="0.03125"></line><line x1="26.916666666666664" y1="3" x2="26.916666666666664" y2="4" stroke="#000000" stroke-width="0.03125"></line><line x1="25.333333333333332" y1="4" x2="26.916666666666664" y2="4" stroke="#000000" stroke-width="0.0625"></line><line x1="26.916666666666664" y1="2.5" x2="26.125" y2="3.5" stroke="#0000ff" stroke-width="0.0625"></line><line x1="26.916666666666664" y1="3" x2="28.499999999999996" y2="3" stroke="#000000" stroke-width="0.03125"></line><line x1="26.916666666666664" y1="3" x2="26.916666666666664" y2="4" stroke="#000000" stroke-width="0.03125"></line><line x1="28.499999999999996" y1="3" x2="28.499999999999996" y2="4" stroke="#000000" stroke-width="0.03125"></line><line x1="26.916666666666664" y1="4" x2="28.499999999999996" y2="4" stroke="#000000" stroke-width="0.0625"></line><line x1="26.916666666666664" y1="2.5" x2="27.708333333333332" y2="3.5" stroke="#0000ff" stroke-width="0.0625"></line><line x1="31.666666666666664" y1="1.5" x2="26.916666666666664" y2="2.5" stroke="#0000ff" stroke-width="0.0625"></line><line x1="28.5" y1="2" x2="31.666666666666668" y2="2" stroke="#000000" stroke-width="0.03125"></line><line x1="28.5" y1="2" x2="28.5" y2="3" stroke="#000000" stroke-width="0.03125"></line><line x1="31.666666666666668" y1="2" x2="31.666666666666668" y2="3" stroke="#000000" stroke-width="0.03125"></line><line x1="28.5" y1="3" x2="29.555555555555557" y2="3" stroke="#000000" stroke-width="0.03125"></line><line x1="28.5" y1="3" x2="28.5" y2="4" stroke="#000000" stroke-width="0.03125"></line><line x1="29.555555555555557" y1="3" x2="29.555555555555557" y2="4" stroke="#000000" stroke-width="0.03125"></line><line x1="28.5" y1="4" x2="29.555555555555557" y2="4" stroke="#000000" stroke-width="0.0625"></line><line x1="30.083333333333332" y1="2.5" x2="29.02777777777778" y2="3.5" stroke="#0000ff" stroke-width="0.0625"></line><line x1="29.555555555555557" y1="3" x2="30.611111111111114" y2="3" stroke="#000000" stroke-width="0.03125"></line><line x1="29.555555555555557" y1="3" x2="29.555555555555557" y2="4" stroke="#000000" stroke-width="0.03125"></line><line x1="30.611111111111114" y1="3" x2="30.611111111111114" y2="4" stroke="#000000" stroke-width="0.03125"></line><line x1="29.555555555555557" y1="4" x2="30.611111111111114" y2="4" stroke="#000000" stroke-width="0.0625"></line><line x1="30.083333333333332" y1="2.5" x2="30.083333333333336" y2="3.5" stroke="#0000ff" stroke-width="0.0625"></line><line x1="30.61111111111111" y1="3" x2="31.666666666666668" y2="3" stroke="#000000" stroke-width="0.03125"></line><line x1="30.61111111111111" y1="3" x2="30.61111111111111" y2="4" stroke="#000000" stroke-width="0.03125"></line><line x1="31.666666666666668" y1="3" x2="31.666666666666668" y2="4" stroke="#000000" stroke-width="0.03125"></line><line x1="30.61111111111111" y1="4" x2="31.666666666666668" y2="4" stroke="#000000" stroke-width="0.0625"></line><line x1="30.083333333333332" y1="2.5" x2="31.13888888888889" y2="3.5" stroke="#0000ff" stroke-width="0.0625"></line><line x1="31.666666666666664" y1="1.5" x2="30.083333333333332" y2="2.5" stroke="#0000ff" stroke-width="0.0625"></line><line x1="31.666666666666664" y1="2" x2="34.83333333333333" y2="2" stroke="#000000" stroke-width="0.03125"></line><line x1="31.666666666666664" y1="2" x2="31.666666666666664" y2="3" stroke="#000000" stroke-width="0.03125"></line><line x1="34.83333333333333" y1="2" x2="34.83333333333333" y2="3" stroke="#000000" stroke-width="0.03125"></line><line x1="31.666666666666664" y1="3" x2="32.72222222222222" y2="3" stroke="#000000" stroke-width="0.03125"></line><line x1="31.666666666666664" y1="3" x2="31.666666666666664" y2="4" stroke="#000000" stroke-width="0.03125"></line><line x1="32.72222222222222" y1="3" x2="32.72222222222222" y2="4" stroke="#000000" stroke-width="0.03125"></line><line x1="31.666666666666664" y1="4" x2="32.72222222222222" y2="4" stroke="#000000" stroke-width="0.0625"></line><line x1="33.25" y1="2.5" x2="32.19444444444444" y2="3.5" stroke="#0000ff" stroke-width="0.0625"></line><line x1="32.72222222222222" y1="3" x2="33.77777777777778" y2="3" stroke="#000000" stroke-width="0.03125"></line><line x1="32.72222222222222" y1="3" x2="32.72222222222222" y2="4" stroke="#000000" stroke-width="0.03125"></line><line x1="33.77777777777778" y1="3" x2="33.77777777777778" y2="4" stroke="#000000" stroke-width="0.03125"></line><line x1="32.72222222222222" y1="4" x2="33.77777777777778" y2="4" stroke="#000000" stroke-width="0.0625"></line><line x1="33.25" y1="2.5" x2="33.25" y2="3.5" stroke="#0000ff" stroke-width="0.0625"></line><line x1="33.77777777777778" y1="3" x2="34.833333333333336" y2="3" stroke="#000000" stroke-width="0.03125"></line><line x1="33.77777777777778" y1="3" x2="33.77777777777778" y2="4" stroke="#000000" stroke-width="0.03125"></line><line x1="34.833333333333336" y1="3" x2="34.833333333333336" y2="4" stroke="#000000" stroke-width="0.03125"></line><line x1="33.77777777777778" y1="4" x2="34.833333333333336" y2="4" stroke="#000000" stroke-width="0.0625"></line><line x1="33.25" y1="2.5" x2="34.30555555555556" y2="3.5" stroke="#0000ff" stroke-width="0.0625"></line><line x1="31.666666666666664" y1="1.5" x2="33.25" y2="2.5" stroke="#0000ff" stroke-width="0.0625"></line><line x1="34.83333333333333" y1="2" x2="37.99999999999999" y2="2" stroke="#000000" stroke-width="0.03125"></line><line x1="34.83333333333333" y1="2" x2="34.83333333333333" y2="3" stroke="#000000" stroke-width="0.03125"></line><line x1="37.99999999999999" y1="2" x2="37.99999999999999" y2="3" stroke="#000000" stroke-width="0.03125"></line><line x1="34.83333333333333" y1="3" x2="35.888888888888886" y2="3" stroke="#000000" stroke-width="0.03125"></line><line x1="34.83333333333333" y1="3" x2="34.83333333333333" y2="4" stroke="#000000" stroke-width="0.03125"></line><line x1="35.888888888888886" y1="3" x2="35.888888888888886" y2="4" stroke="#000000" stroke-width="0.03125"></line><line x1="34.83333333333333" y1="4" x2="35.888888888888886" y2="4" stroke="#000000" stroke-width="0.0625"></line><line x1="36.416666666666664" y1="2.5" x2="35.36111111111111" y2="3.5" stroke="#0000ff" stroke-width="0.0625"></line><line x1="35.888888888888886" y1="3" x2="36.94444444444444" y2="3" stroke="#000000" stroke-width="0.03125"></line><line x1="35.888888888888886" y1="3" x2="35.888888888888886" y2="4" stroke="#000000" stroke-width="0.03125"></line><line x1="36.94444444444444" y1="3" x2="36.94444444444444" y2="4" stroke="#000000" stroke-width="0.03125"></line><line x1="35.888888888888886" y1="4" x2="36.94444444444444" y2="4" stroke="#000000" stroke-width="0.0625"></line><line x1="36.416666666666664" y1="2.5" x2="36.416666666666664" y2="3.5" stroke="#0000ff" stroke-width="0.0625"></line><line x1="36.94444444444444" y1="3" x2="38.0" y2="3" stroke="#000000" stroke-width="0.03125"></line><line x1="36.94444444444444" y1="3" x2="36.94444444444444" y2="4" stroke="#000000" stroke-width="0.03125"></line><line x1="38.0" y1="3" x2="38.0" y2="4" stroke="#000000" stroke-width="0.03125"></line><line x1="36.94444444444444" y1="4" x2="38.0" y2="4" stroke="#000000" stroke-width="0.0625"></line><line x1="36.416666666666664" y1="2.5" x2="37.47222222222222" y2="3.5" stroke="#0000ff" stroke-width="0.0625"></line><line x1="31.666666666666664" y1="1.5" x2="36.416666666666664" y2="2.5" stroke="#0000ff" stroke-width="0.0625"></line><line x1="19.0" y1="0.5" x2="31.666666666666664" y2="1.5" stroke="#0000ff" stroke-width="0.0625"></line><circle cx="19.0" cy="0.5" r="0.0625" fill="#ff0000"></circle><circle cx="6.333333333333333" cy="1.5" r="0.0625" fill="#ff0000"></circle><circle cx="1.0555555555555556" cy="2.5" r="0.0625" fill="#ff0000"></circle><circle cx="0.5277777777777778" cy="3.5" r="0.0625" fill="#ff0000"></circle><circle cx="1.5833333333333335" cy="3.5" r="0.0625" fill="#ff0000"></circle><circle cx="3.166666666666667" cy="2.5" r="0.0625" fill="#ff0000"></circle><circle cx="2.638888888888889" cy="3.5" r="0.0625" fill="#ff0000"></circle><circle cx="3.6944444444444446" cy="3.5" r="0.0625" fill="#ff0000"></circle><circle cx="5.277777777777778" cy="2.5" r="0.0625" fill="#ff0000"></circle><circle cx="4.75" cy="3.5" r="0.0625" fill="#ff0000"></circle><circle cx="5.805555555555555" cy="3.5" r="0.0625" fill="#ff0000"></circle><circle cx="7.388888888888889" cy="2.5" r="0.0625" fill="#ff0000"></circle><circle cx="6.861111111111112" cy="3.5" r="0.0625" fill="#ff0000"></circle><circle cx="7.916666666666667" cy="3.5" r="0.0625" fill="#ff0000"></circle><circle cx="9.5" cy="2.5" r="0.0625" fill="#ff0000"></circle><circle cx="8.796296296296296" cy="3.5" r="0.0625" fill="#ff0000"></circle><circle cx="9.5" cy="3.5" r="0.0625" fill="#ff0000"></circle><circle cx="10.203703703703702" cy="3.5" r="0.0625" fill="#ff0000"></circle><circle cx="11.61111111111111" cy="2.5" r="0.0625" fill="#ff0000"></circle><circle cx="11.083333333333334" cy="3.5" r="0.0625" fill="#ff0000"></circle><circle cx="12.13888888888889" cy="3.5" r="0.0625" fill="#ff0000"></circle><circle cx="19.0" cy="1.5" r="0.0625" fill="#ff0000"></circle><circle cx="13.933333333333334" cy="2.5" r="0.0625" fill="#ff0000"></circle><circle cx="13.299999999999999" cy="3.5" r="0.0625" fill="#ff0000"></circle><circle cx="14.566666666666666" cy="3.5" r="0.0625" fill="#ff0000"></circle><circle cx="16.466666666666665" cy="2.5" r="0.0625" fill="#ff0000"></circle><circle cx="15.622222222222222" cy="3.5" r="0.0625" fill="#ff0000"></circle><circle cx="16.466666666666665" cy="3.5" r="0.0625" fill="#ff0000"></circle><circle cx="17.31111111111111" cy="3.5" r="0.0625" fill="#ff0000"></circle><circle cx="19.0" cy="2.5" r="0.0625" fill="#ff0000"></circle><circle cx="18.05" cy="3.5" r="0.0625" fill="#ff0000"></circle><circle cx="18.683333333333334" cy="3.5" r="0.0625" fill="#ff0000"></circle><circle cx="19.316666666666666" cy="3.5" r="0.0625" fill="#ff0000"></circle><circle cx="19.95" cy="3.5" r="0.0625" fill="#ff0000"></circle><circle cx="21.53333333333333" cy="2.5" r="0.0625" fill="#ff0000"></circle><circle cx="20.688888888888886" cy="3.5" r="0.0625" fill="#ff0000"></circle><circle cx="21.53333333333333" cy="3.5" r="0.0625" fill="#ff0000"></circle><circle cx="22.377777777777776" cy="3.5" r="0.0625" fill="#ff0000"></circle><circle cx="24.066666666666663" cy="2.5" r="0.0625" fill="#ff0000"></circle><circle cx="23.43333333333333" cy="3.5" r="0.0625" fill="#ff0000"></circle><circle cx="24.699999999999996" cy="3.5" r="0.0625" fill="#ff0000"></circle><circle cx="31.666666666666664" cy="1.5" r="0.0625" fill="#ff0000"></circle><circle cx="26.916666666666664" cy="2.5" r="0.0625" fill="#ff0000"></circle><circle cx="26.125" cy="3.5" r="0.0625" fill="#ff0000"></circle><circle cx="27.708333333333332" cy="3.5" r="0.0625" fill="#ff0000"></circle><circle cx="30.083333333333332" cy="2.5" r="0.0625" fill="#ff0000"></circle><circle cx="29.02777777777778" cy="3.5" r="0.0625" fill="#ff0000"></circle><circle cx="30.083333333333336" cy="3.5" r="0.0625" fill="#ff0000"></circle><circle cx="31.13888888888889" cy="3.5" r="0.0625" fill="#ff0000"></circle><circle cx="33.25" cy="2.5" r="0.0625" fill="#ff0000"></circle><circle cx="32.19444444444444" cy="3.5" r="0.0625" fill="#ff0000"></circle><circle cx="33.25" cy="3.5" r="0.0625" fill="#ff0000"></circle><circle cx="34.30555555555556" cy="3.5" r="0.0625" fill="#ff0000"></circle><circle cx="36.416666666666664" cy="2.5" r="0.0625" fill="#ff0000"></circle><circle cx="35.36111111111111" cy="3.5" r="0.0625" fill="#ff0000"></circle><circle cx="36.416666666666664" cy="3.5" r="0.0625" fill="#ff0000"></circle><circle cx="37.47222222222222" cy="3.5" r="0.0625" fill="#ff0000"></circle></g><use href="#graph" y="4.0" transform=" translate(0, 4.0) rotate(180, 19.0, 4.0)"></use></svg>