<svg width="72cm" height="10cm" viewBox="0, 0, 72, 10" version="1.1" xmlns="http://www.w3.org/2000/svg"><g id="graph"><line x1="0" y1="0" x2="72" y2="0" stroke="#000000" stroke-width="0.03125"></line><line x1="0" y1="0" x2="0" y2="1" stroke="#000000" stroke-width="0.03125"></line><line x1="72" y1="0" x2="72" y2="1" stroke="#000000" stroke-width="0.03125"></line><line x1="0" y1="1" x2="36.0" y2="1" stroke="#000000" stroke-width="0.03125"></line><line x1="0" y1="1" x2="0" y2="2" stroke="#000000" stroke-width="0.03125"></line><line x1="36.0" y1="1" x2="36.0" y2="2" stroke="#000000" stroke-width="0.03125"></line><line x1="0" y1="2" x2="9.0" y2="2" stroke="#000000" stroke-width="0.03125"></line><line x1="0" y1="2" x2="0" y2="3" stroke="#000000" stroke-width="0.03125"></line><line x1="9.0" y1="2" x2="9.0" y2="3" stroke="#000000" stroke-width="0.03125"></line><line x1="0" y1="3" x2="3.0" y2="3" stroke="#000000" stroke-width="0.03125"></line><line x1="0" y1="3" x2="0" y2="4" stroke="#000000" stroke-width="0.03125"></line><line x1="3.0" y1="3" x2="3.0" y2="4" stroke="#000000" stroke-width="0.03125"></line><line x1="0" y1="4" x2="1.0" y2="4" stroke="#000000" stroke-width="0.03125"></line><line x1="0" y1="4" x2="0" y2="5" stroke="#000000" stroke-width="0.03125"></line><line x1="1.0" y1="4" x2="1.0" y2="5" stroke="#000000" stroke-width="0.03125"></line><line x1="0" y1="5" x2="1.0" y2="5" stroke="#000000" stroke-width="0.0625"></line><line x1="1.5" y1="3.5" x2="0.5" y2="4.5" stroke="#0000ff" stroke-width="0.0625"></line><line x1="1.0" y1="4" x2="2.0" y2="4" stroke="#000000" stroke-width="0.03125"></line><line x1="1.0" y1="4" x2="1.0" y2="5" stroke="#000000" stroke-width="0.03125"></line><line x1="2.0" y1="4" x2="2.0" y2="5" stroke="#000000" stroke-width="0.03125"></line><line x1="1.0" y1="5" x2="2.0" y2="5" stroke="#000000" stroke-width="0.0625"></line><line x1="1.5" y1="3.5" x2="1.5" y2="4.5" stroke="#0000ff" stroke-width="0.0625"></line><line x1="2.0" y1="4" x2="3.0" y2="4" stroke="#000000" stroke-width="0.03125"></line><line x1="2.0" y1="4" x2="2.0" y2="5" stroke="#000000" stroke-width="0.03125"></line><line x1="3.0" y1="4" x2="3.0" y2="5" stroke="#000000" stroke-width="0.03125"></line><line x1="2.0" y1="5" x2="3.0" y2="5" stroke="#000000" stroke-width="0.0625"></line><line x1="1.5" y1="3.5" x2="2.5" y2="4.5" stroke="#0000ff" stroke-width="0.0625"></line><line x1="4.5" y1="2.5" x2="1.5" y2="3.5" stroke="#0000ff" stroke-width="0.0625"></line><line x1="3.0" y1="3" x2="6.0" y2="3" stroke="#000000" stroke-width="0.03125"></line><line x1="3.0" y1="3" x2="3.0" y2="4" stroke="#000000" stroke-width="0.03125"></line><line x1="6.0" y1="3" x2="6.0" y2="4" stroke="#000000" stroke-width="0.03125"></line><line x1="3.0" y1="4" x2="4.0" y2="4" stroke="#000000" stroke-width="0.03125"></line><line x1="3.0" y1="4" x2="3.0" y2="5" stroke="#000000" stroke-width="0.03125"></line><line x1="4.0" y1="4" x2="4.0" y2="5" stroke="#000000" stroke-width="0.03125"></line><line x1="3.0" y1="5" x2="4.0" y2="5" stroke="#000000" stroke-width="0.0625"></line><line x1="4.5" y1="3.5" x2="3.5" y2="4.5" stroke="#0000ff" stroke-width="0.0625"></line><line x1="4.0" y1="4" x2="5.0" y2="4" stroke="#000000" stroke-width="0.03125"></line><line x1="4.0" y1="4" x2="4.0" y2="5" stroke="#000000" stroke-width="0.03125"></line><line x1="5.0" y1="4" x2="5.0" y2="5" stroke="#000000" stroke-width="0.03125"></line><line x1="4.0" y1="5" x2="5.0" y2="5" stroke="#000000" stroke-width="0.0625"></line><line x1="4.5" y1="3.5" x2="4.5" y2="4.5" stroke="#0000ff" stroke-width="0.0625"></line><line x1="5.0" y1="4" x2="6.0" y2="4" stroke="#000000" stroke-width="0.03125"></line><line x1="5.0" y1="4" x2="5.0" y2="5" stroke="#000000" stroke-width="0.03125"></line><line x1="6.0" y1="4" x2="6.0" y2="5" stroke="#000000" stroke-width="0.03125"></line><line x1="5.0" y1="5" x2="6.0" y2="5" stroke="#000000" stroke-width="0.0625"></line><line x1="4.5" y1="3.5" x2="5.5" y2="4.5" stroke="#0000ff" stroke-width="0.0625"></line><line x1="4.5" y1="2.5" x2="4.5" y2="3.5" stroke="#0000ff" stroke-width="0.0625"></line><line x1="6.0" y1="3" x2="9.0" y2="3" stroke="#000000" stroke-width="0.03125"></line><line x1="6.0" y1="3" x2="6.0" y2="4" stroke="#000000" stroke-width="0.03125"></line><line x1="9.0" y1="3" x2="9.0" y2="4" stroke="#000000" stroke-width="0.03125"></line><line x1="6.0" y1="4" x2="7.0" y2="4" stroke="#000000" stroke-width="0.03125"></line><line x1="6.0" y1="4" x2="6.0" y2="5" stroke="#000000" stroke-width="0.03125"></line><line x1="7.0" y1="4" x2="7.0" y2="5" stroke="#000000" stroke-width="0.03125"></line><line x1="6.0" y1="5" x2="7.0" y2="5" stroke="#000000" stroke-width="0.0625"></line><line x1="7.5" y1="3.5" x2="6.5" y2="4.5" stroke="#0000ff" stroke-width="0.0625"></line><line x1="7.0" y1="4" x2="8.0" y2="4" stroke="#000000" stroke-width="0.03125"></line><line x1="7.0" y1="4" x2="7.0" y2="5" stroke="#000000" stroke-width="0.03125"></line><line x1="8.0" y1="4" x2="8.0" y2="5" stroke="#000000" stroke-width="0.03125"></line><line x1="7.0" y1="5" x2="8.0" y2="5" stroke="#000000" stroke-width="0.0625"></line><line x1="7.5" y1="3.5" x2="7.5" y2="4.5" stroke="#0000ff" stroke-width="0.0625"></line><line x1="8.0" y1="4" x2="9.0" y2="4" stroke="#000000" stroke-width="0.03125"></line><line x1="8.0" y1="4" x2="8.0" y2="5" stroke="#000000" stroke-width="0.03125"></line><line x1="9.0" y1="4" x2="9.0" y2="5" stroke="#000000" stroke-width="0.03125"></line><line x1="8.0" y1="5" x2="9.0" y2="5" stroke="#000000" stroke-width="0.0625"></line><line x1="7.5" y1="3.5" x2="8.5" y2="4.5" stroke="#0000ff" stroke-width="0.0625"></line><line x1="4.5" y1="2.5" x2="7.5" y2="3.5" stroke="#0000ff" stroke-width="0.0625"></line><line x1="18.0" y1="1.5" x2="4.5" y2="2.5" stroke="#0000ff" stroke-width="0.0625"></line><line x1="9.0" y1="2" x2="18.0" y2="2" stroke="#000000" stroke-width="0.03125"></line><line x1="9.0" y1="2" x2="9.0" y2="3" stroke="#000000" stroke-width="0.03125"></line><line x1="18.0" y1="2" x2="18.0" y2="3" stroke="#000000" stroke-width="0.03125"></line><line x1="9.0" y1="3" x2="12.0" y2="3" stroke="#000000" stroke-width="0.03125"></line><line x1="9.0" y1="3" x2="9.0" y2="4" stroke="#000000" stroke-width="0.03125"></line><line x1="12.0" y1="3" x2="12.0" y2="4" stroke="#000000" stroke-width="0.03125"></line><line x1="9.0" y1="4" x2="10.0" y2="4" stroke="#000000" stroke-width="0.03125"></line><line x1="9.0" y1="4" x2="9.0" y2="5" stroke="#000000" stroke-width="0.03125"></line><line x1="10.0" y1="4" x2="10.0" y2="5" stroke="#000000" stroke-width="0.03125"></line><line x1="9.0" y1="5" x2="10.0" y2="5" stroke="#000000" stroke-width="0.0625"></line><line x1="10.5" y1="3.5" x2="9.5" y2="4.5" stroke="#0000ff" stroke-width="0.0625"></line><line x1="10.0" y1="4" x2="11.0" y2="4" stroke="#000000" stroke-width="0.03125"></line><line x1="10.0" y1="4" x2="10.0" y2="5" stroke="#000000" stroke-width="0.03125"></line><line x1="11.0" y1="4" x2="11.0" y2="5" stroke="#000000" stroke-width="0.03125"></line><line x1="10.0" y1="5" x2="11.0" y2="5" stroke="#000000" stroke-width="0.0625"></line><line x1="10.5" y1="3.5" x2="10.5" y2="4.5" stroke="#0000ff" stroke-width="0.0625"></line><line x1="11.0" y1="4" x2="12.0" y2="4" stroke="#000000" stroke-width="0.03125"></line><line x1="11.0" y1="4" x2="11.0" y2="5" stroke="#000000" stroke-width="0.03125"></line><line x1="12.0" y1="4" x2="12.0" y2="5" stroke="#000000" stroke-width="0.03125"></line><line x1="11.0" y1="5" x2="12.0" y2="5" stroke="#000000" stroke-width="0.0625"></line><line x1="10.5" y1="3.5" x2="11.5" y2="4.5" stroke="#0000ff" stroke-width="0.0625"></line><line x1="13.5" y1="2.5" x2="10.5" y2="3.5" stroke="#0000ff" stroke-width="0.0625"></line><line x1="12.0" y1="3" x2="15.0" y2="3" stroke="#000000" stroke-width="0.03125"></line><line x1="12.0" y1="3" x2="12.0" y2="4" stroke="#000000" stroke-width="0.03125"></line><line x1="15.0" y1="3" x2="15.0" y2="4" stroke="#000000" stroke-width="0.03125"></line><line x1="12.0" y1="4" x2="13.0" y2="4" stroke="#000000" stroke-width="0.03125"></line><line x1="12.0" y1="4" x2="12.0" y2="5" stroke="#000000" stroke-width="0.03125"></line><line x1="13.0" y1="4" x2="13.0" y2="5" stroke="#000000" stroke-width="0.03125"></line><line x1="12.0" y1="5" x2="13.0" y2="5" stroke="#000000" stroke-width="0.0625"></line><line x1="13.5" y1="3.5" x2="12.5" y2="4.5" stroke="#0000ff" stroke-width="0.0625"></line><line x1="13.0" y1="4" x2="14.0" y2="4" stroke="#000000" stroke-width="0.03125"></line><line x1="13.0" y1="4" x2="13.0" y2="5" stroke="#000000" stroke-width="0.03125"></line><line x1="14.0" y1="4" x2="14.0" y2="5" stroke="#000000" stroke-width="0.03125"></line><line x1="13.0" y1="5" x2="14.0" y2="5" stroke="#000000" stroke-width="0.0625"></line><line x1="13.5" y1="3.5" x2="13.5" y2="4.5" stroke="#0000ff" stroke-width="0.0625"></line><line x1="14.0" y1="4" x2="15.0" y2="4" stroke="#000000" stroke-width="0.03125"></line><line x1="14.0" y1="4" x2="14.0" y2="5" stroke="#000000" stroke-width="0.03125"></line><line x1="15.0" y1="4" x2="15.0" y2="5" stroke="#000000" stroke-width="0.03125"></line><line x1="14.0" y1="5" x2="15.0" y2="5" stroke="#000000" stroke-width="0.0625"></line><line x1="13.5" y1="3.5" x2="14.5" y2="4.5" stroke="#0000ff" stroke-width="0.0625"></line><line x1="13.5" y1="2.5" x2="13.5" y2="3.5" stroke="#0000ff" stroke-width="0.0625"></line><line x1="15.0" y1="3" x2="18.0" y2="3" stroke="#000000" stroke-width="0.03125"></line><line x1="15.0" y1="3" x2="15.0" y2="4" stroke="#000000" stroke-width="0.03125"></line><line x1="18.0" y1="3" x2="18.0" y2="4" stroke="#000000" stroke-width="0.03125"></line><line x1="15.0" y1="4" x2="16.0" y2="4" stroke="#000000" stroke-width="0.03125"></line><line x1="15.0" y1="4" x2="15.0" y2="5" stroke="#000000" stroke-width="0.03125"></line><line x1="16.0" y1="4" x2="16.0" y2="5" stroke="#000000" stroke-width="0.03125"></line><line x1="15.0" y1="5" x2="16.0" y2="5" stroke="#000000" stroke-width="0.0625"></line><line x1="16.5" y1="3.5" x2="15.5" y2="4.5" stroke="#0000ff" stroke-width="0.0625"></line><line x1="16.0" y1="4" x2="17.0" y2="4" stroke="#000000" stroke-width="0.03125"></line><line x1="16.0" y1="4" x2="16.0" y2="5" stroke="#000000" stroke-width="0.03125"></line><line x1="17.0" y1="4" x2="17.0" y2="5" stroke="#000000" stroke-width="0.03125"></line><line x1="16.0" y1="5" x2="17.0" y2="5" stroke="#000000" stroke-width="0.0625"></line><line x1="16.5" y1="3.5" x2="16.5" y2="4.5" stroke="#0000ff" stroke-width="0.0625"></line><line x1="17.0" y1="4" x2="18.0" y2="4" stroke="#000000" stroke-width="0.03125"></line><line x1="17.0" y1="4" x2="17.0" y2="5" stroke="#000000" stroke-width="0.03125"></line><line x1="18.0" y1="4" x2="18.0" y2="5" stroke="#000000" stroke-width="0.03125"></line><line x1="17.0" y1="5" x2="18.0" y2="5" stroke="#000000" stroke-width="0.0625"></line><line x1="16.5" y1="3.5" x2="17.5" y2="4.5" stroke="#0000ff" stroke-width="0.0625"></line><line x1="13.5" y1="2.5" x2="16.5" y2="3.5" stroke="#0000ff" stroke-width="0.0625"></line><line x1="18.0" y1="1.5" x2="13.5" y2="2.5" stroke="#0000ff" stroke-width="0.0625"></line><line x1="18.0" y1="2" x2="27.0" y2="2" stroke="#000000" stroke-width="0.03125"></line><line x1="18.0" y1="2" x2="18.0" y2="3" stroke="#000000" stroke-width="0.03125"></line><line x1="27.0" y1="2" x2="27.0" y2="3" stroke="#000000" stroke-width="0.03125"></line><line x1="18.0" y1="3" x2="21.0" y2="3" stroke="#000000" stroke-width="0.03125"></line><line x1="18.0" y1="3" x2="18.0" y2="4" stroke="#000000" stroke-width="0.03125"></line><line x1="21.0" y1="3" x2="21.0" y2="4" stroke="#000000" stroke-width="0.03125"></line><line x1="18.0" y1="4" x2="19.0" y2="4" stroke="#000000" stroke-width="0.03125"></line><line x1="18.0" y1="4" x2="18.0" y2="5" stroke="#000000" stroke-width="0.03125"></line><line x1="19.0" y1="4" x2="19.0" y2="5" stroke="#000000" stroke-width="0.03125"></line><line x1="18.0" y1="5" x2="19.0" y2="5" stroke="#000000" stroke-width="0.0625"></line><line x1="19.5" y1="3.5" x2="18.5" y2="4.5" stroke="#0000ff" stroke-width="0.0625"></line><line x1="19.0" y1="4" x2="20.0" y2="4" stroke="#000000" stroke-width="0.03125"></line><line x1="19.0" y1="4" x2="19.0" y2="5" stroke="#000000" stroke-width="0.03125"></line><line x1="20.0" y1="4" x2="20.0" y2="5" stroke="#000000" stroke-width="0.03125"></line><line x1="19.0" y1="5" x2="20.0" y2="5" stroke="#000000" stroke-width="0.0625"></line><line x1="19.5" y1="3.5" x2="19.5" y2="4.5" stroke="#0000ff" stroke-width="0.0625"></line><line x1="20.0" y1="4" x2="21.0" y2="4" stroke="#000000" stroke-width="0.03125"></line><line x1="20.0" y1="4" x2="20.0" y2="5" stroke="#000000" stroke-width="0.03125"></line><line x1="21.0" y1="4" x2="21.0" y2="5" stroke="#000000" stroke-width="0.03125"></line><line x1="20.0" y1="5" x2="21.0" y2="5" stroke="#000000" stroke-width="0.0625"></line><line x1="19.5" y1="3.5" x2="20.5" y2="4.5" stroke="#0000ff" stroke-width="0.0625"></line><line x1="22.5" y1="2.5" x2="19.5" y2="3.5" stroke="#0000ff" stroke-width="0.0625"></line><line x1="21.0" y1="3" x2="24.0" y2="3" stroke="#000000" stroke-width="0.03125"></line><line x1="21.0" y1="3" x2="21.0" y2="4" stroke="#000000" stroke-width="0.03125"></line><line x1="24.0" y1="3" x2="24.0" y2="4" stroke="#000000" stroke-width="0.03125"></line><line x1="21.0" y1="4" x2="22.0" y2="4" stroke="#000000" stroke-width="0.03125"></line><line x1="21.0" y1="4" x2="21.0" y2="5" stroke="#000000" stroke-width="0.03125"></line><line x1="22.0" y1="4" x2="22.0" y2="5" stroke="#000000" stroke-width="0.03125"></line><line x1="21.0" y1="5" x2="22.0" y2="5" stroke="#000000" stroke-width="0.0625"></line><line x1="22.5" y1="3.5" x2="21.5" y2="4.5" stroke="#0000ff" stroke-width="0.0625"></line><line x1="22.0" y1="4" x2="23.0" y2="4" stroke="#000000" stroke-width="0.03125"></line><line x1="22.0" y1="4" x2="22.0" y2="5" stroke="#000000" stroke-width="0.03125"></line><line x1="23.0" y1="4" x2="23.0" y2="5" stroke="#000000" stroke-width="0.03125"></line><line x1="22.0" y1="5" x2="23.0" y2="5" stroke="#000000" stroke-width="0.0625"></line><line x1="22.5" y1="3.5" x2="22.5" y2="4.5" stroke="#0000ff" stroke-width="0.0625"></line><line x1="23.0" y1="4" x2="24.0" y2="4" stroke="#000000" stroke-width="0.03125"></line><line x1="23.0" y1="4" x2="23.0" y2="5" stroke="#000000" stroke-width="0.03125"></line><line x1="24.0" y1="4" x2="24.0" y2="5" stroke="#000000" stroke-width="0.03125"></line><line x1="23.0" y1="5" x2="24.0" y2="5" stroke="#000000" stroke-width="0.0625"></line><line x1="22.5" y1="3.5" x2="23.5" y2="4.5" stroke="#0000ff" stroke-width="0.0625"></line><line x1="22.5" y1="2.5" x2="22.5" y2="3.5" stroke="#0000ff" stroke-width="0.0625"></line><line x1="24.0" y1="3" x2="27.0" y2="3" stroke="#000000" stroke-width="0.03125"></line><line x1="24.0" y1="3" x2="24.0" y2="4" stroke="#000000" stroke-width="0.03125"></line><line x1="27.0" y1="3" x2="27.0" y2="4" stroke="#000000" stroke-width="0.03125"></line><line x1="24.0" y1="4" x2="25.0" y2="4" stroke="#000000" stroke-width="0.03125"></line><line x1="24.0" y1="4" x2="24.0" y2="5" stroke="#000000" stroke-width="0.03125"></line><line x1="25.0" y1="4" x2="25.0" y2="5" stroke="#000000" stroke-width="0.03125"></line><line x1="24.0" y1="5" x2="25.0" y2="5" stroke="#000000" stroke-width="0.0625"></line><line x1="25.5" y1="3.5" x2="24.5" y2="4.5" stroke="#0000ff" stroke-width="0.0625"></line><line x1="25.0" y1="4" x2="26.0" y2="4" stroke="#000000" stroke-width="0.03125"></line><line x1="25.0" y1="4" x2="25.0" y2="5" stroke="#000000" stroke-width="0.03125"></line><line x1="26.0" y1="4" x2="26.0" y2="5" stroke="#000000" stroke-width="0.03125"></line><line x1="25.0" y1="5" x2="26.0" y2="5" stroke="#000000" stroke-width="0.0625"></line><line x1="25.5" y1="3.5" x2="25.5" y2="4.5" stroke="#0000ff" stroke-width="0.0625"></line><line x1="26.0" y1="4" x2="27.0" y2="4" stroke="#000000" stroke-width="0.03125"></line><line x1="26.0" y1="4" x2="26.0" y2="5" stroke="#000000" stroke-width="0.03125"></line><line x1="27.0" y1="4" x2="27.0" y2="5" stroke="#000000" stroke-width="0.03125"></line><line x1="26.0" y1="5" x2="27.0" y2="5" stroke="#000000" stroke-width="0.0625"></line><line x1="25.5" y1="3.5" x2="26.5" y2="4.5" stroke="#0000ff" stroke-width="0.0625"></line><line x1="22.5" y1="2.5" x2="25.5" y2="3.5" stroke="#0000ff" stroke-width="0.0625"></line><line x1="18.0" y1="1.5" x2="22.5" y2="2.5" stroke="#0000ff" stroke-width="0.0625"></line><line x1="27.0" y1="2" x2="36.0" y2="2" stroke="#000000" stroke-width="0.03125"></line><line x1="27.0" y1="2" x2="27.0" y2="3" stroke="#000000" stroke-width="0.03125"></line><line x1="36.0" y1="2" x2="36.0" y2="3" stroke="#000000" stroke-width="0.03125"></line><line x1="27.0" y1="3" x2="30.0" y2="3" stroke="#000000" stroke-width="0.03125"></line><line x1="27.0" y1="3" x2="27.0" y2="4" stroke="#000000" stroke-width="0.03125"></line><line x1="30.0" y1="3" x2="30.0" y2="4" stroke="#000000" stroke-width="0.03125"></line><line x1="27.0" y1="4" x2="28.0" y2="4" stroke="#000000" stroke-width="0.03125"></line><line x1="27.0" y1="4" x2="27.0" y2="5" stroke="#000000" stroke-width="0.03125"></line><line x1="28.0" y1="4" x2="28.0" y2="5" stroke="#000000" stroke-width="0.03125"></line><line x1="27.0" y1="5" x2="28.0" y2="5" stroke="#000000" stroke-width="0.0625"></line><line x1="28.5" y1="3.5" x2="27.5" y2="4.5" stroke="#0000ff" stroke-width="0.0625"></line><line x1="28.0" y1="4" x2="29.0" y2="4" stroke="#000000" stroke-width="0.03125"></line><line x1="28.0" y1="4" x2="28.0" y2="5" stroke="#000000" stroke-width="0.03125"></line><line x1="29.0" y1="4" x2="29.0" y2="5" stroke="#000000" stroke-width="0.03125"></line><line x1="28.0" y1="5" x2="29.0" y2="5" stroke="#000000" stroke-width="0.0625"></line><line x1="28.5" y1="3.5" x2="28.5" y2="4.5" stroke="#0000ff" stroke-width="0.0625"></line><line x1="29.0" y1="4" x2="30.0" y2="4" stroke="#000000" stroke-width="0.03125"></line><line x1="29.0" y1="4" x2="29.0" y2="5" stroke="#000000" stroke-width="0.03125"></line><line x1="30.0" y1="4" x2="30.0" y2="5" stroke="#000000" stroke-width="0.03125"></line><line x1="29.0" y1="5" x2="30.0" y2="5" stroke="#000000" stroke-width="0.0625"></line><line x1="28.5" y1="3.5" x2="29.5" y2="4.5" stroke="#0000ff" stroke-width="0.0625"></line><line x1="31.5" y1="2.5" x2="28.5" y2="3.5" stroke="#0000ff" stroke-width="0.0625"></line><line x1="30.0" y1="3" x2="33.0" y2="3" stroke="#000000" stroke-width="0.03125"></line><line x1="30.0" y1="3" x2="30.0" y2="4" stroke="#000000" stroke-width="0.03125"></line><line x1="33.0" y1="3" x2="33.0" y2="4" stroke="#000000" stroke-width="0.03125"></line><line x1="30.0" y1="4" x2="31.0" y2="4" stroke="#000000" stroke-width="0.03125"></line><line x1="30.0" y1="4" x2="30.0" y2="5" stroke="#000000" stroke-width="0.03125"></line><line x1="31.0" y1="4" x2="31.0" y2="5" stroke="#000000" stroke-width="0.03125"></line><line x1="30.0" y1="5" x2="31.0" y2="5" stroke="#000000" stroke-width="0.0625"></line><line x1="31.5" y1="3.5" x2="30.5" y2="4.5" stroke="#0000ff" stroke-width="0.0625"></line><line x1="31.0" y1="4" x2="32.0" y2="4" stroke="#000000" stroke-width="0.03125"></line><line x1="31.0" y1="4" x2="31.0" y2="5" stroke="#000000" stroke-width="0.03125"></line><line x1="32.0" y1="4" x2="32.0" y2="5" stroke="#000000" stroke-width="0.03125"></line><line x1="31.0" y1="5" x2="32.0" y2="5" stroke="#000000" stroke-width="0.0625"></line><line x1="31.5" y1="3.5" x2="31.5" y2="4.5" stroke="#0000ff" stroke-width="0.0625"></line><line x1="32.0" y1="4" x2="33.0" y2="4" stroke="#000000" stroke-width="0.03125"></line><line x1="32.0" y1="4" x2="32.0" y2="5" stroke="#000000" stroke-width="0.03125"></line><line x1="33.0" y1="4" x2="33.0" y2="5" stroke="#000000" stroke-width="0.03125"></line><line x1="32.0" y1="5" x2="33.0" y2="5" stroke="#000000" stroke-width="0.0625"></line><line x1="31.5" y1="3.5" x2="32.5" y2="4.5" stroke="#0000ff" stroke-width="0.0625"></line><line x1="31.5" y1="2.5" x2="31.5" y2="3.5" stroke="#0000ff" stroke-width="0.0625"></line><line x1="33.0" y1="3" x2="36.0" y2="3" stroke="#000000" stroke-width="0.03125"></line><line x1="33.0" y1="3" x2="33.0" y2="4" stroke="#000000" stroke-width="0.03125"></line><line x1="36.0" y1="3" x2="36.0" y2="4" stroke="#000000" stroke-width="0.03125"></line><line x1="33.0" y1="4" x2="34.0" y2="4" stroke="#000000" stroke-width="0.03125"></line><line x1="33.0" y1="4" x2="33.0" y2="5" stroke="#000000" stroke-width="0.03125"></line><line x1="34.0" y1="4" x2="34.0" y2="5" stroke="#000000" stroke-width="0.03125"></line><line x1="33.0" y1="5" x2="34.0" y2="5" stroke="#000000" stroke-width="0.0625"></line><line x1="34.5" y1="3.5" x2="33.5" y2="4.5" stroke="#0000ff" stroke-width="0.0625"></line><line x1="34.0" y1="4" x2="35.0" y2="4" stroke="#000000" stroke-width="0.03125"></line><line x1="34.0" y1="4" x2="34.0" y2="5" stroke="#000000" stroke-width="0.03125"></line><line x1="35.0" y1="4" x2="35.0" y2="5" stroke="#000000" stroke-width="0.03125"></line><line x1="34.0" y1="5" x2="35.0" y2="5" stroke="#000000" stroke-width="0.0625"></line><line x1="34.5" y1="3.5" x2="34.5" y2="4.5" stroke="#0000ff" stroke-width="0.0625"></line><line x1="35.0" y1="4" x2="36.0" y2="4" stroke="#000000" stroke-width="0.03125"></line><line x1="35.0" y1="4" x2="35.0" y2="5" stroke="#000000" stroke-width="0.03125"></line><line x1="36.0" y1="4" x2="36.0" y2="5" stroke="#000000" stroke-width="0.03125"></line><line x1="35.0" y1="5" x2="36.0" y2="5" stroke="#000000" stroke-width="0.0625"></line><line x1="34.5" y1="3.5" x2="35.5" y2="4.5" stroke="#0000ff" stroke-width="0.0625"></line><line x1="31.5" y1="2.5" x2="34.5" y2="3.5" stroke="#0000ff" stroke-width="0.0625"></line><line x1="18.0" y1="1.5" x2="31.5" y2="2.5" stroke="#0000ff" stroke-width="0.0625"></line><line x1="36.0" y1="0.5" x2="18.0" y2="1.5" stroke="#0000ff" stroke-width="0.0625"></line><line x1="36.0" y1="1" x2="72.0" y2="1" stroke="#000000" stroke-width="0.03125"></line><line x1="36.0" y1="1" x2="36.0" y2="2" stroke="#000000" stroke-width="0.03125"></line><line x1="72.0" y1="1" x2="72.0" y2="2" stroke="#000000" stroke-width="0.03125"></line><line x1="36.0" y1="2" x2="42.0" y2="2" stroke="#000000" stroke-width="0.03125"></line><line x1="36.0" y1="2" x2="36.0" y2="3" stroke="#000000" stroke-width="0.03125"></line><line x1="42.0" y1="2" x2="42.0" y2="3" stroke="#000000" stroke-width="0.03125"></line><line x1="36.0" y1="3" x2="37.0" y2="3" stroke="#000000" stroke-width="0.03125"></line><line x1="36.0" y1="3" x2="36.0" y2="5" stroke="#000000" stroke-width="0.03125"></line><line x1="37.0" y1="3" x2="37.0" y2="5" stroke="#000000" stroke-width="0.03125"></line><line x1="36.0" y1="5" x2="37.0" y2="5" stroke="#000000" stroke-width="0.0625"></line><line x1="39.0" y1="2.5" x2="36.5" y2="3.5" stroke="#0000ff" stroke-width="0.0625"></line><line x1="37.0" y1="3" x2="38.0" y2="3" stroke="#000000" stroke-width="0.03125"></line><line x1="37.0" y1="3" x2="37.0" y2="5" stroke="#000000" stroke-width="0.03125"></line><line x1="38.0" y1="3" x2="38.0" y2="5" stroke="#000000" stroke-width="0.03125"></line><line x1="37.0" y1="5" x2="38.0" y2="5" stroke="#000000" stroke-width="0.0625"></line><line x1="39.0" y1="2.5" x2="37.5" y2="3.5" stroke="#0000ff" stroke-width="0.0625"></line><line x1="38.0" y1="3" x2="39.0" y2="3" stroke="#000000" stroke-width="0.03125"></line><line x1="38.0" y1="3" x2="38.0" y2="5" stroke="#000000" stroke-width="0.03125"></line><line x1="39.0" y1="3" x2="39.0" y2="5" stroke="#000000" stroke-width="0.03125"></line><line x1="38.0" y1="5" x2="39.0" y2="5" stroke="#000000" stroke-width="0.0625"></line><line x1="39.0" y1="2.5" x2="38.5" y2="3.5" stroke="#0000ff" stroke-width="0.0625"></line><line x1="39.0" y1="3" x2="40.0" y2="3" stroke="#000000" stroke-width="0.03125"></line><line x1="39.0" y1="3" x2="39.0" y2="5" stroke="#000000" stroke-width="0.03125"></line><line x1="40.0" y1="3" x2="40.0" y2="5" stroke="#000000" stroke-width="0.03125"></line><line x1="39.0" y1="5" x2="40.0" y2="5" stroke="#000000" stroke-width="0.0625"></line><line x1="39.0" y1="2.5" x2="39.5" y2="3.5" stroke="#0000ff" stroke-width="0.0625"></line><line x1="40.0" y1="3" x2="41.0" y2="3" stroke="#000000" stroke-width="0.03125"></line><line x1="40.0" y1="3" x2="40.0" y2="5" stroke="#000000" stroke-width="0.03125"></line><line x1="41.0" y1="3" x2="41.0" y2="5" stroke="#000000" stroke-width="0.03125"></line><line x1="40.0" y1="5" x2="41.0" y2="5" stroke="#000000" stroke-width="0.0625"></line><line x1="39.0" y1="2.5" x2="40.5" y2="3.5" stroke="#0000ff" stroke-width="0.0625"></line><line x1="41.0" y1="3" x2="42.0" y2="3" stroke="#000000" stroke-width="0.03125"></line><line x1="41.0" y1="3" x2="41.0" y2="5" stroke="#000000" stroke-width="0.03125"></line><line x1="42.0" y1="3" x2="42.0" y2="5" stroke="#000000" stroke-width="0.03125"></line><line x1="41.0" y1="5" x2="42.0" y2="5" stroke="#000000" stroke-width="0.0625"></line><line x1="39.0" y1="2.5" x2="41.5" y2="3.5" stroke="#0000ff" stroke-width="0.0625"></line><line x1="54.0" y1="1.5" x2="39.0" y2="2.5" stroke="#0000ff" stroke-width="0.0625"></line><line x1="42.0" y1="2" x2="48.0" y2="2" stroke="#000000" stroke-width="0.03125"></line><line x1="42.0" y1="2" x2="42.0" y2="3" stroke="#000000" stroke-width="0.03125"></line><line x1="48.0" y1="2" x2="48.0" y2="3" stroke="#000000" stroke-width="0.03125"></line><line x1="42.0" y1="3" x2="43.0" y2="3" stroke="#000000" stroke-width="0.03125"></line><line x1="42.0" y1="3" x2="42.0" y2="5" stroke="#000000" stroke-width="0.03125"></line><line x1="43.0" y1="3" x2="43.0" y2="5" stroke="#000000" stroke-width="0.03125"></line><line x1="42.0" y1="5" x2="43.0" y2="5" stroke="#000000" stroke-width="0.0625"></line><line x1="45.0" y1="2.5" x2="42.5" y2="3.5" stroke="#0000ff" stroke-width="0.0625"></line><line x1="43.0" y1="3" x2="44.0" y2="3" stroke="#000000" stroke-width="0.03125"></line><line x1="43.0" y1="3" x2="43.0" y2="5" stroke="#000000" stroke-width="0.03125"></line><line x1="44.0" y1="3" x2="44.0" y2="5" stroke="#000000" stroke-width="0.03125"></line><line x1="43.0" y1="5" x2="44.0" y2="5" stroke="#000000" stroke-width="0.0625"></line><line x1="45.0" y1="2.5" x2="43.5" y2="3.5" stroke="#0000ff" stroke-width="0.0625"></line><line x1="44.0" y1="3" x2="45.0" y2="3" stroke="#000000" stroke-width="0.03125"></line><line x1="44.0" y1="3" x2="44.0" y2="5" stroke="#000000" stroke-width="0.03125"></line><line x1="45.0" y1="3" x2="45.0" y2="5" stroke="#000000" stroke-width="0.03125"></line><line x1="44.0" y1="5" x2="45.0" y2="5" stroke="#000000" stroke-width="0.0625"></line><line x1="45.0" y1="2.5" x2="44.5" y2="3.5" stroke="#0000ff" stroke-width="0.0625"></line><line x1="45.0" y1="3" x2="46.0" y2="3" stroke="#000000" stroke-width="0.03125"></line><line x1="45.0" y1="3" x2="45.0" y2="5" stroke="#000000" stroke-width="0.03125"></line><line x1="46.0" y1="3" x2="46.0" y2="5" stroke="#000000" stroke-width="0.03125"></line><line x1="45.0" y1="5" x2="46.0" y2="5" stroke="#000000" stroke-width="0.0625"></line><line x1="45.0" y1="2.5" x2="45.5" y2="3.5" stroke="#0000ff" stroke-width="0.0625"></line><line x1="46.0" y1="3" x2="47.0" y2="3" stroke="#000000" stroke-width="0.03125"></line><line x1="46.0" y1="3" x2="46.0" y2="5" stroke="#000000" stroke-width="0.03125"></line><line x1="47.0" y1="3" x2="47.0" y2="5" stroke="#000000" stroke-width="0.03125"></line><line x1="46.0" y1="5" x2="47.0" y2="5" stroke="#000000" stroke-width="0.0625"></line><line x1="45.0" y1="2.5" x2="46.5" y2="3.5" stroke="#0000ff" stroke-width="0.0625"></line><line x1="47.0" y1="3" x2="48.0" y2="3" stroke="#000000" stroke-width="0.03125"></line><line x1="47.0" y1="3" x2="47.0" y2="5" stroke="#000000" stroke-width="0.03125"></line><line x1="48.0" y1="3" x2="48.0" y2="5" stroke="#000000" stroke-width="0.03125"></line><line x1="47.0" y1="5" x2="48.0" y2="5" stroke="#000000" stroke-width="0.0625"></line><line x1="45.0" y1="2.5" x2="47.5" y2="3.5" stroke="#0000ff" stroke-width="0.0625"></line><line x1="54.0" y1="1.5" x2="45.0" y2="2.5" stroke="#0000ff" stroke-width="0.0625"></line><line x1="48.0" y1="2" x2="54.0" y2="2" stroke="#000000" stroke-width="0.03125"></line><line x1="48.0" y1="2" x2="48.0" y2="3" stroke="#000000" stroke-width="0.03125"></line><line x1="54.0" y1="2" x2="54.0" y2="3" stroke="#000000" stroke-width="0.03125"></line><line x1="48.0" y1="3" x2="49.0" y2="3" stroke="#000000" stroke-width="0.03125"></line><line x1="48.0" y1="3" x2="48.0" y2="5" stroke="#000000" stroke-width="0.03125"></line><line x1="49.0" y1="3" x2="49.0" y2="5" stroke="#000000" stroke-width="0.03125"></line><line x1="48.0" y1="5" x2="49.0" y2="5" stroke="#000000" stroke-width="0.0625"></line><line x1="51.0" y1="2.5" x2="48.5" y2="3.5" stroke="#0000ff" stroke-width="0.0625"></line><line x1="49.0" y1="3" x2="50.0" y2="3" stroke="#000000" stroke-width="0.03125"></line><line x1="49.0" y1="3" x2="49.0" y2="5" stroke="#000000" stroke-width="0.03125"></line><line x1="50.0" y1="3" x2="50.0" y2="5" stroke="#000000" stroke-width="0.03125"></line><line x1="49.0" y1="5" x2="50.0" y2="5" stroke="#000000" stroke-width="0.0625"></line><line x1="51.0" y1="2.5" x2="49.5" y2="3.5" stroke="#0000ff" stroke-width="0.0625"></line><line x1="50.0" y1="3" x2="51.0" y2="3" stroke="#000000" stroke-width="0.03125"></line><line x1="50.0" y1="3" x2="50.0" y2="5" stroke="#000000" stroke-width="0.03125"></line><line x1="51.0" y1="3" x2="51.0" y2="5" stroke="#000000" stroke-width="0.03125"></line><line x1="50.0" y1="5" x2="51.0" y2="5" stroke="#000000" stroke-width="0.0625"></line><line x1="51.0" y1="2.5" x2="50.5" y2="3.5" stroke="#0000ff" stroke-width="0.0625"></line><line x1="51.0" y1="3" x2="52.0" y2="3" stroke="#000000" stroke-width="0.03125"></line><line x1="51.0" y1="3" x2="51.0" y2="5" stroke="#000000" stroke-width="0.03125"></line><line x1="52.0" y1="3" x2="52.0" y2="5" stroke="#000000" stroke-width="0.03125"></line><line x1="51.0" y1="5" x2="52.0" y2="5" stroke="#000000" stroke-width="0.0625"></line><line x1="51.0" y1="2.5" x2="51.5" y2="3.5" stroke="#0000ff" stroke-width="0.0625"></line><line x1="52.0" y1="3" x2="53.0" y2="3" stroke="#000000" stroke-width="0.03125"></line><line x1="52.0" y1="3" x2="52.0" y2="5" stroke="#000000" stroke-width="0.03125"></line><line x1="53.0" y1="3" x2="53.0" y2="5" stroke="#000000" stroke-width="0.03125"></line><line x1="52.0" y1="5" x2="53.0" y2="5" stroke="#000000" stroke-width="0.0625"></line><line x1="51.0" y1="2.5" x2="52.5" y2="3.5" stroke="#0000ff" stroke-width="0.0625"></line><line x1="53.0" y1="3" x2="54.0" y2="3" stroke="#000000" stroke-width="0.03125"></line><line x1="53.0" y1="3" x2="53.0" y2="5" stroke="#000000" stroke-width="0.03125"></line><line x1="54.0" y1="3" x2="54.0" y2="5" stroke="#000000" stroke-width="0.03125"></line><line x1="53.0" y1="5" x2="54.0" y2="5" stroke="#000000" stroke-width="0.0625"></line><line x1="51.0" y1="2.5" x2="53.5" y2="3.5" stroke="#0000ff" stroke-width="0.0625"></line><line x1="54.0" y1="1.5" x2="51.0" y2="2.5" stroke="#0000ff" stroke-width="0.0625"></line><line x1="54.0" y1="2" x2="60.0" y2="2" stroke="#000000" stroke-width="0.03125"></line><line x1="54.0" y1="2" x2="54.0" y2="3" stroke="#000000" stroke-width="0.03125"></line><line x1="60.0" y1="2" x2="60.0" y2="3" stroke="#000000" stroke-width="0.03125"></line><line x1="54.0" y1="3" x2="55.0" y2="3" stroke="#000000" stroke-width="0.03125"></line><line x1="54.0" y1="3" x2="54.0" y2="5" stroke="#000000" stroke-width="0.03125"></line><line x1="55.0" y1="3" x2="55.0" y2="5" stroke="#000000" stroke-width="0.03125"></line><line x1="54.0" y1="5" x2="55.0" y2="5" stroke="#000000" stroke-width="0.0625"></line><line x1="57.0" y1="2.5" x2="54.5" y2="3.5" stroke="#0000ff" stroke-width="0.0625"></line><line x1="55.0" y1="3" x2="56.0" y2="3" stroke="#000000" stroke-width="0.03125"></line><line x1="55.0" y1="3" x2="55.0" y2="5" stroke="#000000" stroke-width="0.03125"></line><line x1="56.0" y1="3" x2="56.0" y2="5" stroke="#000000" stroke-width="0.03125"></line><line x1="55.0" y1="5" x2="56.0" y2="5" stroke="#000000" stroke-width="0.0625"></line><line x1="57.0" y1="2.5" x2="55.5" y2="3.5" stroke="#0000ff" stroke-width="0.0625"></line><line x1="56.0" y1="3" x2="57.0" y2="3" stroke="#000000" stroke-width="0.03125"></line><line x1="56.0" y1="3" x2="56.0" y2="5" stroke="#000000" stroke-width="0.03125"></line><line x1="57.0" y1="3" x2="57.0" y2="5" stroke="#000000" stroke-width="0.03125"></line><line x1="56.0" y1="5" x2="57.0" y2="5" stroke="#000000" stroke-width="0.0625"></line><line x1="57.0" y1="2.5" x2="56.5" y2="3.5" stroke="#0000ff" stroke-width="0.0625"></line><line x1="57.0" y1="3" x2="58.0" y2="3" stroke="#000000" stroke-width="0.03125"></line><line x1="57.0" y1="3" x2="57.0" y2="5" stroke="#000000" stroke-width="0.03125"></line><line x1="58.0" y1="3" x2="58.0" y2="5" stroke="#000000" stroke-width="0.03125"></line><line x1="57.0" y1="5" x2="58.0" y2="5" stroke="#000000" stroke-width="0.0625"></line><line x1="57.0" y1="2.5" x2="57.5" y2="3.5" stroke="#0000ff" stroke-width="0.0625"></line><line x1="58.0" y1="3" x2="59.0" y2="3" stroke="#000000" stroke-width="0.03125"></line><line x1="58.0" y1="3" x2="58.0" y2="5" stroke="#000000" stroke-width="0.03125"></line><line x1="59.0" y1="3" x2="59.0" y2="5" stroke="#000000" stroke-width="0.03125"></line><line x1="58.0" y1="5" x2="59.0" y2="5" stroke="#000000" stroke-width="0.0625"></line><line x1="57.0" y1="2.5" x2="58.5" y2="3.5" stroke="#0000ff" stroke-width="0.0625"></line><line x1="59.0" y1="3" x2="60.0" y2="3" stroke="#000000" stroke-width="0.03125"></line><line x1="59.0" y1="3" x2="59.0" y2="5" stroke="#000000" stroke-width="0.03125"></line><line x1="60.0" y1="3" x2="60.0" y2="5" stroke="#000000" stroke-width="0.03125"></line><line x1="59.0" y1="5" x2="60.0" y2="5" stroke="#000000" stroke-width="0.0625"></line><line x1="57.0" y1="2.5" x2="59.5" y2="3.5" stroke="#0000ff" stroke-width="0.0625"></line><line x1="54.0" y1="1.5" x2="57.0" y2="2.5" stroke="#0000ff" stroke-width="0.0625"></line><line x1="60.0" y1="2" x2="66.0" y2="2" stroke="#000000" stroke-width="0.03125"></line><line x1="60.0" y1="2" x2="60.0" y2="3" stroke="#000000" stroke-width="0.03125"></line><line x1="66.0" y1="2" x2="66.0" y2="3" stroke="#000000" stroke-width="0.03125"></line><line x1="60.0" y1="3" x2="61.0" y2="3" stroke="#000000" stroke-width="0.03125"></line><line x1="60.0" y1="3" x2="60.0" y2="5" stroke="#000000" stroke-width="0.03125"></line><line x1="61.0" y1="3" x2="61.0" y2="5" stroke="#000000" stroke-width="0.03125"></line><line x1="60.0" y1="5" x2="61.0" y2="5" stroke="#000000" stroke-width="0.0625"></line><line x1="63.0" y1="2.5" x2="60.5" y2="3.5" stroke="#0000ff" stroke-width="0.0625"></line><line x1="61.0" y1="3" x2="62.0" y2="3" stroke="#000000" stroke-width="0.03125"></line><line x1="61.0" y1="3" x2="61.0" y2="5" stroke="#000000" stroke-width="0.03125"></line><line x1="62.0" y1="3" x2="62.0" y2="5" stroke="#000000" stroke-width="0.03125"></line><line x1="61.0" y1="5" x2="62.0" y2="5" stroke="#000000" stroke-width="0.0625"></line><line x1="63.0" y1="2.5" x2="61.5" y2="3.5" stroke="#0000ff" stroke-width="0.0625"></line><line x1="62.0" y1="3" x2="63.0" y2="3" stroke="#000000" stroke-width="0.03125"></line><line x1="62.0" y1="3" x2="62.0" y2="5" stroke="#000000" stroke-width="0.03125"></line><line x1="63.0" y1="3" x2="63.0" y2="5" stroke="#000000" stroke-width="0.03125"></line><line x1="62.0" y1="5" x2="63.0" y2="5" stroke="#000000" stroke-width="0.0625"></line><line x1="63.0" y1="2.5" x2="62.5" y2="3.5" stroke="#0000ff" stroke-width="0.0625"></line><line x1="63.0" y1="3" x2="64.0" y2="3" stroke="#000000" stroke-width="0.03125"></line><line x1="63.0" y1="3" x2="63.0" y2="5" stroke="#000000" stroke-width="0.03125"></line><line x1="64.0" y1="3" x2="64.0" y2="5" stroke="#000000" stroke-width="0.03125"></line><line x1="63.0" y1="5" x2="64.0" y2="5" stroke="#000000" stroke-width="0.0625"></line><line x1="63.0" y1="2.5" x2="63.5" y2="3.5" stroke="#0000ff" stroke-width="0.0625"></line><line x1="64.0" y1="3" x2="65.0" y2="3" stroke="#000000" stroke-width="0.03125"></line><line x1="64.0" y1="3" x2="64.0" y2="5" stroke="#000000" stroke-width="0.03125"></line><line x1="65.0" y1="3" x2="65.0" y2="5" stroke="#000000" stroke-width="0.03125"></line><line x1="64.0" y1="5" x2="65.0" y2="5" stroke="#000000" stroke-width="0.0625"></line><line x1="63.0" y1="2.5" x2="64.5" y2="3.5" stroke="#0000ff" stroke-width="0.0625"></line><line x1="65.0" y1="3" x2="66.0" y2="3" stroke="#000000" stroke-width="0.03125"></line><line x1="65.0" y1="3" x2="65.0" y2="5" stroke="#000000" stroke-width="0.03125"></line><line x1="66.0" y1="3" x2="66.0" y2="5" stroke="#000000" stroke-width="0.03125"></line><line x1="65.0" y1="5" x2="66.0" y2="5" stroke="#000000" stroke-width="0.0625"></line><line x1="63.0" y1="2.5" x2="65.5" y2="3.5" stroke="#0000ff" stroke-width="0.0625"></line><line x1="54.0" y1="1.5" x2="63.0" y2="2.5" stroke="#0000ff" stroke-width="0.0625"></line><line x1="66.0" y1="2" x2="72.0" y2="2" stroke="#000000" stroke-width="0.03125"></line><line x1="66.0" y1="2" x2="66.0" y2="3" stroke="#000000" stroke-width="0.03125"></line><line x1="72.0" y1="2" x2="72.0" y2="3" stroke="#000000" stroke-width="0.03125"></line><line x1="66.0" y1="3" x2="67.0" y2="3" stroke="#000000" stroke-width="0.03125"></line><line x1="66.0" y1="3" x2="66.0" y2="5" stroke="#000000" stroke-width="0.03125"></line><line x1="67.0" y1="3" x2="67.0" y2="5" stroke="#000000" stroke-width="0.03125"></line><line x1="66.0" y1="5" x2="67.0" y2="5" stroke="#000000" stroke-width="0.0625"></line><line x1="69.0" y1="2.5" x2="66.5" y2="3.5" stroke="#0000ff" stroke-width="0.0625"></line><line x1="67.0" y1="3" x2="68.0" y2="3" stroke="#000000" stroke-width="0.03125"></line><line x1="67.0" y1="3" x2="67.0" y2="5" stroke="#000000" stroke-width="0.03125"></line><line x1="68.0" y1="3" x2="68.0" y2="5" stroke="#000000" stroke-width="0.03125"></line><line x1="67.0" y1="5" x2="68.0" y2="5" stroke="#000000" stroke-width="0.0625"></line><line x1="69.0" y1="2.5" x2="67.5" y2="3.5" stroke="#0000ff" stroke-width="0.0625"></line><line x1="68.0" y1="3" x2="69.0" y2="3" stroke="#000000" stroke-width="0.03125"></line><line x1="68.0" y1="3" x2="68.0" y2="5" stroke="#000000" stroke-width="0.03125"></line><line x1="69.0" y1="3" x2="69.0" y2="5" stroke="#000000" stroke-width="0.03125"></line><line x1="68.0" y1="5" x2="69.0" y2="5" stroke="#000000" stroke-width="0.0625"></line><line x1="69.0" y1="2.5" x2="68.5" y2="3.5" stroke="#0000ff" stroke-width="0.0625"></line><line x1="69.0" y1="3" x2="70.0" y2="3" stroke="#000000" stroke-width="0.03125"></line><line x1="69.0" y1="3" x2="69.0" y2="5" stroke="#000000" stroke-width="0.03125"></line><line x1="70.0" y1="3" x2="70.0" y2="5" stroke="#000000" stroke-width="0.03125"></line><line x1="69.0" y1="5" x2="70.0" y2="5" stroke="#000000" stroke-width="0.0625"></line><line x1="69.0" y1="2.5" x2="69.5" y2="3.5" stroke="#0000ff" stroke-width="0.0625"></line><line x1="70.0" y1="3" x2="71.0" y2="3" stroke="#000000" stroke-width="0.03125"></line><line x1="70.0" y1="3" x2="70.0" y2="5" stroke="#000000" stroke-width="0.03125"></line><line x1="71.0" y1="3" x2="71.0" y2="5" stroke="#000000" stroke-width="0.03125"></line><line x1="70.0" y1="5" x2="71.0" y2="5" stroke="#000000" stroke-width="0.0625"></line><line x1="69.0" y1="2.5" x2="70.5" y2="3.5" stroke="#0000ff" stroke-width="0.0625"></line><line x1="71.0" y1="3" x2="72.0" y2="3" stroke="#000000" stroke-width="0.03125"></line><line x1="71.0" y1="3" x2="71.0" y2="5" stroke="#000000" stroke-width="0.03125"></line><line x1="72.0" y1="3" x2="72.0" y2="5" stroke="#000000" stroke-width="0.03125"></line><line x1="71.0" y1="5" x2="72.0" y2="5" stroke="#000000" stroke-width="0.0625"></line><line x1="69.0" y1="2.5" x2="71.5" y2="3.5" stroke="#0000ff" stroke-width="0.0625"></line><line x1="54.0" y1="1.5" x2="69.0" y2="2.5" stroke="#0000ff" stroke-width="0.0625"></line><line x1="36.0" y1="0.5" x2="54.0" y2="1.5" stroke="#0000ff" stroke-width="0.0625"></line><circle cx="36.0" cy="0.5" r="0.0625" fill="#ff0000"></circle><circle cx="18.0" cy="1.5" r="0.0625" fill="#ff0000"></circle><circle cx="4.5" cy="2.5" r="0.0625" fill="#ff0000"></circle><circle cx="1.5" cy="3.5" r="0.0625" fill="#ff0000"></circle><circle cx="0.5" cy="4.5" r="0.0625" fill="#ff0000"></circle><circle cx="1.5" cy="4.5" r="0.0625" fill="#ff0000"></circle><circle cx="2.5" cy="4.5" r="0.0625" fill="#ff0000"></circle><circle cx="4.5" cy="3.5" r="0.0625" fill="#ff0000"></circle><circle cx="3.5" cy="4.5" r="0.0625" fill="#ff0000"></circle><circle cx="4.5" cy="4.5" r="0.0625" fill="#ff0000"></circle><circle cx="5.5" cy="4.5" r="0.0625" fill="#ff0000"></circle><circle cx="7.5" cy="3.5" r="0.0625" fill="#ff0000"></circle><circle cx="6.5" cy="4.5" r="0.0625" fill="#ff0000"></circle><circle cx="7.5" cy="4.5" r="0.0625" fill="#ff0000"></circle><circle cx="8.5" cy="4.5" r="0.0625" fill="#ff0000"></circle><circle cx="13.5" cy="2.5" r="0.0625" fill="#ff0000"></circle><circle cx="10.5" cy="3.5" r="0.0625" fill="#ff0000"></circle><circle cx="9.5" cy="4.5" r="0.0625" fill="#ff0000"></circle><circle cx="10.5" cy="4.5" r="0.0625" fill="#ff0000"></circle><circle cx="11.5" cy="4.5" r="0.0625" fill="#ff0000"></circle><circle cx="13.5" cy="3.5" r="0.0625" fill="#ff0000"></circle><circle cx="12.5" cy="4.5" r="0.0625" fill="#ff0000"></circle><circle cx="13.5" cy="4.5" r="0.0625" fill="#ff0000"></circle><circle cx="14.5" cy="4.5" r="0.0625" fill="#ff0000"></circle><circle cx="16.5" cy="3.5" r="0.0625" fill="#ff0000"></circle><circle cx="15.5" cy="4.5" r="0.0625" fill="#ff0000"></circle><circle cx="16.5" cy="4.5" r="0.0625" fill="#ff0000"></circle><circle cx="17.5" cy="4.5" r="0.0625" fill="#ff0000"></circle><circle cx="22.5" cy="2.5" r="0.0625" fill="#ff0000"></circle><circle cx="19.5" cy="3.5" r="0.0625" fill="#ff0000"></circle><circle cx="18.5" cy="4.5" r="0.0625" fill="#ff0000"></circle><circle cx="19.5" cy="4.5" r="0.0625" fill="#ff0000"></circle><circle cx="20.5" cy="4.5" r="0.0625" fill="#ff0000"></circle><circle cx="22.5" cy="3.5" r="0.0625" fill="#ff0000"></circle><circle cx="21.5" cy="4.5" r="0.0625" fill="#ff0000"></circle><circle cx="22.5" cy="4.5" r="0.0625" fill="#ff0000"></circle><circle cx="23.5" cy="4.5" r="0.0625" fill="#ff0000"></circle><circle cx="25.5" cy="3.5" r="0.0625" fill="#ff0000"></circle><circle cx="24.5" cy="4.5" r="0.0625" fill="#ff0000"></circle><circle cx="25.5" cy="4.5" r="0.0625" fill="#ff0000"></circle><circle cx="26.5" cy="4.5" r="0.0625" fill="#ff0000"></circle><circle cx="31.5" cy="2.5" r="0.0625" fill="#ff0000"></circle><circle cx="28.5" cy="3.5" r="0.0625" fill="#ff0000"></circle><circle cx="27.5" cy="4.5" r="0.0625" fill="#ff0000"></circle><circle cx="28.5" cy="4.5" r="0.0625" fill="#ff0000"></circle><circle cx="29.5" cy="4.5" r="0.0625" fill="#ff0000"></circle><circle cx="31.5" cy="3.5" r="0.0625" fill="#ff0000"></circle><circle cx="30.5" cy="4.5" r="0.0625" fill="#ff0000"></circle><circle cx="31.5" cy="4.5" r="0.0625" fill="#ff0000"></circle><circle cx="32.5" cy="4.5" r="0.0625" fill="#ff0000"></circle><circle cx="34.5" cy="3.5" r="0.0625" fill="#ff0000"></circle><circle cx="33.5" cy="4.5" r="0.0625" fill="#ff0000"></circle><circle cx="34.5" cy="4.5" r="0.0625" fill="#ff0000"></circle><circle cx="35.5" cy="4.5" r="0.0625" fill="#ff0000"></circle><circle cx="54.0" cy="1.5" r="0.0625" fill="#ff0000"></circle><circle cx="39.0" cy="2.5" r="0.0625" fill="#ff0000"></circle><circle cx="36.5" cy="3.5" r="0.0625" fill="#ff0000"></circle><circle cx="37.5" cy="3.5" r="0.0625" fill="#ff0000"></circle><circle cx="38.5" cy="3.5" r="0.0625" fill="#ff0000"></circle><circle cx="39.5" cy="3.5" r="0.0625" fill="#ff0000"></circle><circle cx="40.5" cy="3.5" r="0.0625" fill="#ff0000"></circle><circle cx="41.5" cy="3.5" r="0.0625" fill="#ff0000"></circle><circle cx="45.0" cy="2.5" r="0.0625" fill="#ff0000"></circle><circle cx="42.5" cy="3.5" r="0.0625" fill="#ff0000"></circle><circle cx="43.5" cy="3.5" r="0.0625" fill="#ff0000"></circle><circle cx="44.5" cy="3.5" r="0.0625" fill="#ff0000"></circle><circle cx="45.5" cy="3.5" r="0.0625" fill="#ff0000"></circle><circle cx="46.5" cy="3.5" r="0.0625" fill="#ff0000"></circle><circle cx="47.5" cy="3.5" r="0.0625" fill="#ff0000"></circle><circle cx="51.0" cy="2.5" r="0.0625" fill="#ff0000"></circle><circle cx="48.5" cy="3.5" r="0.0625" fill="#ff0000"></circle><circle cx="49.5" cy="3.5" r="0.0625" fill="#ff0000"></circle><circle cx="50.5" cy="3.5" r="0.0625" fill="#ff0000"></circle><circle cx="51.5" cy="3.5" r="0.0625" fill="#ff0000"></circle><circle cx="52.5" cy="3.5" r="0.0625" fill="#ff0000"></circle><circle cx="53.5" cy="3.5" r="0.0625" fill="#ff0000"></circle><circle cx="57.0" cy="2.5" r="0.0625" fill="#ff0000"></circle><circle cx="54.5" cy="3.5" r="0.0625" fill="#ff0000"></circle><circle cx="55.5" cy="3.5" r="0.0625" fill="#ff0000"></circle><circle cx="56.5" cy="3.5" r="0.0625" fill="#ff0000"></circle><circle cx="57.5" cy="3.5" r="0.0625" fill="#ff0000"></circle><circle cx="58.5" cy="3.5" r="0.0625" fill="#ff0000"></circle><circle cx="59.5" cy="3.5" r="0.0625" fill="#ff0000"></circle><circle cx="63.0" cy="2.5" r="0.0625" fill="#ff0000"></circle><circle cx="60.5" cy="3.5" r="0.0625" fill="#ff0000"></circle><circle cx="61.5" cy="3.5" r="0.0625" fill="#ff0000"></circle><circle cx="62.5" cy="3.5" r="0.0625" fill="#ff0000"></circle><circle cx="63.5" cy="3.5" r="0.0625" fill="#ff0000"></circle><circle cx="64.5" cy="3.5" r="0.0625" fill="#ff0000"></circle><circle cx="65.5" cy="3.5" r="0.0625" fill="#ff0000"></circle><circle cx="69.0" cy="2.5" r="0.0625" fill="#ff0000"></circle><circle cx="66.5" cy="3.5" r="0.0625" fill="#ff0000"></circle><circle cx="67.5" cy="3.5" r="0.0625" fill="#ff0000"></circle><circle cx="68.5" cy="3.5" r="0.0625" fill="#ff0000"></circle><circle cx="69.5" cy="3.5" r="0.0625" fill="#ff0000"></circle><circle cx="70.5" cy="3.5" r="0.0625" fill="#ff0000"></circle><circle cx="71.5" cy="3.5" r="0.0625" fill="#ff0000"></circle></g><use href="#graph" y="5.0" transform=" translate(0, 5.0) rotate(180, 36.0, 5.0)"></use></svg>