<svg width="16cm" height="8cm" viewBox="0, 0, 16, 8" version="1.1" xmlns="http://www.w3.org/2000/svg"><g id="graph"><line x1="0" y1="0" x2="16" y2="0" stroke="#000000" stroke-width="0.03125"></line><line x1="0" y1="0" x2="0" y2="1" stroke="#000000" stroke-width="0.03125"></line><line x1="16" y1="0" x2="16" y2="1" stroke="#000000" stroke-width="0.03125"></line><line x1="0" y1="1" x2="5.333333333333333" y2="1" stroke="#000000" stroke-width="0.03125"></line><line x1="0" y1="1" x2="0" y2="2" stroke="#000000" stroke-width="0.03125"></line><line x1="5.333333333333333" y1="1" x2="5.333333333333333" y2="2" stroke="#000000" stroke-width="0.03125"></line><line x1="0" y1="2" x2="2.6666666666666665" y2="2" stroke="#000000" stroke-width="0.03125"></line><line x1="0" y1="2" x2="0" y2="3" stroke="#000000" stroke-width="0.03125"></line><line x1="2.6666666666666665" y1="2" x2="2.6666666666666665" y2="3" stroke="#000000" stroke-width="0.03125"></line><line x1="0" y1="3" x2="1.3333333333333333" y2="3" stroke="#000000" stroke-width="0.03125"></line><line x1="0" y1="3" x2="0" y2="4" stroke="#000000" stroke-width="0.03125"></line><line x1="1.3333333333333333" y1="3" x2="1.3333333333333333" y2="4" stroke="#000000" stroke-width="0.03125"></line><line x1="0" y1="4" x2="1.3333333333333333" y2="4" stroke="#000000" stroke-width="0.0625"></line><line x1="1.3333333333333333" y1="2.5" x2="0.6666666666666666" y2="3.5" stroke="#0000ff" stroke-width="0.0625"></line><line x1="1.3333333333333333" y1="3" x2="2.6666666666666665" y2="3" stroke="#000000" stroke-width="0.03125"></line><line x1="1.3333333333333333" y1="3" x2="1.3333333333333333" y2="4" stroke="#000000" stroke-width="0.03125"></line><line x1="2.6666666666666665" y1="3" x2="2.6666666666666665" y2="4" stroke="#000000" stroke-width="0.03125"></line><line x1="1.3333333333333333" y1="4" x2="2.6666666666666665" y2="4" stroke="#000000" stroke-width="0.0625"></line><line x1="1.3333333333333333" y1="2.5" x2="2.0" y2="3.5" stroke="#0000ff" stroke-width="0.0625"></line><line x1="2.6666666666666665" y1="1.5" x2="1.3333333333333333" y2="2.5" stroke="#0000ff" stroke-width="0.0625"></line><line x1="2.6666666666666665" y1="2" x2="5.333333333333333" y2="2" stroke="#000000" stroke-width="0.03125"></line><line x1="2.6666666666666665" y1="2" x2="2.6666666666666665" y2="3" stroke="#000000" stroke-width="0.03125"></line><line x1="5.333333333333333" y1="2" x2="5.333333333333333" y2="3" stroke="#000000" stroke-width="0.03125"></line><line x1="2.6666666666666665" y1="3" x2="3.5555555555555554" y2="3" stroke="#000000" stroke-width="0.03125"></line><line x1="2.6666666666666665" y1="3" x2="2.6666666666666665" y2="4" stroke="#000000" stroke-width="0.03125"></line><line x1="3.5555555555555554" y1="3" x2="3.5555555555555554" y2="4" stroke="#000000" stroke-width="0.03125"></line><line x1="2.6666666666666665" y1="4" x2="3.5555555555555554" y2="4" stroke="#000000" stroke-width="0.0625"></line><line x1="4.0" y1="2.5" x2="3.1111111111111107" y2="3.5" stroke="#0000ff" stroke-width="0.0625"></line><line x1="3.5555555555555554" y1="3" x2="4.444444444444445" y2="3" stroke="#000000" stroke-width="0.03125"></line><line x1="3.5555555555555554" y1="3" x2="3.5555555555555554" y2="4" stroke="#000000" stroke-width="0.03125"></line><line x1="4.444444444444445" y1="3" x2="4.444444444444445" y2="4" stroke="#000000" stroke-width="0.03125"></line><line x1="3.5555555555555554" y1="4" x2="4.444444444444445" y2="4" stroke="#000000" stroke-width="0.0625"></line><line x1="4.0" y1="2.5" x2="4.0" y2="3.5" stroke="#0000ff" stroke-width="0.0625"></line><line x1="4.444444444444445" y1="3" x2="5.333333333333334" y2="3" stroke="#000000" stroke-width="0.03125"></line><line x1="4.444444444444445" y1="3" x2="4.444444444444445" y2="4" stroke="#000000" stroke-width="0.03125"></line><line x1="5.333333333333334" y1="3" x2="5.333333333333334" y2="4" stroke="#000000" stroke-width="0.03125"></line><line x1="4.444444444444445" y1="4" x2="5.333333333333334" y2="4" stroke="#000000" stroke-width="0.0625"></line><line x1="4.0" y1="2.5" x2="4.888888888888889" y2="3.5" stroke="#0000ff" stroke-width="0.0625"></line><line x1="2.6666666666666665" y1="1.5" x2="4.0" y2="2.5" stroke="#0000ff" stroke-width="0.0625"></line><line x1="8.0" y1="0.5" x2="2.6666666666666665" y2="1.5" stroke="#0000ff" stroke-width="0.0625"></line><line x1="5.333333333333333" y1="1" x2="10.666666666666666" y2="1" stroke="#000000" stroke-width="0.03125"></line><line x1="5.333333333333333" y1="1" x2="5.333333333333333" y2="2" stroke="#000000" stroke-width="0.03125"></line><line x1="10.666666666666666" y1="1" x2="10.666666666666666" y2="2" stroke="#000000" stroke-width="0.03125"></line><line x1="5.333333333333333" y1="2" x2="7.111111111111111" y2="2" stroke="#000000" stroke-width="0.03125"></line><line x1="5.333333333333333" y1="2" x2="5.333333333333333" y2="3" stroke="#000000" stroke-width="0.03125"></line><line x1="7.111111111111111" y1="2" x2="7.111111111111111" y2="3" stroke="#000000" stroke-width="0.03125"></line><line x1="5.333333333333333" y1="3" x2="5.688888888888888" y2="3" stroke="#000000" stroke-width="0.03125"></line><line x1="5.333333333333333" y1="3" x2="5.333333333333333" y2="4" stroke="#000000" stroke-width="0.03125"></line><line x1="5.688888888888888" y1="3" x2="5.688888888888888" y2="4" stroke="#000000" stroke-width="0.03125"></line><line x1="5.333333333333333" y1="4" x2="5.688888888888888" y2="4" stroke="#000000" stroke-width="0.0625"></line><line x1="6.222222222222221" y1="2.5" x2="5.511111111111111" y2="3.5" stroke="#0000ff" stroke-width="0.0625"></line><line x1="5.688888888888888" y1="3" x2="6.044444444444443" y2="3" stroke="#000000" stroke-width="0.03125"></line><line x1="5.688888888888888" y1="3" x2="5.688888888888888" y2="4" stroke="#000000" stroke-width="0.03125"></line><line x1="6.044444444444443" y1="3" x2="6.044444444444443" y2="4" stroke="#000000" stroke-width="0.03125"></line><line x1="5.688888888888888" y1="4" x2="6.044444444444443" y2="4" stroke="#000000" stroke-width="0.0625"></line><line x1="6.222222222222221" y1="2.5" x2="5.866666666666666" y2="3.5" stroke="#0000ff" stroke-width="0.0625"></line><line x1="6.044444444444444" y1="3" x2="6.3999999999999995" y2="3" stroke="#000000" stroke-width="0.03125"></line><line x1="6.044444444444444" y1="3" x2="6.044444444444444" y2="4" stroke="#000000" stroke-width="0.03125"></line><line x1="6.3999999999999995" y1="3" x2="6.3999999999999995" y2="4" stroke="#000000" stroke-width="0.03125"></line><line x1="6.044444444444444" y1="4" x2="6.3999999999999995" y2="4" stroke="#000000" stroke-width="0.0625"></line><line x1="6.222222222222221" y1="2.5" x2="6.222222222222222" y2="3.5" stroke="#0000ff" stroke-width="0.0625"></line><line x1="6.3999999999999995" y1="3" x2="6.755555555555555" y2="3" stroke="#000000" stroke-width="0.03125"></line><line x1="6.3999999999999995" y1="3" x2="6.3999999999999995" y2="4" stroke="#000000" stroke-width="0.03125"></line><line x1="6.755555555555555" y1="3" x2="6.755555555555555" y2="4" stroke="#000000" stroke-width="0.03125"></line><line x1="6.3999999999999995" y1="4" x2="6.755555555555555" y2="4" stroke="#000000" stroke-width="0.0625"></line><line x1="6.222222222222221" y1="2.5" x2="6.5777777777777775" y2="3.5" stroke="#0000ff" stroke-width="0.0625"></line><line x1="6.755555555555555" y1="3" x2="7.11111111111111" y2="3" stroke="#000000" stroke-width="0.03125"></line><line x1="6.755555555555555" y1="3" x2="6.755555555555555" y2="4" stroke="#000000" stroke-width="0.03125"></line><line x1="7.11111111111111" y1="3" x2="7.11111111111111" y2="4" stroke="#000000" stroke-width="0.03125"></line><line x1="6.755555555555555" y1="4" x2="7.11111111111111" y2="4" stroke="#000000" stroke-width="0.0625"></line><line x1="6.222222222222221" y1="2.5" x2="6.933333333333333" y2="3.5" stroke="#0000ff" stroke-width="0.0625"></line><line x1="8.0" y1="1.5" x2="6.222222222222221" y2="2.5" stroke="#0000ff" stroke-width="0.0625"></line><line x1="7.111111111111111" y1="2" x2="8.88888888888889" y2="2" stroke="#000000" stroke-width="0.03125"></line><line x1="7.111111111111111" y1="2" x2="7.111111111111111" y2="3" stroke="#000000" stroke-width="0.03125"></line><line x1="8.88888888888889" y1="2" x2="8.88888888888889" y2="3" stroke="#000000" stroke-width="0.03125"></line><line x1="7.111111111111111" y1="3" x2="8.0" y2="3" stroke="#000000" stroke-width="0.03125"></line><line x1="7.111111111111111" y1="3" x2="7.111111111111111" y2="4" stroke="#000000" stroke-width="0.03125"></line><line x1="8.0" y1="3" x2="8.0" y2="4" stroke="#000000" stroke-width="0.03125"></line><line x1="7.111111111111111" y1="4" x2="8.0" y2="4" stroke="#000000" stroke-width="0.0625"></line><line x1="8.0" y1="2.5" x2="7.555555555555555" y2="3.5" stroke="#0000ff" stroke-width="0.0625"></line><line x1="8.0" y1="3" x2="8.88888888888889" y2="3" stroke="#000000" stroke-width="0.03125"></line><line x1="8.0" y1="3" x2="8.0" y2="4" stroke="#000000" stroke-width="0.03125"></line><line x1="8.88888888888889" y1="3" x2="8.88888888888889" y2="4" stroke="#000000" stroke-width="0.03125"></line><line x1="8.0" y1="4" x2="8.88888888888889" y2="4" stroke="#000000" stroke-width="0.0625"></line><line x1="8.0" y1="2.5" x2="8.444444444444445" y2="3.5" stroke="#0000ff" stroke-width="0.0625"></line><line x1="8.0" y1="1.5" x2="8.0" y2="2.5" stroke="#0000ff" stroke-width="0.0625"></line><line x1="8.88888888888889" y1="2" x2="10.666666666666668" y2="2" stroke="#000000" stroke-width="0.03125"></line><line x1="8.88888888888889" y1="2" x2="8.88888888888889" y2="3" stroke="#000000" stroke-width="0.03125"></line><line x1="10.666666666666668" y1="2" x2="10.666666666666668" y2="3" stroke="#000000" stroke-width="0.03125"></line><line x1="8.88888888888889" y1="3" x2="9.481481481481481" y2="3" stroke="#000000" stroke-width="0.03125"></line><line x1="8.88888888888889" y1="3" x2="8.88888888888889" y2="4" stroke="#000000" stroke-width="0.03125"></line><line x1="9.481481481481481" y1="3" x2="9.481481481481481" y2="4" stroke="#000000" stroke-width="0.03125"></line><line x1="8.88888888888889" y1="4" x2="9.481481481481481" y2="4" stroke="#000000" stroke-width="0.0625"></line><line x1="9.777777777777779" y1="2.5" x2="9.185185185185185" y2="3.5" stroke="#0000ff" stroke-width="0.0625"></line><line x1="9.481481481481481" y1="3" x2="10.074074074074073" y2="3" stroke="#000000" stroke-width="0.03125"></line><line x1="9.481481481481481" y1="3" x2="9.481481481481481" y2="4" stroke="#000000" stroke-width="0.03125"></line><line x1="10.074074074074073" y1="3" x2="10.074074074074073" y2="4" stroke="#000000" stroke-width="0.03125"></line><line x1="9.481481481481481" y1="4" x2="10.074074074074073" y2="4" stroke="#000000" stroke-width="0.0625"></line><line x1="9.777777777777779" y1="2.5" x2="9.777777777777777" y2="3.5" stroke="#0000ff" stroke-width="0.0625"></line><line x1="10.074074074074074" y1="3" x2="10.666666666666668" y2="3" stroke="#000000" stroke-width="0.03125"></line><line x1="10.074074074074074" y1="3" x2="10.074074074074074" y2="4" stroke="#000000" stroke-width="0.03125"></line><line x1="10.666666666666668" y1="3" x2="10.666666666666668" y2="4" stroke="#000000" stroke-width="0.03125"></line><line x1="10.074074074074074" y1="4" x2="10.666666666666668" y2="4" stroke="#000000" stroke-width="0.0625"></line><line x1="9.777777777777779" y1="2.5" x2="10.37037037037037" y2="3.5" stroke="#0000ff" stroke-width="0.0625"></line><line x1="8.0" y1="1.5" x2="9.777777777777779" y2="2.5" stroke="#0000ff" stroke-width="0.0625"></line><line x1="8.0" y1="0.5" x2="8.0" y2="1.5" stroke="#0000ff" stroke-width="0.0625"></line><line x1="10.666666666666666" y1="1" x2="16.0" y2="1" stroke="#000000" stroke-width="0.03125"></line><line x1="10.666666666666666" y1="1" x2="10.666666666666666" y2="2" stroke="#000000" stroke-width="0.03125"></line><line x1="16.0" y1="1" x2="16.0" y2="2" stroke="#000000" stroke-width="0.03125"></line><line x1="10.666666666666666" y1="2" x2="12.0" y2="2" stroke="#000000" stroke-width="0.03125"></line><line x1="10.666666666666666" y1="2" x2="10.666666666666666" y2="3" stroke="#000000" stroke-width="0.03125"></line><line x1="12.0" y1="2" x2="12.0" y2="3" stroke="#000000" stroke-width="0.03125"></line><line x1="10.666666666666666" y1="3" x2="11.333333333333332" y2="3" stroke="#000000" stroke-width="0.03125"></line><line x1="10.666666666666666" y1="3" x2="10.666666666666666" y2="4" stroke="#000000" stroke-width="0.03125"></line><line x1="11.333333333333332" y1="3" x2="11.333333333333332" y2="4" stroke="#000000" stroke-width="0.03125"></line><line x1="10.666666666666666" y1="4" x2="11.333333333333332" y2="4" stroke="#000000" stroke-width="0.0625"></line><line x1="11.333333333333332" y1="2.5" x2="11.0" y2="3.5" stroke="#0000ff" stroke-width="0.0625"></line><line x1="11.333333333333332" y1="3" x2="11.999999999999998" y2="3" stroke="#000000" stroke-width="0.03125"></line><line x1="11.333333333333332" y1="3" x2="11.333333333333332" y2="4" stroke="#000000" stroke-width="0.03125"></line><line x1="11.999999999999998" y1="3" x2="11.999999999999998" y2="4" stroke="#000000" stroke-width="0.03125"></line><line x1="11.333333333333332" y1="4" x2="11.999999999999998" y2="4" stroke="#000000" stroke-width="0.0625"></line><line x1="11.333333333333332" y1="2.5" x2="11.666666666666666" y2="3.5" stroke="#0000ff" stroke-width="0.0625"></line><line x1="13.333333333333332" y1="1.5" x2="11.333333333333332" y2="2.5" stroke="#0000ff" stroke-width="0.0625"></line><line x1="12.0" y1="2" x2="13.333333333333334" y2="2" stroke="#000000" stroke-width="0.03125"></line><line x1="12.0" y1="2" x2="12.0" y2="3" stroke="#000000" stroke-width="0.03125"></line><line x1="13.333333333333334" y1="2" x2="13.333333333333334" y2="3" stroke="#000000" stroke-width="0.03125"></line><line x1="12.0" y1="3" x2="12.333333333333334" y2="3" stroke="#000000" stroke-width="0.03125"></line><line x1="12.0" y1="3" x2="12.0" y2="4" stroke="#000000" stroke-width="0.03125"></line><line x1="12.333333333333334" y1="3" x2="12.333333333333334" y2="4" stroke="#000000" stroke-width="0.03125"></line><line x1="12.0" y1="4" x2="12.333333333333334" y2="4" stroke="#000000" stroke-width="0.0625"></line><line x1="12.666666666666666" y1="2.5" x2="12.166666666666666" y2="3.5" stroke="#0000ff" stroke-width="0.0625"></line><line x1="12.333333333333334" y1="3" x2="12.666666666666668" y2="3" stroke="#000000" stroke-width="0.03125"></line><line x1="12.333333333333334" y1="3" x2="12.333333333333334" y2="4" stroke="#000000" stroke-width="0.03125"></line><line x1="12.666666666666668" y1="3" x2="12.666666666666668" y2="4" stroke="#000000" stroke-width="0.03125"></line><line x1="12.333333333333334" y1="4" x2="12.666666666666668" y2="4" stroke="#000000" stroke-width="0.0625"></line><line x1="12.666666666666666" y1="2.5" x2="12.5" y2="3.5" stroke="#0000ff" stroke-width="0.0625"></line><line x1="12.666666666666666" y1="3" x2="13.0" y2="3" stroke="#000000" stroke-width="0.03125"></line><line x1="12.666666666666666" y1="3" x2="12.666666666666666" y2="4" stroke="#000000" stroke-width="0.03125"></line><line x1="13.0" y1="3" x2="13.0" y2="4" stroke="#000000" stroke-width="0.03125"></line><line x1="12.666666666666666" y1="4" x2="13.0" y2="4" stroke="#000000" stroke-width="0.0625"></line><line x1="12.666666666666666" y1="2.5" x2="12.833333333333332" y2="3.5" stroke="#0000ff" stroke-width="0.0625"></line><line x1="13.0" y1="3" x2="13.333333333333334" y2="3" stroke="#000000" stroke-width="0.03125"></line><line x1="13.0" y1="3" x2="13.0" y2="4" stroke="#000000" stroke-width="0.03125"></line><line x1="13.333333333333334" y1="3" x2="13.333333333333334" y2="4" stroke="#000000" stroke-width="0.03125"></line><line x1="13.0" y1="4" x2="13.333333333333334" y2="4" stroke="#000000" stroke-width="0.0625"></line><line x1="12.666666666666666" y1="2.5" x2="13.166666666666666" y2="3.5" stroke="#0000ff" stroke-width="0.0625"></line><line x1="13.333333333333332" y1="1.5" x2="12.666666666666666" y2="2.5" stroke="#0000ff" stroke-width="0.0625"></line><line x1="13.333333333333332" y1="2" x2="14.666666666666666" y2="2" stroke="#000000" stroke-width="0.03125"></line><line x1="13.333333333333332" y1="2" x2="13.333333333333332" y2="3" stroke="#000000" stroke-width="0.03125"></line><line x1="14.666666666666666" y1="2" x2="14.666666666666666" y2="3" stroke="#000000" stroke-width="0.03125"></line><line x1="13.333333333333332" y1="3" x2="13.777777777777777" y2="3" stroke="#000000" stroke-width="0.03125"></line><line x1="13.333333333333332" y1="3" x2="13.333333333333332" y2="4" stroke="#000000" stroke-width="0.03125"></line><line x1="13.777777777777777" y1="3" x2="13.777777777777777" y2="4" stroke="#000000" stroke-width="0.03125"></line><line x1="13.333333333333332" y1="4" x2="13.777777777777777" y2="4" stroke="#000000" stroke-width="0.0625"></line><line x1="13.999999999999998" y1="2.5" x2="13.555555555555554" y2="3.5" stroke="#0000ff" stroke-width="0.0625"></line><line x1="13.777777777777777" y1="3" x2="14.222222222222221" y2="3" stroke="#000000" stroke-width="0.03125"></line><line x1="13.777777777777777" y1="3" x2="13.777777777777777" y2="4" stroke="#000000" stroke-width="0.03125"></line><line x1="14.222222222222221" y1="3" x2="14.222222222222221" y2="4" stroke="#000000" stroke-width="0.03125"></line><line x1="13.777777777777777" y1="4" x2="14.222222222222221" y2="4" stroke="#000000" stroke-width="0.0625"></line><line x1="13.999999999999998" y1="2.5" x2="13.999999999999998" y2="3.5" stroke="#0000ff" stroke-width="0.0625"></line><line x1="14.222222222222221" y1="3" x2="14.666666666666666" y2="3" stroke="#000000" stroke-width="0.03125"></line><line x1="14.222222222222221" y1="3" x2="14.222222222222221" y2="4" stroke="#000000" stroke-width="0.03125"></line><line x1="14.666666666666666" y1="3" x2="14.666666666666666" y2="4" stroke="#000000" stroke-width="0.03125"></line><line x1="14.222222222222221" y1="4" x2="14.666666666666666" y2="4" stroke="#000000" stroke-width="0.0625"></line><line x1="13.999999999999998" y1="2.5" x2="14.444444444444443" y2="3.5" stroke="#0000ff" stroke-width="0.0625"></line><line x1="13.333333333333332" y1="1.5" x2="13.999999999999998" y2="2.5" stroke="#0000ff" stroke-width="0.0625"></line><line x1="14.666666666666666" y1="2" x2="16.0" y2="2" stroke="#000000" stroke-width="0.03125"></line><line x1="14.666666666666666" y1="2" x2="14.666666666666666" y2="4" stroke="#000000" stroke-width="0.03125"></line><line x1="16.0" y1="2" x2="16.0" y2="4" stroke="#000000" stroke-width="0.03125"></line><line x1="14.666666666666666" y1="4" x2="16.0" y2="4" stroke="#000000" stroke-width="0.0625"></line><line x1="13.333333333333332" y1="1.5" x2="15.333333333333332" y2="2.5" stroke="#0000ff" stroke-width="0.0625"></line><line x1="8.0" y1="0.5" x2="13.333333333333332" y2="1.5" stroke="#0000ff" stroke-width="0.0625"></line><circle cx="8.0" cy="0.5" r="0.0625" fill="#ff0000"></circle><circle cx="2.6666666666666665" cy="1.5" r="0.0625" fill="#ff0000"></circle><circle cx="1.3333333333333333" cy="2.5" r="0.0625" fill="#ff0000"></circle><circle cx="0.6666666666666666" cy="3.5" r="0.0625" fill="#ff0000"></circle><circle cx="2.0" cy="3.5" r="0.0625" fill="#ff0000"></circle><circle cx="4.0" cy="2.5" r="0.0625" fill="#ff0000"></circle><circle cx="3.1111111111111107" cy="3.5" r="0.0625" fill="#ff0000"></circle><circle cx="4.0" cy="3.5" r="0.0625" fill="#ff0000"></circle><circle cx="4.888888888888889" cy="3.5" r="0.0625" fill="#ff0000"></circle><circle cx="8.0" cy="1.5" r="0.0625" fill="#ff0000"></circle><circle cx="6.222222222222221" cy="2.5" r="0.0625" fill="#ff0000"></circle><circle cx="5.511111111111111" cy="3.5" r="0.0625" fill="#ff0000"></circle><circle cx="5.866666666666666" cy="3.5" r="0.0625" fill="#ff0000"></circle><circle cx="6.222222222222222" cy="3.5" r="0.0625" fill="#ff0000"></circle><circle cx="6.5777777777777775" cy="3.5" r="0.0625" fill="#ff0000"></circle><circle cx="6.933333333333333" cy="3.5" r="0.0625" fill="#ff0000"></circle><circle cx="8.0" cy="2.5" r="0.0625" fill="#ff0000"></circle><circle cx="7.555555555555555" cy="3.5" r="0.0625" fill="#ff0000"></circle><circle cx="8.444444444444445" cy="3.5" r="0.0625" fill="#ff0000"></circle><circle cx="9.777777777777779" cy="2.5" r="0.0625" fill="#ff0000"></circle><circle cx="9.185185185185185" cy="3.5" r="0.0625" fill="#ff0000"></circle><circle cx="9.777777777777777" cy="3.5" r="0.0625" fill="#ff0000"></circle><circle cx="10.37037037037037" cy="3.5" r="0.0625" fill="#ff0000"></circle><circle cx="13.333333333333332" cy="1.5" r="0.0625" fill="#ff0000"></circle><circle cx="11.333333333333332" cy="2.5" r="0.0625" fill="#ff0000"></circle><circle cx="11.0" cy="3.5" r="0.0625" fill="#ff0000"></circle><circle cx="11.666666666666666" cy="3.5" r="0.0625" fill="#ff0000"></circle><circle cx="12.666666666666666" cy="2.5" r="0.0625" fill="#ff0000"></circle><circle cx="12.166666666666666" cy="3.5" r="0.0625" fill="#ff0000"></circle><circle cx="12.5" cy="3.5" r="0.0625" fill="#ff0000"></circle><circle cx="12.833333333333332" cy="3.5" r="0.0625" fill="#ff0000"></circle><circle cx="13.166666666666666" cy="3.5" r="0.0625" fill="#ff0000"></circle><circle cx="13.999999999999998" cy="2.5" r="0.0625" fill="#ff0000"></circle><circle cx="13.555555555555554" cy="3.5" r="0.0625" fill="#ff0000"></circle><circle cx="13.999999999999998" cy="3.5" r="0.0625" fill="#ff0000"></circle><circle cx="14.444444444444443" cy="3.5" r="0.0625" fill="#ff0000"></circle><circle cx="15.333333333333332" cy="2.5" r="0.0625" fill="#ff0000"></circle></g><use href="#graph" y="4.0" transform=" translate(0, 4.0) rotate(180, 8.0, 4.0)"></use></svg>