<svg width="25cm" height="8cm" viewBox="0, 0, 25, 8" version="1.1" xmlns="http://www.w3.org/2000/svg"><g id="graph"><line x1="0" y1="0" x2="25" y2="0" stroke="#000000" stroke-width="0.03125"></line><line x1="0" y1="0" x2="0" y2="1" stroke="#000000" stroke-width="0.03125"></line><line x1="25" y1="0" x2="25" y2="1" stroke="#000000" stroke-width="0.03125"></line><line x1="0" y1="1" x2="8.333333333333334" y2="1" stroke="#000000" stroke-width="0.03125"></line><line x1="0" y1="1" x2="0" y2="2" stroke="#000000" stroke-width="0.03125"></line><line x1="8.333333333333334" y1="1" x2="8.333333333333334" y2="2" stroke="#000000" stroke-width="0.03125"></line><line x1="0" y1="2" x2="4.166666666666667" y2="2" stroke="#000000" stroke-width="0.03125"></line><line x1="0" y1="2" x2="0" y2="3" stroke="#000000" stroke-width="0.03125"></line><line x1="4.166666666666667" y1="2" x2="4.166666666666667" y2="3" stroke="#000000" stroke-width="0.03125"></line><line x1="0" y1="3" x2="2.0833333333333335" y2="3" stroke="#000000" stroke-width="0.03125"></line><line x1="0" y1="3" x2="0" y2="4" stroke="#000000" stroke-width="0.03125"></line><line x1="2.0833333333333335" y1="3" x2="2.0833333333333335" y2="4" stroke="#000000" stroke-width="0.03125"></line><line x1="0" y1="4" x2="2.0833333333333335" y2="4" stroke="#000000" stroke-width="0.0625"></line><line x1="2.0833333333333335" y1="2.5" x2="1.0416666666666667" y2="3.5" stroke="#0000ff" stroke-width="0.0625"></line><line x1="2.0833333333333335" y1="3" x2="4.166666666666667" y2="3" stroke="#000000" stroke-width="0.03125"></line><line x1="2.0833333333333335" y1="3" x2="2.0833333333333335" y2="4" stroke="#000000" stroke-width="0.03125"></line><line x1="4.166666666666667" y1="3" x2="4.166666666666667" y2="4" stroke="#000000" stroke-width="0.03125"></line><line x1="2.0833333333333335" y1="4" x2="4.166666666666667" y2="4" stroke="#000000" stroke-width="0.0625"></line><line x1="2.0833333333333335" y1="2.5" x2="3.125" y2="3.5" stroke="#0000ff" stroke-width="0.0625"></line><line x1="4.166666666666667" y1="1.5" x2="2.0833333333333335" y2="2.5" stroke="#0000ff" stroke-width="0.0625"></line><line x1="4.166666666666667" y1="2" x2="8.333333333333334" y2="2" stroke="#000000" stroke-width="0.03125"></line><line x1="4.166666666666667" y1="2" x2="4.166666666666667" y2="3" stroke="#000000" stroke-width="0.03125"></line><line x1="8.333333333333334" y1="2" x2="8.333333333333334" y2="3" stroke="#000000" stroke-width="0.03125"></line><line x1="4.166666666666667" y1="3" x2="5.555555555555556" y2="3" stroke="#000000" stroke-width="0.03125"></line><line x1="4.166666666666667" y1="3" x2="4.166666666666667" y2="4" stroke="#000000" stroke-width="0.03125"></line><line x1="5.555555555555556" y1="3" x2="5.555555555555556" y2="4" stroke="#000000" stroke-width="0.03125"></line><line x1="4.166666666666667" y1="4" x2="5.555555555555556" y2="4" stroke="#000000" stroke-width="0.0625"></line><line x1="6.25" y1="2.5" x2="4.861111111111112" y2="3.5" stroke="#0000ff" stroke-width="0.0625"></line><line x1="5.555555555555556" y1="3" x2="6.9444444444444455" y2="3" stroke="#000000" stroke-width="0.03125"></line><line x1="5.555555555555556" y1="3" x2="5.555555555555556" y2="4" stroke="#000000" stroke-width="0.03125"></line><line x1="6.9444444444444455" y1="3" x2="6.9444444444444455" y2="4" stroke="#000000" stroke-width="0.03125"></line><line x1="5.555555555555556" y1="4" x2="6.9444444444444455" y2="4" stroke="#000000" stroke-width="0.0625"></line><line x1="6.25" y1="2.5" x2="6.250000000000001" y2="3.5" stroke="#0000ff" stroke-width="0.0625"></line><line x1="6.944444444444445" y1="3" x2="8.333333333333334" y2="3" stroke="#000000" stroke-width="0.03125"></line><line x1="6.944444444444445" y1="3" x2="6.944444444444445" y2="4" stroke="#000000" stroke-width="0.03125"></line><line x1="8.333333333333334" y1="3" x2="8.333333333333334" y2="4" stroke="#000000" stroke-width="0.03125"></line><line x1="6.944444444444445" y1="4" x2="8.333333333333334" y2="4" stroke="#000000" stroke-width="0.0625"></line><line x1="6.25" y1="2.5" x2="7.638888888888889" y2="3.5" stroke="#0000ff" stroke-width="0.0625"></line><line x1="4.166666666666667" y1="1.5" x2="6.25" y2="2.5" stroke="#0000ff" stroke-width="0.0625"></line><line x1="12.5" y1="0.5" x2="4.166666666666667" y2="1.5" stroke="#0000ff" stroke-width="0.0625"></line><line x1="8.333333333333334" y1="1" x2="16.666666666666668" y2="1" stroke="#000000" stroke-width="0.03125"></line><line x1="8.333333333333334" y1="1" x2="8.333333333333334" y2="2" stroke="#000000" stroke-width="0.03125"></line><line x1="16.666666666666668" y1="1" x2="16.666666666666668" y2="2" stroke="#000000" stroke-width="0.03125"></line><line x1="8.333333333333334" y1="2" x2="11.111111111111112" y2="2" stroke="#000000" stroke-width="0.03125"></line><line x1="8.333333333333334" y1="2" x2="8.333333333333334" y2="3" stroke="#000000" stroke-width="0.03125"></line><line x1="11.111111111111112" y1="2" x2="11.111111111111112" y2="3" stroke="#000000" stroke-width="0.03125"></line><line x1="8.333333333333334" y1="3" x2="8.88888888888889" y2="3" stroke="#000000" stroke-width="0.03125"></line><line x1="8.333333333333334" y1="3" x2="8.333333333333334" y2="4" stroke="#000000" stroke-width="0.03125"></line><line x1="8.88888888888889" y1="3" x2="8.88888888888889" y2="4" stroke="#000000" stroke-width="0.03125"></line><line x1="8.333333333333334" y1="4" x2="8.88888888888889" y2="4" stroke="#000000" stroke-width="0.0625"></line><line x1="9.722222222222223" y1="2.5" x2="8.611111111111112" y2="3.5" stroke="#0000ff" stroke-width="0.0625"></line><line x1="8.88888888888889" y1="3" x2="9.444444444444445" y2="3" stroke="#000000" stroke-width="0.03125"></line><line x1="8.88888888888889" y1="3" x2="8.88888888888889" y2="4" stroke="#000000" stroke-width="0.03125"></line><line x1="9.444444444444445" y1="3" x2="9.444444444444445" y2="4" stroke="#000000" stroke-width="0.03125"></line><line x1="8.88888888888889" y1="4" x2="9.444444444444445" y2="4" stroke="#000000" stroke-width="0.0625"></line><line x1="9.722222222222223" y1="2.5" x2="9.166666666666668" y2="3.5" stroke="#0000ff" stroke-width="0.0625"></line><line x1="9.444444444444445" y1="3" x2="10.0" y2="3" stroke="#000000" stroke-width="0.03125"></line><line x1="9.444444444444445" y1="3" x2="9.444444444444445" y2="4" stroke="#000000" stroke-width="0.03125"></line><line x1="10.0" y1="3" x2="10.0" y2="4" stroke="#000000" stroke-width="0.03125"></line><line x1="9.444444444444445" y1="4" x2="10.0" y2="4" stroke="#000000" stroke-width="0.0625"></line><line x1="9.722222222222223" y1="2.5" x2="9.722222222222223" y2="3.5" stroke="#0000ff" stroke-width="0.0625"></line><line x1="10.0" y1="3" x2="10.555555555555555" y2="3" stroke="#000000" stroke-width="0.03125"></line><line x1="10.0" y1="3" x2="10.0" y2="4" stroke="#000000" stroke-width="0.03125"></line><line x1="10.555555555555555" y1="3" x2="10.555555555555555" y2="4" stroke="#000000" stroke-width="0.03125"></line><line x1="10.0" y1="4" x2="10.555555555555555" y2="4" stroke="#000000" stroke-width="0.0625"></line><line x1="9.722222222222223" y1="2.5" x2="10.277777777777779" y2="3.5" stroke="#0000ff" stroke-width="0.0625"></line><line x1="10.555555555555557" y1="3" x2="11.111111111111112" y2="3" stroke="#000000" stroke-width="0.03125"></line><line x1="10.555555555555557" y1="3" x2="10.555555555555557" y2="4" stroke="#000000" stroke-width="0.03125"></line><line x1="11.111111111111112" y1="3" x2="11.111111111111112" y2="4" stroke="#000000" stroke-width="0.03125"></line><line x1="10.555555555555557" y1="4" x2="11.111111111111112" y2="4" stroke="#000000" stroke-width="0.0625"></line><line x1="9.722222222222223" y1="2.5" x2="10.833333333333336" y2="3.5" stroke="#0000ff" stroke-width="0.0625"></line><line x1="12.5" y1="1.5" x2="9.722222222222223" y2="2.5" stroke="#0000ff" stroke-width="0.0625"></line><line x1="11.111111111111112" y1="2" x2="13.888888888888891" y2="2" stroke="#000000" stroke-width="0.03125"></line><line x1="11.111111111111112" y1="2" x2="11.111111111111112" y2="3" stroke="#000000" stroke-width="0.03125"></line><line x1="13.888888888888891" y1="2" x2="13.888888888888891" y2="3" stroke="#000000" stroke-width="0.03125"></line><line x1="11.111111111111112" y1="3" x2="12.500000000000002" y2="3" stroke="#000000" stroke-width="0.03125"></line><line x1="11.111111111111112" y1="3" x2="11.111111111111112" y2="4" stroke="#000000" stroke-width="0.03125"></line><line x1="12.500000000000002" y1="3" x2="12.500000000000002" y2="4" stroke="#000000" stroke-width="0.03125"></line><line x1="11.111111111111112" y1="4" x2="12.500000000000002" y2="4" stroke="#000000" stroke-width="0.0625"></line><line x1="12.500000000000002" y1="2.5" x2="11.805555555555557" y2="3.5" stroke="#0000ff" stroke-width="0.0625"></line><line x1="12.500000000000002" y1="3" x2="13.888888888888891" y2="3" stroke="#000000" stroke-width="0.03125"></line><line x1="12.500000000000002" y1="3" x2="12.500000000000002" y2="4" stroke="#000000" stroke-width="0.03125"></line><line x1="13.888888888888891" y1="3" x2="13.888888888888891" y2="4" stroke="#000000" stroke-width="0.03125"></line><line x1="12.500000000000002" y1="4" x2="13.888888888888891" y2="4" stroke="#000000" stroke-width="0.0625"></line><line x1="12.500000000000002" y1="2.5" x2="13.194444444444446" y2="3.5" stroke="#0000ff" stroke-width="0.0625"></line><line x1="12.5" y1="1.5" x2="12.500000000000002" y2="2.5" stroke="#0000ff" stroke-width="0.0625"></line><line x1="13.88888888888889" y1="2" x2="16.666666666666668" y2="2" stroke="#000000" stroke-width="0.03125"></line><line x1="13.88888888888889" y1="2" x2="13.88888888888889" y2="3" stroke="#000000" stroke-width="0.03125"></line><line x1="16.666666666666668" y1="2" x2="16.666666666666668" y2="3" stroke="#000000" stroke-width="0.03125"></line><line x1="13.88888888888889" y1="3" x2="14.814814814814815" y2="3" stroke="#000000" stroke-width="0.03125"></line><line x1="13.88888888888889" y1="3" x2="13.88888888888889" y2="4" stroke="#000000" stroke-width="0.03125"></line><line x1="14.814814814814815" y1="3" x2="14.814814814814815" y2="4" stroke="#000000" stroke-width="0.03125"></line><line x1="13.88888888888889" y1="4" x2="14.814814814814815" y2="4" stroke="#000000" stroke-width="0.0625"></line><line x1="15.277777777777779" y1="2.5" x2="14.351851851851853" y2="3.5" stroke="#0000ff" stroke-width="0.0625"></line><line x1="14.814814814814815" y1="3" x2="15.74074074074074" y2="3" stroke="#000000" stroke-width="0.03125"></line><line x1="14.814814814814815" y1="3" x2="14.814814814814815" y2="4" stroke="#000000" stroke-width="0.03125"></line><line x1="15.74074074074074" y1="3" x2="15.74074074074074" y2="4" stroke="#000000" stroke-width="0.03125"></line><line x1="14.814814814814815" y1="4" x2="15.74074074074074" y2="4" stroke="#000000" stroke-width="0.0625"></line><line x1="15.277777777777779" y1="2.5" x2="15.277777777777779" y2="3.5" stroke="#0000ff" stroke-width="0.0625"></line><line x1="15.74074074074074" y1="3" x2="16.666666666666668" y2="3" stroke="#000000" stroke-width="0.03125"></line><line x1="15.74074074074074" y1="3" x2="15.74074074074074" y2="4" stroke="#000000" stroke-width="0.03125"></line><line x1="16.666666666666668" y1="3" x2="16.666666666666668" y2="4" stroke="#000000" stroke-width="0.03125"></line><line x1="15.74074074074074" y1="4" x2="16.666666666666668" y2="4" stroke="#000000" stroke-width="0.0625"></line><line x1="15.277777777777779" y1="2.5" x2="16.203703703703702" y2="3.5" stroke="#0000ff" stroke-width="0.0625"></line><line x1="12.5" y1="1.5" x2="15.277777777777779" y2="2.5" stroke="#0000ff" stroke-width="0.0625"></line><line x1="12.5" y1="0.5" x2="12.5" y2="1.5" stroke="#0000ff" stroke-width="0.0625"></line><line x1="16.666666666666668" y1="1" x2="25.0" y2="1" stroke="#000000" stroke-width="0.03125"></line><line x1="16.666666666666668" y1="1" x2="16.666666666666668" y2="2" stroke="#000000" stroke-width="0.03125"></line><line x1="25.0" y1="1" x2="25.0" y2="2" stroke="#000000" stroke-width="0.03125"></line><line x1="16.666666666666668" y1="2" x2="18.75" y2="2" stroke="#000000" stroke-width="0.03125"></line><line x1="16.666666666666668" y1="2" x2="16.666666666666668" y2="3" stroke="#000000" stroke-width="0.03125"></line><line x1="18.75" y1="2" x2="18.75" y2="3" stroke="#000000" stroke-width="0.03125"></line><line x1="16.666666666666668" y1="3" x2="17.708333333333336" y2="3" stroke="#000000" stroke-width="0.03125"></line><line x1="16.666666666666668" y1="3" x2="16.666666666666668" y2="4" stroke="#000000" stroke-width="0.03125"></line><line x1="17.708333333333336" y1="3" x2="17.708333333333336" y2="4" stroke="#000000" stroke-width="0.03125"></line><line x1="16.666666666666668" y1="4" x2="17.708333333333336" y2="4" stroke="#000000" stroke-width="0.0625"></line><line x1="17.708333333333336" y1="2.5" x2="17.1875" y2="3.5" stroke="#0000ff" stroke-width="0.0625"></line><line x1="17.708333333333336" y1="3" x2="18.750000000000004" y2="3" stroke="#000000" stroke-width="0.03125"></line><line x1="17.708333333333336" y1="3" x2="17.708333333333336" y2="4" stroke="#000000" stroke-width="0.03125"></line><line x1="18.750000000000004" y1="3" x2="18.750000000000004" y2="4" stroke="#000000" stroke-width="0.03125"></line><line x1="17.708333333333336" y1="4" x2="18.750000000000004" y2="4" stroke="#000000" stroke-width="0.0625"></line><line x1="17.708333333333336" y1="2.5" x2="18.229166666666668" y2="3.5" stroke="#0000ff" stroke-width="0.0625"></line><line x1="20.833333333333336" y1="1.5" x2="17.708333333333336" y2="2.5" stroke="#0000ff" stroke-width="0.0625"></line><line x1="18.75" y1="2" x2="20.833333333333332" y2="2" stroke="#000000" stroke-width="0.03125"></line><line x1="18.75" y1="2" x2="18.75" y2="3" stroke="#000000" stroke-width="0.03125"></line><line x1="20.833333333333332" y1="2" x2="20.833333333333332" y2="3" stroke="#000000" stroke-width="0.03125"></line><line x1="18.75" y1="3" x2="19.270833333333332" y2="3" stroke="#000000" stroke-width="0.03125"></line><line x1="18.75" y1="3" x2="18.75" y2="4" stroke="#000000" stroke-width="0.03125"></line><line x1="19.270833333333332" y1="3" x2="19.270833333333332" y2="4" stroke="#000000" stroke-width="0.03125"></line><line x1="18.75" y1="4" x2="19.270833333333332" y2="4" stroke="#000000" stroke-width="0.0625"></line><line x1="19.791666666666668" y1="2.5" x2="19.010416666666668" y2="3.5" stroke="#0000ff" stroke-width="0.0625"></line><line x1="19.270833333333332" y1="3" x2="19.791666666666664" y2="3" stroke="#000000" stroke-width="0.03125"></line><line x1="19.270833333333332" y1="3" x2="19.270833333333332" y2="4" stroke="#000000" stroke-width="0.03125"></line><line x1="19.791666666666664" y1="3" x2="19.791666666666664" y2="4" stroke="#000000" stroke-width="0.03125"></line><line x1="19.270833333333332" y1="4" x2="19.791666666666664" y2="4" stroke="#000000" stroke-width="0.0625"></line><line x1="19.791666666666668" y1="2.5" x2="19.53125" y2="3.5" stroke="#0000ff" stroke-width="0.0625"></line><line x1="19.791666666666668" y1="3" x2="20.3125" y2="3" stroke="#000000" stroke-width="0.03125"></line><line x1="19.791666666666668" y1="3" x2="19.791666666666668" y2="4" stroke="#000000" stroke-width="0.03125"></line><line x1="20.3125" y1="3" x2="20.3125" y2="4" stroke="#000000" stroke-width="0.03125"></line><line x1="19.791666666666668" y1="4" x2="20.3125" y2="4" stroke="#000000" stroke-width="0.0625"></line><line x1="19.791666666666668" y1="2.5" x2="20.052083333333336" y2="3.5" stroke="#0000ff" stroke-width="0.0625"></line><line x1="20.3125" y1="3" x2="20.833333333333332" y2="3" stroke="#000000" stroke-width="0.03125"></line><line x1="20.3125" y1="3" x2="20.3125" y2="4" stroke="#000000" stroke-width="0.03125"></line><line x1="20.833333333333332" y1="3" x2="20.833333333333332" y2="4" stroke="#000000" stroke-width="0.03125"></line><line x1="20.3125" y1="4" x2="20.833333333333332" y2="4" stroke="#000000" stroke-width="0.0625"></line><line x1="19.791666666666668" y1="2.5" x2="20.572916666666668" y2="3.5" stroke="#0000ff" stroke-width="0.0625"></line><line x1="20.833333333333336" y1="1.5" x2="19.791666666666668" y2="2.5" stroke="#0000ff" stroke-width="0.0625"></line><line x1="20.833333333333336" y1="2" x2="22.916666666666668" y2="2" stroke="#000000" stroke-width="0.03125"></line><line x1="20.833333333333336" y1="2" x2="20.833333333333336" y2="3" stroke="#000000" stroke-width="0.03125"></line><line x1="22.916666666666668" y1="2" x2="22.916666666666668" y2="3" stroke="#000000" stroke-width="0.03125"></line><line x1="20.833333333333336" y1="3" x2="21.52777777777778" y2="3" stroke="#000000" stroke-width="0.03125"></line><line x1="20.833333333333336" y1="3" x2="20.833333333333336" y2="4" stroke="#000000" stroke-width="0.03125"></line><line x1="21.52777777777778" y1="3" x2="21.52777777777778" y2="4" stroke="#000000" stroke-width="0.03125"></line><line x1="20.833333333333336" y1="4" x2="21.52777777777778" y2="4" stroke="#000000" stroke-width="0.0625"></line><line x1="21.875000000000004" y1="2.5" x2="21.180555555555557" y2="3.5" stroke="#0000ff" stroke-width="0.0625"></line><line x1="21.52777777777778" y1="3" x2="22.22222222222222" y2="3" stroke="#000000" stroke-width="0.03125"></line><line x1="21.52777777777778" y1="3" x2="21.52777777777778" y2="4" stroke="#000000" stroke-width="0.03125"></line><line x1="22.22222222222222" y1="3" x2="22.22222222222222" y2="4" stroke="#000000" stroke-width="0.03125"></line><line x1="21.52777777777778" y1="4" x2="22.22222222222222" y2="4" stroke="#000000" stroke-width="0.0625"></line><line x1="21.875000000000004" y1="2.5" x2="21.875" y2="3.5" stroke="#0000ff" stroke-width="0.0625"></line><line x1="22.222222222222225" y1="3" x2="22.916666666666668" y2="3" stroke="#000000" stroke-width="0.03125"></line><line x1="22.222222222222225" y1="3" x2="22.222222222222225" y2="4" stroke="#000000" stroke-width="0.03125"></line><line x1="22.916666666666668" y1="3" x2="22.916666666666668" y2="4" stroke="#000000" stroke-width="0.03125"></line><line x1="22.222222222222225" y1="4" x2="22.916666666666668" y2="4" stroke="#000000" stroke-width="0.0625"></line><line x1="21.875000000000004" y1="2.5" x2="22.569444444444446" y2="3.5" stroke="#0000ff" stroke-width="0.0625"></line><line x1="20.833333333333336" y1="1.5" x2="21.875000000000004" y2="2.5" stroke="#0000ff" stroke-width="0.0625"></line><line x1="22.916666666666668" y1="2" x2="25.0" y2="2" stroke="#000000" stroke-width="0.03125"></line><line x1="22.916666666666668" y1="2" x2="22.916666666666668" y2="4" stroke="#000000" stroke-width="0.03125"></line><line x1="25.0" y1="2" x2="25.0" y2="4" stroke="#000000" stroke-width="0.03125"></line><line x1="22.916666666666668" y1="4" x2="25.0" y2="4" stroke="#000000" stroke-width="0.0625"></line><line x1="20.833333333333336" y1="1.5" x2="23.958333333333336" y2="2.5" stroke="#0000ff" stroke-width="0.0625"></line><line x1="12.5" y1="0.5" x2="20.833333333333336" y2="1.5" stroke="#0000ff" stroke-width="0.0625"></line><circle cx="12.5" cy="0.5" r="0.0625" fill="#ff0000"></circle><circle cx="4.166666666666667" cy="1.5" r="0.0625" fill="#ff0000"></circle><circle cx="2.0833333333333335" cy="2.5" r="0.0625" fill="#ff0000"></circle><circle cx="1.0416666666666667" cy="3.5" r="0.0625" fill="#ff0000"></circle><circle cx="3.125" cy="3.5" r="0.0625" fill="#ff0000"></circle><circle cx="6.25" cy="2.5" r="0.0625" fill="#ff0000"></circle><circle cx="4.861111111111112" cy="3.5" r="0.0625" fill="#ff0000"></circle><circle cx="6.250000000000001" cy="3.5" r="0.0625" fill="#ff0000"></circle><circle cx="7.638888888888889" cy="3.5" r="0.0625" fill="#ff0000"></circle><circle cx="12.5" cy="1.5" r="0.0625" fill="#ff0000"></circle><circle cx="9.722222222222223" cy="2.5" r="0.0625" fill="#ff0000"></circle><circle cx="8.611111111111112" cy="3.5" r="0.0625" fill="#ff0000"></circle><circle cx="9.166666666666668" cy="3.5" r="0.0625" fill="#ff0000"></circle><circle cx="9.722222222222223" cy="3.5" r="0.0625" fill="#ff0000"></circle><circle cx="10.277777777777779" cy="3.5" r="0.0625" fill="#ff0000"></circle><circle cx="10.833333333333336" cy="3.5" r="0.0625" fill="#ff0000"></circle><circle cx="12.500000000000002" cy="2.5" r="0.0625" fill="#ff0000"></circle><circle cx="11.805555555555557" cy="3.5" r="0.0625" fill="#ff0000"></circle><circle cx="13.194444444444446" cy="3.5" r="0.0625" fill="#ff0000"></circle><circle cx="15.277777777777779" cy="2.5" r="0.0625" fill="#ff0000"></circle><circle cx="14.351851851851853" cy="3.5" r="0.0625" fill="#ff0000"></circle><circle cx="15.277777777777779" cy="3.5" r="0.0625" fill="#ff0000"></circle><circle cx="16.203703703703702" cy="3.5" r="0.0625" fill="#ff0000"></circle><circle cx="20.833333333333336" cy="1.5" r="0.0625" fill="#ff0000"></circle><circle cx="17.708333333333336" cy="2.5" r="0.0625" fill="#ff0000"></circle><circle cx="17.1875" cy="3.5" r="0.0625" fill="#ff0000"></circle><circle cx="18.229166666666668" cy="3.5" r="0.0625" fill="#ff0000"></circle><circle cx="19.791666666666668" cy="2.5" r="0.0625" fill="#ff0000"></circle><circle cx="19.010416666666668" cy="3.5" r="0.0625" fill="#ff0000"></circle><circle cx="19.53125" cy="3.5" r="0.0625" fill="#ff0000"></circle><circle cx="20.052083333333336" cy="3.5" r="0.0625" fill="#ff0000"></circle><circle cx="20.572916666666668" cy="3.5" r="0.0625" fill="#ff0000"></circle><circle cx="21.875000000000004" cy="2.5" r="0.0625" fill="#ff0000"></circle><circle cx="21.180555555555557" cy="3.5" r="0.0625" fill="#ff0000"></circle><circle cx="21.875" cy="3.5" r="0.0625" fill="#ff0000"></circle><circle cx="22.569444444444446" cy="3.5" r="0.0625" fill="#ff0000"></circle><circle cx="23.958333333333336" cy="2.5" r="0.0625" fill="#ff0000"></circle></g><use href="#graph" y="4.0" transform=" translate(0, 4.0) rotate(180, 12.5, 4.0)"></use></svg>