<svg width="14cm" height="8cm" viewBox="0, 0, 14, 8" version="1.1" xmlns="http://www.w3.org/2000/svg"><g id="graph"><line x1="0" y1="0" x2="14" y2="0" stroke="#000000" stroke-width="0.03125"></line><line x1="0" y1="0" x2="0" y2="1" stroke="#000000" stroke-width="0.03125"></line><line x1="14" y1="0" x2="14" y2="1" stroke="#000000" stroke-width="0.03125"></line><line x1="0" y1="1" x2="3.5" y2="1" stroke="#000000" stroke-width="0.03125"></line><line x1="0" y1="1" x2="0" y2="2" stroke="#000000" stroke-width="0.03125"></line><line x1="3.5" y1="1" x2="3.5" y2="2" stroke="#000000" stroke-width="0.03125"></line><line x1="0" y1="2" x2="1.1666666666666667" y2="2" stroke="#000000" stroke-width="0.03125"></line><line x1="0" y1="2" x2="0" y2="4" stroke="#000000" stroke-width="0.03125"></line><line x1="1.1666666666666667" y1="2" x2="1.1666666666666667" y2="4" stroke="#000000" stroke-width="0.03125"></line><line x1="0" y1="4" x2="1.1666666666666667" y2="4" stroke="#000000" stroke-width="0.0625"></line><line x1="1.75" y1="1.5" x2="0.5833333333333334" y2="2.5" stroke="#0000ff" stroke-width="0.0625"></line><line x1="1.1666666666666667" y1="2" x2="2.3333333333333335" y2="2" stroke="#000000" stroke-width="0.03125"></line><line x1="1.1666666666666667" y1="2" x2="1.1666666666666667" y2="4" stroke="#000000" stroke-width="0.03125"></line><line x1="2.3333333333333335" y1="2" x2="2.3333333333333335" y2="4" stroke="#000000" stroke-width="0.03125"></line><line x1="1.1666666666666667" y1="4" x2="2.3333333333333335" y2="4" stroke="#000000" stroke-width="0.0625"></line><line x1="1.75" y1="1.5" x2="1.75" y2="2.5" stroke="#0000ff" stroke-width="0.0625"></line><line x1="2.3333333333333335" y1="2" x2="3.5" y2="2" stroke="#000000" stroke-width="0.03125"></line><line x1="2.3333333333333335" y1="2" x2="2.3333333333333335" y2="4" stroke="#000000" stroke-width="0.03125"></line><line x1="3.5" y1="2" x2="3.5" y2="4" stroke="#000000" stroke-width="0.03125"></line><line x1="2.3333333333333335" y1="4" x2="3.5" y2="4" stroke="#000000" stroke-width="0.0625"></line><line x1="1.75" y1="1.5" x2="2.916666666666667" y2="2.5" stroke="#0000ff" stroke-width="0.0625"></line><line x1="7.0" y1="0.5" x2="1.75" y2="1.5" stroke="#0000ff" stroke-width="0.0625"></line><line x1="3.5" y1="1" x2="7.0" y2="1" stroke="#000000" stroke-width="0.03125"></line><line x1="3.5" y1="1" x2="3.5" y2="2" stroke="#000000" stroke-width="0.03125"></line><line x1="7.0" y1="1" x2="7.0" y2="2" stroke="#000000" stroke-width="0.03125"></line><line x1="3.5" y1="2" x2="5.25" y2="2" stroke="#000000" stroke-width="0.03125"></line><line x1="3.5" y1="2" x2="3.5" y2="3" stroke="#000000" stroke-width="0.03125"></line><line x1="5.25" y1="2" x2="5.25" y2="3" stroke="#000000" stroke-width="0.03125"></line><line x1="3.5" y1="3" x2="4.375" y2="3" stroke="#000000" stroke-width="0.03125"></line><line x1="3.5" y1="3" x2="3.5" y2="4" stroke="#000000" stroke-width="0.03125"></line><line x1="4.375" y1="3" x2="4.375" y2="4" stroke="#000000" stroke-width="0.03125"></line><line x1="3.5" y1="4" x2="4.375" y2="4" stroke="#000000" stroke-width="0.0625"></line><line x1="4.375" y1="2.5" x2="3.9375" y2="3.5" stroke="#0000ff" stroke-width="0.0625"></line><line x1="4.375" y1="3" x2="5.25" y2="3" stroke="#000000" stroke-width="0.03125"></line><line x1="4.375" y1="3" x2="4.375" y2="4" stroke="#000000" stroke-width="0.03125"></line><line x1="5.25" y1="3" x2="5.25" y2="4" stroke="#000000" stroke-width="0.03125"></line><line x1="4.375" y1="4" x2="5.25" y2="4" stroke="#000000" stroke-width="0.0625"></line><line x1="4.375" y1="2.5" x2="4.8125" y2="3.5" stroke="#0000ff" stroke-width="0.0625"></line><line x1="5.25" y1="1.5" x2="4.375" y2="2.5" stroke="#0000ff" stroke-width="0.0625"></line><line x1="5.25" y1="2" x2="7.0" y2="2" stroke="#000000" stroke-width="0.03125"></line><line x1="5.25" y1="2" x2="5.25" y2="3" stroke="#000000" stroke-width="0.03125"></line><line x1="7.0" y1="2" x2="7.0" y2="3" stroke="#000000" stroke-width="0.03125"></line><line x1="5.25" y1="3" x2="6.125" y2="3" stroke="#000000" stroke-width="0.03125"></line><line x1="5.25" y1="3" x2="5.25" y2="4" stroke="#000000" stroke-width="0.03125"></line><line x1="6.125" y1="3" x2="6.125" y2="4" stroke="#000000" stroke-width="0.03125"></line><line x1="5.25" y1="4" x2="6.125" y2="4" stroke="#000000" stroke-width="0.0625"></line><line x1="6.125" y1="2.5" x2="5.6875" y2="3.5" stroke="#0000ff" stroke-width="0.0625"></line><line x1="6.125" y1="3" x2="7.0" y2="3" stroke="#000000" stroke-width="0.03125"></line><line x1="6.125" y1="3" x2="6.125" y2="4" stroke="#000000" stroke-width="0.03125"></line><line x1="7.0" y1="3" x2="7.0" y2="4" stroke="#000000" stroke-width="0.03125"></line><line x1="6.125" y1="4" x2="7.0" y2="4" stroke="#000000" stroke-width="0.0625"></line><line x1="6.125" y1="2.5" x2="6.5625" y2="3.5" stroke="#0000ff" stroke-width="0.0625"></line><line x1="5.25" y1="1.5" x2="6.125" y2="2.5" stroke="#0000ff" stroke-width="0.0625"></line><line x1="7.0" y1="0.5" x2="5.25" y2="1.5" stroke="#0000ff" stroke-width="0.0625"></line><line x1="7.0" y1="1" x2="10.5" y2="1" stroke="#000000" stroke-width="0.03125"></line><line x1="7.0" y1="1" x2="7.0" y2="2" stroke="#000000" stroke-width="0.03125"></line><line x1="10.5" y1="1" x2="10.5" y2="2" stroke="#000000" stroke-width="0.03125"></line><line x1="7.0" y1="2" x2="7.875" y2="2" stroke="#000000" stroke-width="0.03125"></line><line x1="7.0" y1="2" x2="7.0" y2="4" stroke="#000000" stroke-width="0.03125"></line><line x1="7.875" y1="2" x2="7.875" y2="4" stroke="#000000" stroke-width="0.03125"></line><line x1="7.0" y1="4" x2="7.875" y2="4" stroke="#000000" stroke-width="0.0625"></line><line x1="8.75" y1="1.5" x2="7.4375" y2="2.5" stroke="#0000ff" stroke-width="0.0625"></line><line x1="7.875" y1="2" x2="8.75" y2="2" stroke="#000000" stroke-width="0.03125"></line><line x1="7.875" y1="2" x2="7.875" y2="4" stroke="#000000" stroke-width="0.03125"></line><line x1="8.75" y1="2" x2="8.75" y2="4" stroke="#000000" stroke-width="0.03125"></line><line x1="7.875" y1="4" x2="8.75" y2="4" stroke="#000000" stroke-width="0.0625"></line><line x1="8.75" y1="1.5" x2="8.3125" y2="2.5" stroke="#0000ff" stroke-width="0.0625"></line><line x1="8.75" y1="2" x2="9.625" y2="2" stroke="#000000" stroke-width="0.03125"></line><line x1="8.75" y1="2" x2="8.75" y2="4" stroke="#000000" stroke-width="0.03125"></line><line x1="9.625" y1="2" x2="9.625" y2="4" stroke="#000000" stroke-width="0.03125"></line><line x1="8.75" y1="4" x2="9.625" y2="4" stroke="#000000" stroke-width="0.0625"></line><line x1="8.75" y1="1.5" x2="9.1875" y2="2.5" stroke="#0000ff" stroke-width="0.0625"></line><line x1="9.625" y1="2" x2="10.5" y2="2" stroke="#000000" stroke-width="0.03125"></line><line x1="9.625" y1="2" x2="9.625" y2="4" stroke="#000000" stroke-width="0.03125"></line><line x1="10.5" y1="2" x2="10.5" y2="4" stroke="#000000" stroke-width="0.03125"></line><line x1="9.625" y1="4" x2="10.5" y2="4" stroke="#000000" stroke-width="0.0625"></line><line x1="8.75" y1="1.5" x2="10.0625" y2="2.5" stroke="#0000ff" stroke-width="0.0625"></line><line x1="7.0" y1="0.5" x2="8.75" y2="1.5" stroke="#0000ff" stroke-width="0.0625"></line><line x1="10.5" y1="1" x2="14.0" y2="1" stroke="#000000" stroke-width="0.03125"></line><line x1="10.5" y1="1" x2="10.5" y2="2" stroke="#000000" stroke-width="0.03125"></line><line x1="14.0" y1="1" x2="14.0" y2="2" stroke="#000000" stroke-width="0.03125"></line><line x1="10.5" y1="2" x2="11.666666666666666" y2="2" stroke="#000000" stroke-width="0.03125"></line><line x1="10.5" y1="2" x2="10.5" y2="4" stroke="#000000" stroke-width="0.03125"></line><line x1="11.666666666666666" y1="2" x2="11.666666666666666" y2="4" stroke="#000000" stroke-width="0.03125"></line><line x1="10.5" y1="4" x2="11.666666666666666" y2="4" stroke="#000000" stroke-width="0.0625"></line><line x1="12.25" y1="1.5" x2="11.083333333333334" y2="2.5" stroke="#0000ff" stroke-width="0.0625"></line><line x1="11.666666666666666" y1="2" x2="12.833333333333332" y2="2" stroke="#000000" stroke-width="0.03125"></line><line x1="11.666666666666666" y1="2" x2="11.666666666666666" y2="4" stroke="#000000" stroke-width="0.03125"></line><line x1="12.833333333333332" y1="2" x2="12.833333333333332" y2="4" stroke="#000000" stroke-width="0.03125"></line><line x1="11.666666666666666" y1="4" x2="12.833333333333332" y2="4" stroke="#000000" stroke-width="0.0625"></line><line x1="12.25" y1="1.5" x2="12.25" y2="2.5" stroke="#0000ff" stroke-width="0.0625"></line><line x1="12.833333333333334" y1="2" x2="14.0" y2="2" stroke="#000000" stroke-width="0.03125"></line><line x1="12.833333333333334" y1="2" x2="12.833333333333334" y2="4" stroke="#000000" stroke-width="0.03125"></line><line x1="14.0" y1="2" x2="14.0" y2="4" stroke="#000000" stroke-width="0.03125"></line><line x1="12.833333333333334" y1="4" x2="14.0" y2="4" stroke="#000000" stroke-width="0.0625"></line><line x1="12.25" y1="1.5" x2="13.416666666666668" y2="2.5" stroke="#0000ff" stroke-width="0.0625"></line><line x1="7.0" y1="0.5" x2="12.25" y2="1.5" stroke="#0000ff" stroke-width="0.0625"></line><circle cx="7.0" cy="0.5" r="0.0625" fill="#ff0000"></circle><circle cx="1.75" cy="1.5" r="0.0625" fill="#ff0000"></circle><circle cx="0.5833333333333334" cy="2.5" r="0.0625" fill="#ff0000"></circle><circle cx="1.75" cy="2.5" r="0.0625" fill="#ff0000"></circle><circle cx="2.916666666666667" cy="2.5" r="0.0625" fill="#ff0000"></circle><circle cx="5.25" cy="1.5" r="0.0625" fill="#ff0000"></circle><circle cx="4.375" cy="2.5" r="0.0625" fill="#ff0000"></circle><circle cx="3.9375" cy="3.5" r="0.0625" fill="#ff0000"></circle><circle cx="4.8125" cy="3.5" r="0.0625" fill="#ff0000"></circle><circle cx="6.125" cy="2.5" r="0.0625" fill="#ff0000"></circle><circle cx="5.6875" cy="3.5" r="0.0625" fill="#ff0000"></circle><circle cx="6.5625" cy="3.5" r="0.0625" fill="#ff0000"></circle><circle cx="8.75" cy="1.5" r="0.0625" fill="#ff0000"></circle><circle cx="7.4375" cy="2.5" r="0.0625" fill="#ff0000"></circle><circle cx="8.3125" cy="2.5" r="0.0625" fill="#ff0000"></circle><circle cx="9.1875" cy="2.5" r="0.0625" fill="#ff0000"></circle><circle cx="10.0625" cy="2.5" r="0.0625" fill="#ff0000"></circle><circle cx="12.25" cy="1.5" r="0.0625" fill="#ff0000"></circle><circle cx="11.083333333333334" cy="2.5" r="0.0625" fill="#ff0000"></circle><circle cx="12.25" cy="2.5" r="0.0625" fill="#ff0000"></circle><circle cx="13.416666666666668" cy="2.5" r="0.0625" fill="#ff0000"></circle></g><use href="#graph" y="4.0" transform=" translate(0, 4.0) rotate(180, 7.0, 4.0)"></use></svg>